G04 #@! TF.GenerationSoftware,KiCad,Pcbnew,(5.0.1-3-g963ef8bb5)*
G04 #@! TF.CreationDate,2019-04-05T16:27:06+08:00*
G04 #@! TF.ProjectId,cactus,6361637475732E6B696361645F706362,rev?*
G04 #@! TF.SameCoordinates,Original*
G04 #@! TF.FileFunction,Copper,L2,Bot,Signal*
G04 #@! TF.FilePolarity,Positive*
%FSLAX46Y46*%
G04 Gerber Fmt 4.6, Leading zero omitted, Abs format (unit mm)*
G04 Created by KiCad (PCBNEW (5.0.1-3-g963ef8bb5)) date 2019 April 05, Friday 16:27:06*
%MOMM*%
%LPD*%
G01*
G04 APERTURE LIST*
G04 #@! TA.AperFunction,ComponentPad*
%ADD10C,1.800000*%
G04 #@! TD*
G04 #@! TA.AperFunction,ComponentPad*
%ADD11O,1.700000X1.700000*%
G04 #@! TD*
G04 #@! TA.AperFunction,ComponentPad*
%ADD12C,1.700000*%
G04 #@! TD*
G04 #@! TA.AperFunction,SMDPad,CuDef*
%ADD13R,0.600000X1.500000*%
G04 #@! TD*
G04 #@! TA.AperFunction,Conductor*
%ADD14C,0.100000*%
G04 #@! TD*
G04 #@! TA.AperFunction,SMDPad,CuDef*
%ADD15C,1.150000*%
G04 #@! TD*
G04 #@! TA.AperFunction,ViaPad*
%ADD16C,0.800000*%
G04 #@! TD*
G04 #@! TA.AperFunction,ViaPad*
%ADD17C,0.700000*%
G04 #@! TD*
G04 #@! TA.AperFunction,Conductor*
%ADD18C,0.250000*%
G04 #@! TD*
G04 #@! TA.AperFunction,Conductor*
%ADD19C,0.400000*%
G04 #@! TD*
G04 #@! TA.AperFunction,Conductor*
%ADD20C,0.254000*%
G04 #@! TD*
G04 APERTURE END LIST*
D10*
G04 #@! TO.P,U1,8*
G04 #@! TO.N,N/C*
X169545000Y-62230000D03*
G04 #@! TO.P,U1,7*
X169545000Y-64770000D03*
G04 #@! TO.P,U1,6*
X169545000Y-67310000D03*
G04 #@! TO.P,U1,5*
X169545000Y-69850000D03*
G04 #@! TO.P,U1,4*
X169545000Y-72390000D03*
G04 #@! TO.P,U1,3*
X169545000Y-74930000D03*
G04 #@! TO.P,U1,2*
G04 #@! TO.N,GND*
X169545000Y-77470000D03*
G04 #@! TO.P,U1,1*
G04 #@! TO.N,VCC*
X169545000Y-80010000D03*
G04 #@! TO.P,U1,16*
G04 #@! TO.N,N/C*
X146685000Y-80010000D03*
G04 #@! TO.P,U1,15*
X146685000Y-77470000D03*
G04 #@! TO.P,U1,14*
X146685000Y-74930000D03*
G04 #@! TO.P,U1,13*
X146685000Y-72390000D03*
G04 #@! TO.P,U1,12*
X146685000Y-69850000D03*
G04 #@! TO.P,U1,11*
X146685000Y-67310000D03*
G04 #@! TO.P,U1,10*
G04 #@! TO.N,/A0*
X146685000Y-64770000D03*
G04 #@! TO.P,U1,9*
G04 #@! TO.N,N/C*
X146685000Y-62230000D03*
G04 #@! TD*
G04 #@! TO.P,U2,9*
G04 #@! TO.N,/RST*
X118491000Y-62166500D03*
G04 #@! TO.P,U2,10*
G04 #@! TO.N,/A0*
X118491000Y-64706500D03*
G04 #@! TO.P,U2,11*
G04 #@! TO.N,/D0*
X118491000Y-67246500D03*
G04 #@! TO.P,U2,12*
G04 #@! TO.N,/D5*
X118491000Y-69786500D03*
G04 #@! TO.P,U2,13*
G04 #@! TO.N,/D6*
X118491000Y-72326500D03*
G04 #@! TO.P,U2,14*
G04 #@! TO.N,/D7*
X118491000Y-74866500D03*
G04 #@! TO.P,U2,15*
G04 #@! TO.N,/D8*
X118491000Y-77406500D03*
G04 #@! TO.P,U2,16*
G04 #@! TO.N,/3_3V*
X118491000Y-79946500D03*
G04 #@! TO.P,U2,1*
G04 #@! TO.N,VCC*
X141351000Y-79946500D03*
G04 #@! TO.P,U2,2*
G04 #@! TO.N,GND*
X141351000Y-77406500D03*
G04 #@! TO.P,U2,3*
G04 #@! TO.N,/EN*
X141351000Y-74866500D03*
G04 #@! TO.P,U2,4*
G04 #@! TO.N,N/C*
X141351000Y-72326500D03*
G04 #@! TO.P,U2,5*
G04 #@! TO.N,/I2C_SDA*
X141351000Y-69786500D03*
G04 #@! TO.P,U2,6*
G04 #@! TO.N,/I2C_SCL*
X141351000Y-67246500D03*
G04 #@! TO.P,U2,7*
G04 #@! TO.N,N/C*
X141351000Y-64706500D03*
G04 #@! TO.P,U2,8*
X141351000Y-62166500D03*
G04 #@! TD*
D11*
G04 #@! TO.P,U4,5*
G04 #@! TO.N,VCC*
X174752000Y-85598000D03*
G04 #@! TO.P,U4,4*
G04 #@! TO.N,Net-(R9-Pad2)*
X177292000Y-85598000D03*
G04 #@! TO.P,U4,3*
G04 #@! TO.N,GND*
X179832000Y-85598000D03*
G04 #@! TO.P,U4,2*
G04 #@! TO.N,/I2C_SCL*
X182372000Y-85598000D03*
D12*
G04 #@! TO.P,U4,1*
G04 #@! TO.N,/I2C_SDA*
X184912000Y-85598000D03*
G04 #@! TD*
D13*
G04 #@! TO.P,U3,1*
G04 #@! TO.N,/QB*
X153797000Y-64356000D03*
G04 #@! TO.P,U3,2*
G04 #@! TO.N,/QC*
X155067000Y-64356000D03*
G04 #@! TO.P,U3,3*
G04 #@! TO.N,/QD*
X156337000Y-64356000D03*
G04 #@! TO.P,U3,4*
G04 #@! TO.N,/QE*
X157607000Y-64356000D03*
G04 #@! TO.P,U3,5*
G04 #@! TO.N,N/C*
X158877000Y-64356000D03*
G04 #@! TO.P,U3,6*
X160147000Y-64356000D03*
G04 #@! TO.P,U3,7*
X161417000Y-64356000D03*
G04 #@! TO.P,U3,8*
G04 #@! TO.N,GND*
X162687000Y-64356000D03*
G04 #@! TO.P,U3,9*
G04 #@! TO.N,N/C*
X162687000Y-69756000D03*
G04 #@! TO.P,U3,10*
G04 #@! TO.N,VCC*
X161417000Y-69756000D03*
G04 #@! TO.P,U3,11*
G04 #@! TO.N,/D5*
X160147000Y-69756000D03*
G04 #@! TO.P,U3,12*
G04 #@! TO.N,/D8*
X158877000Y-69756000D03*
G04 #@! TO.P,U3,13*
G04 #@! TO.N,/EN*
X157607000Y-69756000D03*
G04 #@! TO.P,U3,14*
G04 #@! TO.N,/D7*
X156337000Y-69756000D03*
G04 #@! TO.P,U3,15*
G04 #@! TO.N,/QA*
X155067000Y-69756000D03*
G04 #@! TO.P,U3,16*
G04 #@! TO.N,VCC*
X153797000Y-69756000D03*
G04 #@! TD*
D14*
G04 #@! TO.N,/RST*
G04 #@! TO.C,C1*
G36*
X131413505Y-65595204D02*
X131437773Y-65598804D01*
X131461572Y-65604765D01*
X131484671Y-65613030D01*
X131506850Y-65623520D01*
X131527893Y-65636132D01*
X131547599Y-65650747D01*
X131565777Y-65667223D01*
X131582253Y-65685401D01*
X131596868Y-65705107D01*
X131609480Y-65726150D01*
X131619970Y-65748329D01*
X131628235Y-65771428D01*
X131634196Y-65795227D01*
X131637796Y-65819495D01*
X131639000Y-65843999D01*
X131639000Y-66744001D01*
X131637796Y-66768505D01*
X131634196Y-66792773D01*
X131628235Y-66816572D01*
X131619970Y-66839671D01*
X131609480Y-66861850D01*
X131596868Y-66882893D01*
X131582253Y-66902599D01*
X131565777Y-66920777D01*
X131547599Y-66937253D01*
X131527893Y-66951868D01*
X131506850Y-66964480D01*
X131484671Y-66974970D01*
X131461572Y-66983235D01*
X131437773Y-66989196D01*
X131413505Y-66992796D01*
X131389001Y-66994000D01*
X130738999Y-66994000D01*
X130714495Y-66992796D01*
X130690227Y-66989196D01*
X130666428Y-66983235D01*
X130643329Y-66974970D01*
X130621150Y-66964480D01*
X130600107Y-66951868D01*
X130580401Y-66937253D01*
X130562223Y-66920777D01*
X130545747Y-66902599D01*
X130531132Y-66882893D01*
X130518520Y-66861850D01*
X130508030Y-66839671D01*
X130499765Y-66816572D01*
X130493804Y-66792773D01*
X130490204Y-66768505D01*
X130489000Y-66744001D01*
X130489000Y-65843999D01*
X130490204Y-65819495D01*
X130493804Y-65795227D01*
X130499765Y-65771428D01*
X130508030Y-65748329D01*
X130518520Y-65726150D01*
X130531132Y-65705107D01*
X130545747Y-65685401D01*
X130562223Y-65667223D01*
X130580401Y-65650747D01*
X130600107Y-65636132D01*
X130621150Y-65623520D01*
X130643329Y-65613030D01*
X130666428Y-65604765D01*
X130690227Y-65598804D01*
X130714495Y-65595204D01*
X130738999Y-65594000D01*
X131389001Y-65594000D01*
X131413505Y-65595204D01*
X131413505Y-65595204D01*
G37*
D15*
G04 #@! TD*
G04 #@! TO.P,C1,1*
G04 #@! TO.N,/RST*
X131064000Y-66294000D03*
D14*
G04 #@! TO.N,Net-(C1-Pad2)*
G04 #@! TO.C,C1*
G36*
X129363505Y-65595204D02*
X129387773Y-65598804D01*
X129411572Y-65604765D01*
X129434671Y-65613030D01*
X129456850Y-65623520D01*
X129477893Y-65636132D01*
X129497599Y-65650747D01*
X129515777Y-65667223D01*
X129532253Y-65685401D01*
X129546868Y-65705107D01*
X129559480Y-65726150D01*
X129569970Y-65748329D01*
X129578235Y-65771428D01*
X129584196Y-65795227D01*
X129587796Y-65819495D01*
X129589000Y-65843999D01*
X129589000Y-66744001D01*
X129587796Y-66768505D01*
X129584196Y-66792773D01*
X129578235Y-66816572D01*
X129569970Y-66839671D01*
X129559480Y-66861850D01*
X129546868Y-66882893D01*
X129532253Y-66902599D01*
X129515777Y-66920777D01*
X129497599Y-66937253D01*
X129477893Y-66951868D01*
X129456850Y-66964480D01*
X129434671Y-66974970D01*
X129411572Y-66983235D01*
X129387773Y-66989196D01*
X129363505Y-66992796D01*
X129339001Y-66994000D01*
X128688999Y-66994000D01*
X128664495Y-66992796D01*
X128640227Y-66989196D01*
X128616428Y-66983235D01*
X128593329Y-66974970D01*
X128571150Y-66964480D01*
X128550107Y-66951868D01*
X128530401Y-66937253D01*
X128512223Y-66920777D01*
X128495747Y-66902599D01*
X128481132Y-66882893D01*
X128468520Y-66861850D01*
X128458030Y-66839671D01*
X128449765Y-66816572D01*
X128443804Y-66792773D01*
X128440204Y-66768505D01*
X128439000Y-66744001D01*
X128439000Y-65843999D01*
X128440204Y-65819495D01*
X128443804Y-65795227D01*
X128449765Y-65771428D01*
X128458030Y-65748329D01*
X128468520Y-65726150D01*
X128481132Y-65705107D01*
X128495747Y-65685401D01*
X128512223Y-65667223D01*
X128530401Y-65650747D01*
X128550107Y-65636132D01*
X128571150Y-65623520D01*
X128593329Y-65613030D01*
X128616428Y-65604765D01*
X128640227Y-65598804D01*
X128664495Y-65595204D01*
X128688999Y-65594000D01*
X129339001Y-65594000D01*
X129363505Y-65595204D01*
X129363505Y-65595204D01*
G37*
D15*
G04 #@! TD*
G04 #@! TO.P,C1,2*
G04 #@! TO.N,Net-(C1-Pad2)*
X129014000Y-66294000D03*
D14*
G04 #@! TO.N,Net-(D1-Pad2)*
G04 #@! TO.C,R1*
G36*
X146381505Y-56197204D02*
X146405773Y-56200804D01*
X146429572Y-56206765D01*
X146452671Y-56215030D01*
X146474850Y-56225520D01*
X146495893Y-56238132D01*
X146515599Y-56252747D01*
X146533777Y-56269223D01*
X146550253Y-56287401D01*
X146564868Y-56307107D01*
X146577480Y-56328150D01*
X146587970Y-56350329D01*
X146596235Y-56373428D01*
X146602196Y-56397227D01*
X146605796Y-56421495D01*
X146607000Y-56445999D01*
X146607000Y-57346001D01*
X146605796Y-57370505D01*
X146602196Y-57394773D01*
X146596235Y-57418572D01*
X146587970Y-57441671D01*
X146577480Y-57463850D01*
X146564868Y-57484893D01*
X146550253Y-57504599D01*
X146533777Y-57522777D01*
X146515599Y-57539253D01*
X146495893Y-57553868D01*
X146474850Y-57566480D01*
X146452671Y-57576970D01*
X146429572Y-57585235D01*
X146405773Y-57591196D01*
X146381505Y-57594796D01*
X146357001Y-57596000D01*
X145706999Y-57596000D01*
X145682495Y-57594796D01*
X145658227Y-57591196D01*
X145634428Y-57585235D01*
X145611329Y-57576970D01*
X145589150Y-57566480D01*
X145568107Y-57553868D01*
X145548401Y-57539253D01*
X145530223Y-57522777D01*
X145513747Y-57504599D01*
X145499132Y-57484893D01*
X145486520Y-57463850D01*
X145476030Y-57441671D01*
X145467765Y-57418572D01*
X145461804Y-57394773D01*
X145458204Y-57370505D01*
X145457000Y-57346001D01*
X145457000Y-56445999D01*
X145458204Y-56421495D01*
X145461804Y-56397227D01*
X145467765Y-56373428D01*
X145476030Y-56350329D01*
X145486520Y-56328150D01*
X145499132Y-56307107D01*
X145513747Y-56287401D01*
X145530223Y-56269223D01*
X145548401Y-56252747D01*
X145568107Y-56238132D01*
X145589150Y-56225520D01*
X145611329Y-56215030D01*
X145634428Y-56206765D01*
X145658227Y-56200804D01*
X145682495Y-56197204D01*
X145706999Y-56196000D01*
X146357001Y-56196000D01*
X146381505Y-56197204D01*
X146381505Y-56197204D01*
G37*
D15*
G04 #@! TD*
G04 #@! TO.P,R1,2*
G04 #@! TO.N,Net-(D1-Pad2)*
X146032000Y-56896000D03*
D14*
G04 #@! TO.N,/QA*
G04 #@! TO.C,R1*
G36*
X148431505Y-56197204D02*
X148455773Y-56200804D01*
X148479572Y-56206765D01*
X148502671Y-56215030D01*
X148524850Y-56225520D01*
X148545893Y-56238132D01*
X148565599Y-56252747D01*
X148583777Y-56269223D01*
X148600253Y-56287401D01*
X148614868Y-56307107D01*
X148627480Y-56328150D01*
X148637970Y-56350329D01*
X148646235Y-56373428D01*
X148652196Y-56397227D01*
X148655796Y-56421495D01*
X148657000Y-56445999D01*
X148657000Y-57346001D01*
X148655796Y-57370505D01*
X148652196Y-57394773D01*
X148646235Y-57418572D01*
X148637970Y-57441671D01*
X148627480Y-57463850D01*
X148614868Y-57484893D01*
X148600253Y-57504599D01*
X148583777Y-57522777D01*
X148565599Y-57539253D01*
X148545893Y-57553868D01*
X148524850Y-57566480D01*
X148502671Y-57576970D01*
X148479572Y-57585235D01*
X148455773Y-57591196D01*
X148431505Y-57594796D01*
X148407001Y-57596000D01*
X147756999Y-57596000D01*
X147732495Y-57594796D01*
X147708227Y-57591196D01*
X147684428Y-57585235D01*
X147661329Y-57576970D01*
X147639150Y-57566480D01*
X147618107Y-57553868D01*
X147598401Y-57539253D01*
X147580223Y-57522777D01*
X147563747Y-57504599D01*
X147549132Y-57484893D01*
X147536520Y-57463850D01*
X147526030Y-57441671D01*
X147517765Y-57418572D01*
X147511804Y-57394773D01*
X147508204Y-57370505D01*
X147507000Y-57346001D01*
X147507000Y-56445999D01*
X147508204Y-56421495D01*
X147511804Y-56397227D01*
X147517765Y-56373428D01*
X147526030Y-56350329D01*
X147536520Y-56328150D01*
X147549132Y-56307107D01*
X147563747Y-56287401D01*
X147580223Y-56269223D01*
X147598401Y-56252747D01*
X147618107Y-56238132D01*
X147639150Y-56225520D01*
X147661329Y-56215030D01*
X147684428Y-56206765D01*
X147708227Y-56200804D01*
X147732495Y-56197204D01*
X147756999Y-56196000D01*
X148407001Y-56196000D01*
X148431505Y-56197204D01*
X148431505Y-56197204D01*
G37*
D15*
G04 #@! TD*
G04 #@! TO.P,R1,1*
G04 #@! TO.N,/QA*
X148082000Y-56896000D03*
D14*
G04 #@! TO.N,/QB*
G04 #@! TO.C,R2*
G36*
X153833505Y-56197204D02*
X153857773Y-56200804D01*
X153881572Y-56206765D01*
X153904671Y-56215030D01*
X153926850Y-56225520D01*
X153947893Y-56238132D01*
X153967599Y-56252747D01*
X153985777Y-56269223D01*
X154002253Y-56287401D01*
X154016868Y-56307107D01*
X154029480Y-56328150D01*
X154039970Y-56350329D01*
X154048235Y-56373428D01*
X154054196Y-56397227D01*
X154057796Y-56421495D01*
X154059000Y-56445999D01*
X154059000Y-57346001D01*
X154057796Y-57370505D01*
X154054196Y-57394773D01*
X154048235Y-57418572D01*
X154039970Y-57441671D01*
X154029480Y-57463850D01*
X154016868Y-57484893D01*
X154002253Y-57504599D01*
X153985777Y-57522777D01*
X153967599Y-57539253D01*
X153947893Y-57553868D01*
X153926850Y-57566480D01*
X153904671Y-57576970D01*
X153881572Y-57585235D01*
X153857773Y-57591196D01*
X153833505Y-57594796D01*
X153809001Y-57596000D01*
X153158999Y-57596000D01*
X153134495Y-57594796D01*
X153110227Y-57591196D01*
X153086428Y-57585235D01*
X153063329Y-57576970D01*
X153041150Y-57566480D01*
X153020107Y-57553868D01*
X153000401Y-57539253D01*
X152982223Y-57522777D01*
X152965747Y-57504599D01*
X152951132Y-57484893D01*
X152938520Y-57463850D01*
X152928030Y-57441671D01*
X152919765Y-57418572D01*
X152913804Y-57394773D01*
X152910204Y-57370505D01*
X152909000Y-57346001D01*
X152909000Y-56445999D01*
X152910204Y-56421495D01*
X152913804Y-56397227D01*
X152919765Y-56373428D01*
X152928030Y-56350329D01*
X152938520Y-56328150D01*
X152951132Y-56307107D01*
X152965747Y-56287401D01*
X152982223Y-56269223D01*
X153000401Y-56252747D01*
X153020107Y-56238132D01*
X153041150Y-56225520D01*
X153063329Y-56215030D01*
X153086428Y-56206765D01*
X153110227Y-56200804D01*
X153134495Y-56197204D01*
X153158999Y-56196000D01*
X153809001Y-56196000D01*
X153833505Y-56197204D01*
X153833505Y-56197204D01*
G37*
D15*
G04 #@! TD*
G04 #@! TO.P,R2,1*
G04 #@! TO.N,/QB*
X153484000Y-56896000D03*
D14*
G04 #@! TO.N,Net-(D2-Pad2)*
G04 #@! TO.C,R2*
G36*
X151783505Y-56197204D02*
X151807773Y-56200804D01*
X151831572Y-56206765D01*
X151854671Y-56215030D01*
X151876850Y-56225520D01*
X151897893Y-56238132D01*
X151917599Y-56252747D01*
X151935777Y-56269223D01*
X151952253Y-56287401D01*
X151966868Y-56307107D01*
X151979480Y-56328150D01*
X151989970Y-56350329D01*
X151998235Y-56373428D01*
X152004196Y-56397227D01*
X152007796Y-56421495D01*
X152009000Y-56445999D01*
X152009000Y-57346001D01*
X152007796Y-57370505D01*
X152004196Y-57394773D01*
X151998235Y-57418572D01*
X151989970Y-57441671D01*
X151979480Y-57463850D01*
X151966868Y-57484893D01*
X151952253Y-57504599D01*
X151935777Y-57522777D01*
X151917599Y-57539253D01*
X151897893Y-57553868D01*
X151876850Y-57566480D01*
X151854671Y-57576970D01*
X151831572Y-57585235D01*
X151807773Y-57591196D01*
X151783505Y-57594796D01*
X151759001Y-57596000D01*
X151108999Y-57596000D01*
X151084495Y-57594796D01*
X151060227Y-57591196D01*
X151036428Y-57585235D01*
X151013329Y-57576970D01*
X150991150Y-57566480D01*
X150970107Y-57553868D01*
X150950401Y-57539253D01*
X150932223Y-57522777D01*
X150915747Y-57504599D01*
X150901132Y-57484893D01*
X150888520Y-57463850D01*
X150878030Y-57441671D01*
X150869765Y-57418572D01*
X150863804Y-57394773D01*
X150860204Y-57370505D01*
X150859000Y-57346001D01*
X150859000Y-56445999D01*
X150860204Y-56421495D01*
X150863804Y-56397227D01*
X150869765Y-56373428D01*
X150878030Y-56350329D01*
X150888520Y-56328150D01*
X150901132Y-56307107D01*
X150915747Y-56287401D01*
X150932223Y-56269223D01*
X150950401Y-56252747D01*
X150970107Y-56238132D01*
X150991150Y-56225520D01*
X151013329Y-56215030D01*
X151036428Y-56206765D01*
X151060227Y-56200804D01*
X151084495Y-56197204D01*
X151108999Y-56196000D01*
X151759001Y-56196000D01*
X151783505Y-56197204D01*
X151783505Y-56197204D01*
G37*
D15*
G04 #@! TD*
G04 #@! TO.P,R2,2*
G04 #@! TO.N,Net-(D2-Pad2)*
X151434000Y-56896000D03*
D14*
G04 #@! TO.N,Net-(D3-Pad2)*
G04 #@! TO.C,R3*
G36*
X157185505Y-56197204D02*
X157209773Y-56200804D01*
X157233572Y-56206765D01*
X157256671Y-56215030D01*
X157278850Y-56225520D01*
X157299893Y-56238132D01*
X157319599Y-56252747D01*
X157337777Y-56269223D01*
X157354253Y-56287401D01*
X157368868Y-56307107D01*
X157381480Y-56328150D01*
X157391970Y-56350329D01*
X157400235Y-56373428D01*
X157406196Y-56397227D01*
X157409796Y-56421495D01*
X157411000Y-56445999D01*
X157411000Y-57346001D01*
X157409796Y-57370505D01*
X157406196Y-57394773D01*
X157400235Y-57418572D01*
X157391970Y-57441671D01*
X157381480Y-57463850D01*
X157368868Y-57484893D01*
X157354253Y-57504599D01*
X157337777Y-57522777D01*
X157319599Y-57539253D01*
X157299893Y-57553868D01*
X157278850Y-57566480D01*
X157256671Y-57576970D01*
X157233572Y-57585235D01*
X157209773Y-57591196D01*
X157185505Y-57594796D01*
X157161001Y-57596000D01*
X156510999Y-57596000D01*
X156486495Y-57594796D01*
X156462227Y-57591196D01*
X156438428Y-57585235D01*
X156415329Y-57576970D01*
X156393150Y-57566480D01*
X156372107Y-57553868D01*
X156352401Y-57539253D01*
X156334223Y-57522777D01*
X156317747Y-57504599D01*
X156303132Y-57484893D01*
X156290520Y-57463850D01*
X156280030Y-57441671D01*
X156271765Y-57418572D01*
X156265804Y-57394773D01*
X156262204Y-57370505D01*
X156261000Y-57346001D01*
X156261000Y-56445999D01*
X156262204Y-56421495D01*
X156265804Y-56397227D01*
X156271765Y-56373428D01*
X156280030Y-56350329D01*
X156290520Y-56328150D01*
X156303132Y-56307107D01*
X156317747Y-56287401D01*
X156334223Y-56269223D01*
X156352401Y-56252747D01*
X156372107Y-56238132D01*
X156393150Y-56225520D01*
X156415329Y-56215030D01*
X156438428Y-56206765D01*
X156462227Y-56200804D01*
X156486495Y-56197204D01*
X156510999Y-56196000D01*
X157161001Y-56196000D01*
X157185505Y-56197204D01*
X157185505Y-56197204D01*
G37*
D15*
G04 #@! TD*
G04 #@! TO.P,R3,2*
G04 #@! TO.N,Net-(D3-Pad2)*
X156836000Y-56896000D03*
D14*
G04 #@! TO.N,/QC*
G04 #@! TO.C,R3*
G36*
X159235505Y-56197204D02*
X159259773Y-56200804D01*
X159283572Y-56206765D01*
X159306671Y-56215030D01*
X159328850Y-56225520D01*
X159349893Y-56238132D01*
X159369599Y-56252747D01*
X159387777Y-56269223D01*
X159404253Y-56287401D01*
X159418868Y-56307107D01*
X159431480Y-56328150D01*
X159441970Y-56350329D01*
X159450235Y-56373428D01*
X159456196Y-56397227D01*
X159459796Y-56421495D01*
X159461000Y-56445999D01*
X159461000Y-57346001D01*
X159459796Y-57370505D01*
X159456196Y-57394773D01*
X159450235Y-57418572D01*
X159441970Y-57441671D01*
X159431480Y-57463850D01*
X159418868Y-57484893D01*
X159404253Y-57504599D01*
X159387777Y-57522777D01*
X159369599Y-57539253D01*
X159349893Y-57553868D01*
X159328850Y-57566480D01*
X159306671Y-57576970D01*
X159283572Y-57585235D01*
X159259773Y-57591196D01*
X159235505Y-57594796D01*
X159211001Y-57596000D01*
X158560999Y-57596000D01*
X158536495Y-57594796D01*
X158512227Y-57591196D01*
X158488428Y-57585235D01*
X158465329Y-57576970D01*
X158443150Y-57566480D01*
X158422107Y-57553868D01*
X158402401Y-57539253D01*
X158384223Y-57522777D01*
X158367747Y-57504599D01*
X158353132Y-57484893D01*
X158340520Y-57463850D01*
X158330030Y-57441671D01*
X158321765Y-57418572D01*
X158315804Y-57394773D01*
X158312204Y-57370505D01*
X158311000Y-57346001D01*
X158311000Y-56445999D01*
X158312204Y-56421495D01*
X158315804Y-56397227D01*
X158321765Y-56373428D01*
X158330030Y-56350329D01*
X158340520Y-56328150D01*
X158353132Y-56307107D01*
X158367747Y-56287401D01*
X158384223Y-56269223D01*
X158402401Y-56252747D01*
X158422107Y-56238132D01*
X158443150Y-56225520D01*
X158465329Y-56215030D01*
X158488428Y-56206765D01*
X158512227Y-56200804D01*
X158536495Y-56197204D01*
X158560999Y-56196000D01*
X159211001Y-56196000D01*
X159235505Y-56197204D01*
X159235505Y-56197204D01*
G37*
D15*
G04 #@! TD*
G04 #@! TO.P,R3,1*
G04 #@! TO.N,/QC*
X158886000Y-56896000D03*
D14*
G04 #@! TO.N,/QD*
G04 #@! TO.C,R4*
G36*
X164637505Y-56197204D02*
X164661773Y-56200804D01*
X164685572Y-56206765D01*
X164708671Y-56215030D01*
X164730850Y-56225520D01*
X164751893Y-56238132D01*
X164771599Y-56252747D01*
X164789777Y-56269223D01*
X164806253Y-56287401D01*
X164820868Y-56307107D01*
X164833480Y-56328150D01*
X164843970Y-56350329D01*
X164852235Y-56373428D01*
X164858196Y-56397227D01*
X164861796Y-56421495D01*
X164863000Y-56445999D01*
X164863000Y-57346001D01*
X164861796Y-57370505D01*
X164858196Y-57394773D01*
X164852235Y-57418572D01*
X164843970Y-57441671D01*
X164833480Y-57463850D01*
X164820868Y-57484893D01*
X164806253Y-57504599D01*
X164789777Y-57522777D01*
X164771599Y-57539253D01*
X164751893Y-57553868D01*
X164730850Y-57566480D01*
X164708671Y-57576970D01*
X164685572Y-57585235D01*
X164661773Y-57591196D01*
X164637505Y-57594796D01*
X164613001Y-57596000D01*
X163962999Y-57596000D01*
X163938495Y-57594796D01*
X163914227Y-57591196D01*
X163890428Y-57585235D01*
X163867329Y-57576970D01*
X163845150Y-57566480D01*
X163824107Y-57553868D01*
X163804401Y-57539253D01*
X163786223Y-57522777D01*
X163769747Y-57504599D01*
X163755132Y-57484893D01*
X163742520Y-57463850D01*
X163732030Y-57441671D01*
X163723765Y-57418572D01*
X163717804Y-57394773D01*
X163714204Y-57370505D01*
X163713000Y-57346001D01*
X163713000Y-56445999D01*
X163714204Y-56421495D01*
X163717804Y-56397227D01*
X163723765Y-56373428D01*
X163732030Y-56350329D01*
X163742520Y-56328150D01*
X163755132Y-56307107D01*
X163769747Y-56287401D01*
X163786223Y-56269223D01*
X163804401Y-56252747D01*
X163824107Y-56238132D01*
X163845150Y-56225520D01*
X163867329Y-56215030D01*
X163890428Y-56206765D01*
X163914227Y-56200804D01*
X163938495Y-56197204D01*
X163962999Y-56196000D01*
X164613001Y-56196000D01*
X164637505Y-56197204D01*
X164637505Y-56197204D01*
G37*
D15*
G04 #@! TD*
G04 #@! TO.P,R4,1*
G04 #@! TO.N,/QD*
X164288000Y-56896000D03*
D14*
G04 #@! TO.N,Net-(D4-Pad2)*
G04 #@! TO.C,R4*
G36*
X162587505Y-56197204D02*
X162611773Y-56200804D01*
X162635572Y-56206765D01*
X162658671Y-56215030D01*
X162680850Y-56225520D01*
X162701893Y-56238132D01*
X162721599Y-56252747D01*
X162739777Y-56269223D01*
X162756253Y-56287401D01*
X162770868Y-56307107D01*
X162783480Y-56328150D01*
X162793970Y-56350329D01*
X162802235Y-56373428D01*
X162808196Y-56397227D01*
X162811796Y-56421495D01*
X162813000Y-56445999D01*
X162813000Y-57346001D01*
X162811796Y-57370505D01*
X162808196Y-57394773D01*
X162802235Y-57418572D01*
X162793970Y-57441671D01*
X162783480Y-57463850D01*
X162770868Y-57484893D01*
X162756253Y-57504599D01*
X162739777Y-57522777D01*
X162721599Y-57539253D01*
X162701893Y-57553868D01*
X162680850Y-57566480D01*
X162658671Y-57576970D01*
X162635572Y-57585235D01*
X162611773Y-57591196D01*
X162587505Y-57594796D01*
X162563001Y-57596000D01*
X161912999Y-57596000D01*
X161888495Y-57594796D01*
X161864227Y-57591196D01*
X161840428Y-57585235D01*
X161817329Y-57576970D01*
X161795150Y-57566480D01*
X161774107Y-57553868D01*
X161754401Y-57539253D01*
X161736223Y-57522777D01*
X161719747Y-57504599D01*
X161705132Y-57484893D01*
X161692520Y-57463850D01*
X161682030Y-57441671D01*
X161673765Y-57418572D01*
X161667804Y-57394773D01*
X161664204Y-57370505D01*
X161663000Y-57346001D01*
X161663000Y-56445999D01*
X161664204Y-56421495D01*
X161667804Y-56397227D01*
X161673765Y-56373428D01*
X161682030Y-56350329D01*
X161692520Y-56328150D01*
X161705132Y-56307107D01*
X161719747Y-56287401D01*
X161736223Y-56269223D01*
X161754401Y-56252747D01*
X161774107Y-56238132D01*
X161795150Y-56225520D01*
X161817329Y-56215030D01*
X161840428Y-56206765D01*
X161864227Y-56200804D01*
X161888495Y-56197204D01*
X161912999Y-56196000D01*
X162563001Y-56196000D01*
X162587505Y-56197204D01*
X162587505Y-56197204D01*
G37*
D15*
G04 #@! TD*
G04 #@! TO.P,R4,2*
G04 #@! TO.N,Net-(D4-Pad2)*
X162238000Y-56896000D03*
D14*
G04 #@! TO.N,Net-(D5-Pad2)*
G04 #@! TO.C,R5*
G36*
X167989505Y-56197204D02*
X168013773Y-56200804D01*
X168037572Y-56206765D01*
X168060671Y-56215030D01*
X168082850Y-56225520D01*
X168103893Y-56238132D01*
X168123599Y-56252747D01*
X168141777Y-56269223D01*
X168158253Y-56287401D01*
X168172868Y-56307107D01*
X168185480Y-56328150D01*
X168195970Y-56350329D01*
X168204235Y-56373428D01*
X168210196Y-56397227D01*
X168213796Y-56421495D01*
X168215000Y-56445999D01*
X168215000Y-57346001D01*
X168213796Y-57370505D01*
X168210196Y-57394773D01*
X168204235Y-57418572D01*
X168195970Y-57441671D01*
X168185480Y-57463850D01*
X168172868Y-57484893D01*
X168158253Y-57504599D01*
X168141777Y-57522777D01*
X168123599Y-57539253D01*
X168103893Y-57553868D01*
X168082850Y-57566480D01*
X168060671Y-57576970D01*
X168037572Y-57585235D01*
X168013773Y-57591196D01*
X167989505Y-57594796D01*
X167965001Y-57596000D01*
X167314999Y-57596000D01*
X167290495Y-57594796D01*
X167266227Y-57591196D01*
X167242428Y-57585235D01*
X167219329Y-57576970D01*
X167197150Y-57566480D01*
X167176107Y-57553868D01*
X167156401Y-57539253D01*
X167138223Y-57522777D01*
X167121747Y-57504599D01*
X167107132Y-57484893D01*
X167094520Y-57463850D01*
X167084030Y-57441671D01*
X167075765Y-57418572D01*
X167069804Y-57394773D01*
X167066204Y-57370505D01*
X167065000Y-57346001D01*
X167065000Y-56445999D01*
X167066204Y-56421495D01*
X167069804Y-56397227D01*
X167075765Y-56373428D01*
X167084030Y-56350329D01*
X167094520Y-56328150D01*
X167107132Y-56307107D01*
X167121747Y-56287401D01*
X167138223Y-56269223D01*
X167156401Y-56252747D01*
X167176107Y-56238132D01*
X167197150Y-56225520D01*
X167219329Y-56215030D01*
X167242428Y-56206765D01*
X167266227Y-56200804D01*
X167290495Y-56197204D01*
X167314999Y-56196000D01*
X167965001Y-56196000D01*
X167989505Y-56197204D01*
X167989505Y-56197204D01*
G37*
D15*
G04 #@! TD*
G04 #@! TO.P,R5,2*
G04 #@! TO.N,Net-(D5-Pad2)*
X167640000Y-56896000D03*
D14*
G04 #@! TO.N,/QE*
G04 #@! TO.C,R5*
G36*
X170039505Y-56197204D02*
X170063773Y-56200804D01*
X170087572Y-56206765D01*
X170110671Y-56215030D01*
X170132850Y-56225520D01*
X170153893Y-56238132D01*
X170173599Y-56252747D01*
X170191777Y-56269223D01*
X170208253Y-56287401D01*
X170222868Y-56307107D01*
X170235480Y-56328150D01*
X170245970Y-56350329D01*
X170254235Y-56373428D01*
X170260196Y-56397227D01*
X170263796Y-56421495D01*
X170265000Y-56445999D01*
X170265000Y-57346001D01*
X170263796Y-57370505D01*
X170260196Y-57394773D01*
X170254235Y-57418572D01*
X170245970Y-57441671D01*
X170235480Y-57463850D01*
X170222868Y-57484893D01*
X170208253Y-57504599D01*
X170191777Y-57522777D01*
X170173599Y-57539253D01*
X170153893Y-57553868D01*
X170132850Y-57566480D01*
X170110671Y-57576970D01*
X170087572Y-57585235D01*
X170063773Y-57591196D01*
X170039505Y-57594796D01*
X170015001Y-57596000D01*
X169364999Y-57596000D01*
X169340495Y-57594796D01*
X169316227Y-57591196D01*
X169292428Y-57585235D01*
X169269329Y-57576970D01*
X169247150Y-57566480D01*
X169226107Y-57553868D01*
X169206401Y-57539253D01*
X169188223Y-57522777D01*
X169171747Y-57504599D01*
X169157132Y-57484893D01*
X169144520Y-57463850D01*
X169134030Y-57441671D01*
X169125765Y-57418572D01*
X169119804Y-57394773D01*
X169116204Y-57370505D01*
X169115000Y-57346001D01*
X169115000Y-56445999D01*
X169116204Y-56421495D01*
X169119804Y-56397227D01*
X169125765Y-56373428D01*
X169134030Y-56350329D01*
X169144520Y-56328150D01*
X169157132Y-56307107D01*
X169171747Y-56287401D01*
X169188223Y-56269223D01*
X169206401Y-56252747D01*
X169226107Y-56238132D01*
X169247150Y-56225520D01*
X169269329Y-56215030D01*
X169292428Y-56206765D01*
X169316227Y-56200804D01*
X169340495Y-56197204D01*
X169364999Y-56196000D01*
X170015001Y-56196000D01*
X170039505Y-56197204D01*
X170039505Y-56197204D01*
G37*
D15*
G04 #@! TD*
G04 #@! TO.P,R5,1*
G04 #@! TO.N,/QE*
X169690000Y-56896000D03*
D14*
G04 #@! TO.N,/RST*
G04 #@! TO.C,R6*
G36*
X131431505Y-69151204D02*
X131455773Y-69154804D01*
X131479572Y-69160765D01*
X131502671Y-69169030D01*
X131524850Y-69179520D01*
X131545893Y-69192132D01*
X131565599Y-69206747D01*
X131583777Y-69223223D01*
X131600253Y-69241401D01*
X131614868Y-69261107D01*
X131627480Y-69282150D01*
X131637970Y-69304329D01*
X131646235Y-69327428D01*
X131652196Y-69351227D01*
X131655796Y-69375495D01*
X131657000Y-69399999D01*
X131657000Y-70300001D01*
X131655796Y-70324505D01*
X131652196Y-70348773D01*
X131646235Y-70372572D01*
X131637970Y-70395671D01*
X131627480Y-70417850D01*
X131614868Y-70438893D01*
X131600253Y-70458599D01*
X131583777Y-70476777D01*
X131565599Y-70493253D01*
X131545893Y-70507868D01*
X131524850Y-70520480D01*
X131502671Y-70530970D01*
X131479572Y-70539235D01*
X131455773Y-70545196D01*
X131431505Y-70548796D01*
X131407001Y-70550000D01*
X130756999Y-70550000D01*
X130732495Y-70548796D01*
X130708227Y-70545196D01*
X130684428Y-70539235D01*
X130661329Y-70530970D01*
X130639150Y-70520480D01*
X130618107Y-70507868D01*
X130598401Y-70493253D01*
X130580223Y-70476777D01*
X130563747Y-70458599D01*
X130549132Y-70438893D01*
X130536520Y-70417850D01*
X130526030Y-70395671D01*
X130517765Y-70372572D01*
X130511804Y-70348773D01*
X130508204Y-70324505D01*
X130507000Y-70300001D01*
X130507000Y-69399999D01*
X130508204Y-69375495D01*
X130511804Y-69351227D01*
X130517765Y-69327428D01*
X130526030Y-69304329D01*
X130536520Y-69282150D01*
X130549132Y-69261107D01*
X130563747Y-69241401D01*
X130580223Y-69223223D01*
X130598401Y-69206747D01*
X130618107Y-69192132D01*
X130639150Y-69179520D01*
X130661329Y-69169030D01*
X130684428Y-69160765D01*
X130708227Y-69154804D01*
X130732495Y-69151204D01*
X130756999Y-69150000D01*
X131407001Y-69150000D01*
X131431505Y-69151204D01*
X131431505Y-69151204D01*
G37*
D15*
G04 #@! TD*
G04 #@! TO.P,R6,1*
G04 #@! TO.N,/RST*
X131082000Y-69850000D03*
D14*
G04 #@! TO.N,/D0*
G04 #@! TO.C,R6*
G36*
X129381505Y-69151204D02*
X129405773Y-69154804D01*
X129429572Y-69160765D01*
X129452671Y-69169030D01*
X129474850Y-69179520D01*
X129495893Y-69192132D01*
X129515599Y-69206747D01*
X129533777Y-69223223D01*
X129550253Y-69241401D01*
X129564868Y-69261107D01*
X129577480Y-69282150D01*
X129587970Y-69304329D01*
X129596235Y-69327428D01*
X129602196Y-69351227D01*
X129605796Y-69375495D01*
X129607000Y-69399999D01*
X129607000Y-70300001D01*
X129605796Y-70324505D01*
X129602196Y-70348773D01*
X129596235Y-70372572D01*
X129587970Y-70395671D01*
X129577480Y-70417850D01*
X129564868Y-70438893D01*
X129550253Y-70458599D01*
X129533777Y-70476777D01*
X129515599Y-70493253D01*
X129495893Y-70507868D01*
X129474850Y-70520480D01*
X129452671Y-70530970D01*
X129429572Y-70539235D01*
X129405773Y-70545196D01*
X129381505Y-70548796D01*
X129357001Y-70550000D01*
X128706999Y-70550000D01*
X128682495Y-70548796D01*
X128658227Y-70545196D01*
X128634428Y-70539235D01*
X128611329Y-70530970D01*
X128589150Y-70520480D01*
X128568107Y-70507868D01*
X128548401Y-70493253D01*
X128530223Y-70476777D01*
X128513747Y-70458599D01*
X128499132Y-70438893D01*
X128486520Y-70417850D01*
X128476030Y-70395671D01*
X128467765Y-70372572D01*
X128461804Y-70348773D01*
X128458204Y-70324505D01*
X128457000Y-70300001D01*
X128457000Y-69399999D01*
X128458204Y-69375495D01*
X128461804Y-69351227D01*
X128467765Y-69327428D01*
X128476030Y-69304329D01*
X128486520Y-69282150D01*
X128499132Y-69261107D01*
X128513747Y-69241401D01*
X128530223Y-69223223D01*
X128548401Y-69206747D01*
X128568107Y-69192132D01*
X128589150Y-69179520D01*
X128611329Y-69169030D01*
X128634428Y-69160765D01*
X128658227Y-69154804D01*
X128682495Y-69151204D01*
X128706999Y-69150000D01*
X129357001Y-69150000D01*
X129381505Y-69151204D01*
X129381505Y-69151204D01*
G37*
D15*
G04 #@! TD*
G04 #@! TO.P,R6,2*
G04 #@! TO.N,/D0*
X129032000Y-69850000D03*
D14*
G04 #@! TO.N,/D6*
G04 #@! TO.C,R7*
G36*
X129381505Y-73215204D02*
X129405773Y-73218804D01*
X129429572Y-73224765D01*
X129452671Y-73233030D01*
X129474850Y-73243520D01*
X129495893Y-73256132D01*
X129515599Y-73270747D01*
X129533777Y-73287223D01*
X129550253Y-73305401D01*
X129564868Y-73325107D01*
X129577480Y-73346150D01*
X129587970Y-73368329D01*
X129596235Y-73391428D01*
X129602196Y-73415227D01*
X129605796Y-73439495D01*
X129607000Y-73463999D01*
X129607000Y-74364001D01*
X129605796Y-74388505D01*
X129602196Y-74412773D01*
X129596235Y-74436572D01*
X129587970Y-74459671D01*
X129577480Y-74481850D01*
X129564868Y-74502893D01*
X129550253Y-74522599D01*
X129533777Y-74540777D01*
X129515599Y-74557253D01*
X129495893Y-74571868D01*
X129474850Y-74584480D01*
X129452671Y-74594970D01*
X129429572Y-74603235D01*
X129405773Y-74609196D01*
X129381505Y-74612796D01*
X129357001Y-74614000D01*
X128706999Y-74614000D01*
X128682495Y-74612796D01*
X128658227Y-74609196D01*
X128634428Y-74603235D01*
X128611329Y-74594970D01*
X128589150Y-74584480D01*
X128568107Y-74571868D01*
X128548401Y-74557253D01*
X128530223Y-74540777D01*
X128513747Y-74522599D01*
X128499132Y-74502893D01*
X128486520Y-74481850D01*
X128476030Y-74459671D01*
X128467765Y-74436572D01*
X128461804Y-74412773D01*
X128458204Y-74388505D01*
X128457000Y-74364001D01*
X128457000Y-73463999D01*
X128458204Y-73439495D01*
X128461804Y-73415227D01*
X128467765Y-73391428D01*
X128476030Y-73368329D01*
X128486520Y-73346150D01*
X128499132Y-73325107D01*
X128513747Y-73305401D01*
X128530223Y-73287223D01*
X128548401Y-73270747D01*
X128568107Y-73256132D01*
X128589150Y-73243520D01*
X128611329Y-73233030D01*
X128634428Y-73224765D01*
X128658227Y-73218804D01*
X128682495Y-73215204D01*
X128706999Y-73214000D01*
X129357001Y-73214000D01*
X129381505Y-73215204D01*
X129381505Y-73215204D01*
G37*
D15*
G04 #@! TD*
G04 #@! TO.P,R7,2*
G04 #@! TO.N,/D6*
X129032000Y-73914000D03*
D14*
G04 #@! TO.N,Net-(C1-Pad2)*
G04 #@! TO.C,R7*
G36*
X131431505Y-73215204D02*
X131455773Y-73218804D01*
X131479572Y-73224765D01*
X131502671Y-73233030D01*
X131524850Y-73243520D01*
X131545893Y-73256132D01*
X131565599Y-73270747D01*
X131583777Y-73287223D01*
X131600253Y-73305401D01*
X131614868Y-73325107D01*
X131627480Y-73346150D01*
X131637970Y-73368329D01*
X131646235Y-73391428D01*
X131652196Y-73415227D01*
X131655796Y-73439495D01*
X131657000Y-73463999D01*
X131657000Y-74364001D01*
X131655796Y-74388505D01*
X131652196Y-74412773D01*
X131646235Y-74436572D01*
X131637970Y-74459671D01*
X131627480Y-74481850D01*
X131614868Y-74502893D01*
X131600253Y-74522599D01*
X131583777Y-74540777D01*
X131565599Y-74557253D01*
X131545893Y-74571868D01*
X131524850Y-74584480D01*
X131502671Y-74594970D01*
X131479572Y-74603235D01*
X131455773Y-74609196D01*
X131431505Y-74612796D01*
X131407001Y-74614000D01*
X130756999Y-74614000D01*
X130732495Y-74612796D01*
X130708227Y-74609196D01*
X130684428Y-74603235D01*
X130661329Y-74594970D01*
X130639150Y-74584480D01*
X130618107Y-74571868D01*
X130598401Y-74557253D01*
X130580223Y-74540777D01*
X130563747Y-74522599D01*
X130549132Y-74502893D01*
X130536520Y-74481850D01*
X130526030Y-74459671D01*
X130517765Y-74436572D01*
X130511804Y-74412773D01*
X130508204Y-74388505D01*
X130507000Y-74364001D01*
X130507000Y-73463999D01*
X130508204Y-73439495D01*
X130511804Y-73415227D01*
X130517765Y-73391428D01*
X130526030Y-73368329D01*
X130536520Y-73346150D01*
X130549132Y-73325107D01*
X130563747Y-73305401D01*
X130580223Y-73287223D01*
X130598401Y-73270747D01*
X130618107Y-73256132D01*
X130639150Y-73243520D01*
X130661329Y-73233030D01*
X130684428Y-73224765D01*
X130708227Y-73218804D01*
X130732495Y-73215204D01*
X130756999Y-73214000D01*
X131407001Y-73214000D01*
X131431505Y-73215204D01*
X131431505Y-73215204D01*
G37*
D15*
G04 #@! TD*
G04 #@! TO.P,R7,1*
G04 #@! TO.N,Net-(C1-Pad2)*
X131082000Y-73914000D03*
D14*
G04 #@! TO.N,Net-(C1-Pad2)*
G04 #@! TO.C,R8*
G36*
X131431505Y-77279204D02*
X131455773Y-77282804D01*
X131479572Y-77288765D01*
X131502671Y-77297030D01*
X131524850Y-77307520D01*
X131545893Y-77320132D01*
X131565599Y-77334747D01*
X131583777Y-77351223D01*
X131600253Y-77369401D01*
X131614868Y-77389107D01*
X131627480Y-77410150D01*
X131637970Y-77432329D01*
X131646235Y-77455428D01*
X131652196Y-77479227D01*
X131655796Y-77503495D01*
X131657000Y-77527999D01*
X131657000Y-78428001D01*
X131655796Y-78452505D01*
X131652196Y-78476773D01*
X131646235Y-78500572D01*
X131637970Y-78523671D01*
X131627480Y-78545850D01*
X131614868Y-78566893D01*
X131600253Y-78586599D01*
X131583777Y-78604777D01*
X131565599Y-78621253D01*
X131545893Y-78635868D01*
X131524850Y-78648480D01*
X131502671Y-78658970D01*
X131479572Y-78667235D01*
X131455773Y-78673196D01*
X131431505Y-78676796D01*
X131407001Y-78678000D01*
X130756999Y-78678000D01*
X130732495Y-78676796D01*
X130708227Y-78673196D01*
X130684428Y-78667235D01*
X130661329Y-78658970D01*
X130639150Y-78648480D01*
X130618107Y-78635868D01*
X130598401Y-78621253D01*
X130580223Y-78604777D01*
X130563747Y-78586599D01*
X130549132Y-78566893D01*
X130536520Y-78545850D01*
X130526030Y-78523671D01*
X130517765Y-78500572D01*
X130511804Y-78476773D01*
X130508204Y-78452505D01*
X130507000Y-78428001D01*
X130507000Y-77527999D01*
X130508204Y-77503495D01*
X130511804Y-77479227D01*
X130517765Y-77455428D01*
X130526030Y-77432329D01*
X130536520Y-77410150D01*
X130549132Y-77389107D01*
X130563747Y-77369401D01*
X130580223Y-77351223D01*
X130598401Y-77334747D01*
X130618107Y-77320132D01*
X130639150Y-77307520D01*
X130661329Y-77297030D01*
X130684428Y-77288765D01*
X130708227Y-77282804D01*
X130732495Y-77279204D01*
X130756999Y-77278000D01*
X131407001Y-77278000D01*
X131431505Y-77279204D01*
X131431505Y-77279204D01*
G37*
D15*
G04 #@! TD*
G04 #@! TO.P,R8,1*
G04 #@! TO.N,Net-(C1-Pad2)*
X131082000Y-77978000D03*
D14*
G04 #@! TO.N,/3_3V*
G04 #@! TO.C,R8*
G36*
X129381505Y-77279204D02*
X129405773Y-77282804D01*
X129429572Y-77288765D01*
X129452671Y-77297030D01*
X129474850Y-77307520D01*
X129495893Y-77320132D01*
X129515599Y-77334747D01*
X129533777Y-77351223D01*
X129550253Y-77369401D01*
X129564868Y-77389107D01*
X129577480Y-77410150D01*
X129587970Y-77432329D01*
X129596235Y-77455428D01*
X129602196Y-77479227D01*
X129605796Y-77503495D01*
X129607000Y-77527999D01*
X129607000Y-78428001D01*
X129605796Y-78452505D01*
X129602196Y-78476773D01*
X129596235Y-78500572D01*
X129587970Y-78523671D01*
X129577480Y-78545850D01*
X129564868Y-78566893D01*
X129550253Y-78586599D01*
X129533777Y-78604777D01*
X129515599Y-78621253D01*
X129495893Y-78635868D01*
X129474850Y-78648480D01*
X129452671Y-78658970D01*
X129429572Y-78667235D01*
X129405773Y-78673196D01*
X129381505Y-78676796D01*
X129357001Y-78678000D01*
X128706999Y-78678000D01*
X128682495Y-78676796D01*
X128658227Y-78673196D01*
X128634428Y-78667235D01*
X128611329Y-78658970D01*
X128589150Y-78648480D01*
X128568107Y-78635868D01*
X128548401Y-78621253D01*
X128530223Y-78604777D01*
X128513747Y-78586599D01*
X128499132Y-78566893D01*
X128486520Y-78545850D01*
X128476030Y-78523671D01*
X128467765Y-78500572D01*
X128461804Y-78476773D01*
X128458204Y-78452505D01*
X128457000Y-78428001D01*
X128457000Y-77527999D01*
X128458204Y-77503495D01*
X128461804Y-77479227D01*
X128467765Y-77455428D01*
X128476030Y-77432329D01*
X128486520Y-77410150D01*
X128499132Y-77389107D01*
X128513747Y-77369401D01*
X128530223Y-77351223D01*
X128548401Y-77334747D01*
X128568107Y-77320132D01*
X128589150Y-77307520D01*
X128611329Y-77297030D01*
X128634428Y-77288765D01*
X128658227Y-77282804D01*
X128682495Y-77279204D01*
X128706999Y-77278000D01*
X129357001Y-77278000D01*
X129381505Y-77279204D01*
X129381505Y-77279204D01*
G37*
D15*
G04 #@! TD*
G04 #@! TO.P,R8,2*
G04 #@! TO.N,/3_3V*
X129032000Y-77978000D03*
D14*
G04 #@! TO.N,VCC*
G04 #@! TO.C,R9*
G36*
X175346505Y-80327204D02*
X175370773Y-80330804D01*
X175394572Y-80336765D01*
X175417671Y-80345030D01*
X175439850Y-80355520D01*
X175460893Y-80368132D01*
X175480599Y-80382747D01*
X175498777Y-80399223D01*
X175515253Y-80417401D01*
X175529868Y-80437107D01*
X175542480Y-80458150D01*
X175552970Y-80480329D01*
X175561235Y-80503428D01*
X175567196Y-80527227D01*
X175570796Y-80551495D01*
X175572000Y-80575999D01*
X175572000Y-81476001D01*
X175570796Y-81500505D01*
X175567196Y-81524773D01*
X175561235Y-81548572D01*
X175552970Y-81571671D01*
X175542480Y-81593850D01*
X175529868Y-81614893D01*
X175515253Y-81634599D01*
X175498777Y-81652777D01*
X175480599Y-81669253D01*
X175460893Y-81683868D01*
X175439850Y-81696480D01*
X175417671Y-81706970D01*
X175394572Y-81715235D01*
X175370773Y-81721196D01*
X175346505Y-81724796D01*
X175322001Y-81726000D01*
X174671999Y-81726000D01*
X174647495Y-81724796D01*
X174623227Y-81721196D01*
X174599428Y-81715235D01*
X174576329Y-81706970D01*
X174554150Y-81696480D01*
X174533107Y-81683868D01*
X174513401Y-81669253D01*
X174495223Y-81652777D01*
X174478747Y-81634599D01*
X174464132Y-81614893D01*
X174451520Y-81593850D01*
X174441030Y-81571671D01*
X174432765Y-81548572D01*
X174426804Y-81524773D01*
X174423204Y-81500505D01*
X174422000Y-81476001D01*
X174422000Y-80575999D01*
X174423204Y-80551495D01*
X174426804Y-80527227D01*
X174432765Y-80503428D01*
X174441030Y-80480329D01*
X174451520Y-80458150D01*
X174464132Y-80437107D01*
X174478747Y-80417401D01*
X174495223Y-80399223D01*
X174513401Y-80382747D01*
X174533107Y-80368132D01*
X174554150Y-80355520D01*
X174576329Y-80345030D01*
X174599428Y-80336765D01*
X174623227Y-80330804D01*
X174647495Y-80327204D01*
X174671999Y-80326000D01*
X175322001Y-80326000D01*
X175346505Y-80327204D01*
X175346505Y-80327204D01*
G37*
D15*
G04 #@! TD*
G04 #@! TO.P,R9,1*
G04 #@! TO.N,VCC*
X174997000Y-81026000D03*
D14*
G04 #@! TO.N,Net-(R9-Pad2)*
G04 #@! TO.C,R9*
G36*
X177396505Y-80327204D02*
X177420773Y-80330804D01*
X177444572Y-80336765D01*
X177467671Y-80345030D01*
X177489850Y-80355520D01*
X177510893Y-80368132D01*
X177530599Y-80382747D01*
X177548777Y-80399223D01*
X177565253Y-80417401D01*
X177579868Y-80437107D01*
X177592480Y-80458150D01*
X177602970Y-80480329D01*
X177611235Y-80503428D01*
X177617196Y-80527227D01*
X177620796Y-80551495D01*
X177622000Y-80575999D01*
X177622000Y-81476001D01*
X177620796Y-81500505D01*
X177617196Y-81524773D01*
X177611235Y-81548572D01*
X177602970Y-81571671D01*
X177592480Y-81593850D01*
X177579868Y-81614893D01*
X177565253Y-81634599D01*
X177548777Y-81652777D01*
X177530599Y-81669253D01*
X177510893Y-81683868D01*
X177489850Y-81696480D01*
X177467671Y-81706970D01*
X177444572Y-81715235D01*
X177420773Y-81721196D01*
X177396505Y-81724796D01*
X177372001Y-81726000D01*
X176721999Y-81726000D01*
X176697495Y-81724796D01*
X176673227Y-81721196D01*
X176649428Y-81715235D01*
X176626329Y-81706970D01*
X176604150Y-81696480D01*
X176583107Y-81683868D01*
X176563401Y-81669253D01*
X176545223Y-81652777D01*
X176528747Y-81634599D01*
X176514132Y-81614893D01*
X176501520Y-81593850D01*
X176491030Y-81571671D01*
X176482765Y-81548572D01*
X176476804Y-81524773D01*
X176473204Y-81500505D01*
X176472000Y-81476001D01*
X176472000Y-80575999D01*
X176473204Y-80551495D01*
X176476804Y-80527227D01*
X176482765Y-80503428D01*
X176491030Y-80480329D01*
X176501520Y-80458150D01*
X176514132Y-80437107D01*
X176528747Y-80417401D01*
X176545223Y-80399223D01*
X176563401Y-80382747D01*
X176583107Y-80368132D01*
X176604150Y-80355520D01*
X176626329Y-80345030D01*
X176649428Y-80336765D01*
X176673227Y-80330804D01*
X176697495Y-80327204D01*
X176721999Y-80326000D01*
X177372001Y-80326000D01*
X177396505Y-80327204D01*
X177396505Y-80327204D01*
G37*
D15*
G04 #@! TD*
G04 #@! TO.P,R9,2*
G04 #@! TO.N,Net-(R9-Pad2)*
X177047000Y-81026000D03*
D16*
G04 #@! TO.N,/RST*
X121158000Y-61976000D03*
G04 #@! TO.N,Net-(C1-Pad2)*
X128016000Y-64770000D03*
D17*
G04 #@! TO.N,GND*
X180594000Y-55880000D03*
X171450000Y-52578000D03*
X165862000Y-52578000D03*
X160528000Y-52324000D03*
X149860000Y-52333000D03*
X155194000Y-52578000D03*
D16*
G04 #@! TO.N,Net-(D1-Pad2)*
X146050000Y-55372000D03*
G04 #@! TO.N,Net-(D2-Pad2)*
X151638000Y-55626000D03*
X151620000Y-56896000D03*
G04 #@! TO.N,Net-(D3-Pad2)*
X156972000Y-55372000D03*
G04 #@! TO.N,Net-(D4-Pad2)*
X162052000Y-55372000D03*
G04 #@! TO.N,Net-(D5-Pad2)*
X167640000Y-55372000D03*
G04 #@! TO.N,/D0*
X126746000Y-69850000D03*
G04 #@! TO.N,/D6*
X126492000Y-73914000D03*
D17*
G04 #@! TO.N,/3_3V*
X125984000Y-77978000D03*
G04 #@! TO.N,VCC*
X160274000Y-72644000D03*
D16*
G04 #@! TO.N,/A0*
X115876501Y-63806501D03*
X144018000Y-61468000D03*
G04 #@! TO.N,/D5*
X122174000Y-76454000D03*
G04 #@! TO.N,/D7*
X136442999Y-73615001D03*
G04 #@! TO.N,/D8*
X133096000Y-81271499D03*
G04 #@! TD*
D18*
G04 #@! TO.N,/RST*
X131064000Y-69832000D02*
X131082000Y-69850000D01*
X131064000Y-66294000D02*
X131064000Y-69832000D01*
X126746000Y-61976000D02*
X131064000Y-66294000D01*
X121158000Y-61976000D02*
X126746000Y-61976000D01*
G04 #@! TO.N,Net-(C1-Pad2)*
X131082000Y-73914000D02*
X131082000Y-77978000D01*
X131082000Y-72662000D02*
X131082000Y-73914000D01*
X130556000Y-72136000D02*
X131082000Y-72662000D01*
X126746000Y-72136000D02*
X130556000Y-72136000D01*
X125222000Y-67818000D02*
X125222000Y-70612000D01*
X125222000Y-70612000D02*
X126746000Y-72136000D01*
X126746000Y-66294000D02*
X125222000Y-67818000D01*
X129014000Y-66294000D02*
X126746000Y-66294000D01*
X128016000Y-65296000D02*
X129014000Y-66294000D01*
X128016000Y-64770000D02*
X128016000Y-65296000D01*
G04 #@! TO.N,Net-(D1-Pad2)*
X146050000Y-56878000D02*
X146032000Y-56896000D01*
X146050000Y-55372000D02*
X146050000Y-56878000D01*
G04 #@! TO.N,Net-(D2-Pad2)*
X151638000Y-56878000D02*
X151620000Y-56896000D01*
X151638000Y-55626000D02*
X151638000Y-56878000D01*
G04 #@! TO.N,Net-(D3-Pad2)*
X156972000Y-56878000D02*
X156954000Y-56896000D01*
X156972000Y-55372000D02*
X156972000Y-56878000D01*
G04 #@! TO.N,Net-(D4-Pad2)*
X162052000Y-55372000D02*
X162052000Y-56896000D01*
G04 #@! TO.N,Net-(D5-Pad2)*
X167640000Y-55372000D02*
X167640000Y-56896000D01*
G04 #@! TO.N,/QA*
X155067000Y-69306000D02*
X155067000Y-69756000D01*
X155067000Y-70206000D02*
X155067000Y-69756000D01*
X154341999Y-70931001D02*
X155067000Y-70206000D01*
X153156999Y-70931001D02*
X154341999Y-70931001D01*
X151892000Y-61506000D02*
X151892000Y-69666002D01*
X151892000Y-69666002D02*
X153156999Y-70931001D01*
X148082000Y-57696000D02*
X151892000Y-61506000D01*
X148082000Y-56896000D02*
X148082000Y-57696000D01*
G04 #@! TO.N,/QB*
X153670000Y-64229000D02*
X153797000Y-64356000D01*
X153670000Y-56896000D02*
X153670000Y-64229000D01*
G04 #@! TO.N,/QC*
X155067000Y-60833000D02*
X155067000Y-64356000D01*
X159004000Y-56896000D02*
X155067000Y-60833000D01*
G04 #@! TO.N,/QD*
X159258000Y-59436000D02*
X156337000Y-62357000D01*
X162052000Y-59436000D02*
X159258000Y-59436000D01*
X156337000Y-62357000D02*
X156337000Y-64356000D01*
X164084000Y-57404000D02*
X162052000Y-59436000D01*
G04 #@! TO.N,/QE*
X157607000Y-62611000D02*
X157607000Y-64356000D01*
X166642000Y-59944000D02*
X160274000Y-59944000D01*
X160274000Y-59944000D02*
X157607000Y-62611000D01*
X169690000Y-56896000D02*
X166642000Y-59944000D01*
G04 #@! TO.N,/D0*
X126746000Y-69850000D02*
X129032000Y-69850000D01*
G04 #@! TO.N,/D6*
X126492000Y-73914000D02*
X129032000Y-73914000D01*
D19*
G04 #@! TO.N,/3_3V*
X125984000Y-77978000D02*
X129032000Y-77978000D01*
G04 #@! TO.N,VCC*
X161417000Y-69756000D02*
X161417000Y-71501000D01*
X161417000Y-71501000D02*
X160274000Y-72644000D01*
X153797000Y-68606000D02*
X154585000Y-67818000D01*
X153797000Y-69756000D02*
X153797000Y-68606000D01*
X154585000Y-67818000D02*
X161036000Y-67818000D01*
X161417000Y-68199000D02*
X161417000Y-69756000D01*
X161036000Y-67818000D02*
X161417000Y-68199000D01*
X174752000Y-81271000D02*
X174997000Y-81026000D01*
X174752000Y-85598000D02*
X174752000Y-81271000D01*
D18*
G04 #@! TO.N,Net-(R9-Pad2)*
X177292000Y-81271000D02*
X177047000Y-81026000D01*
X177292000Y-85598000D02*
X177292000Y-81271000D01*
G04 #@! TO.N,/A0*
X115876501Y-63806501D02*
X115876501Y-60907499D01*
X115876501Y-60907499D02*
X116840000Y-59944000D01*
X116840000Y-59944000D02*
X142494000Y-59944000D01*
X142494000Y-59944000D02*
X144018000Y-61468000D01*
G04 #@! TO.N,/D5*
X126991501Y-81271501D02*
X122573999Y-76853999D01*
X160147000Y-69756000D02*
X160147000Y-70206000D01*
X160147000Y-70206000D02*
X147803000Y-82550000D01*
X133038998Y-82550000D02*
X131760499Y-81271501D01*
X122573999Y-76853999D02*
X122174000Y-76454000D01*
X131760499Y-81271501D02*
X126991501Y-81271501D01*
X147803000Y-82550000D02*
X133038998Y-82550000D01*
G04 #@! TO.N,/D7*
X153477999Y-73615001D02*
X136442999Y-73615001D01*
X156337000Y-70756000D02*
X153477999Y-73615001D01*
X156337000Y-69756000D02*
X156337000Y-70756000D01*
G04 #@! TO.N,/D8*
X158877000Y-70206000D02*
X147149001Y-81933999D01*
X133758500Y-81933999D02*
X133495999Y-81671498D01*
X158877000Y-69756000D02*
X158877000Y-70206000D01*
X147149001Y-81933999D02*
X133758500Y-81933999D01*
X133495999Y-81671498D02*
X133096000Y-81271499D01*
G04 #@! TO.N,/EN*
X142250999Y-75766499D02*
X141351000Y-74866500D01*
X142639501Y-76155001D02*
X142250999Y-75766499D01*
X147273001Y-76155001D02*
X142639501Y-76155001D01*
X157607000Y-70206000D02*
X151867000Y-75946000D01*
X151867000Y-75946000D02*
X147482002Y-75946000D01*
X147482002Y-75946000D02*
X147273001Y-76155001D01*
X157607000Y-69756000D02*
X157607000Y-70206000D01*
G04 #@! TO.N,/I2C_SCL*
X181522001Y-86447999D02*
X182372000Y-85598000D01*
G04 #@! TD*
D20*
G04 #@! TO.N,GND*
G36*
X175222182Y-51709397D02*
X175057000Y-52108180D01*
X175057000Y-52539820D01*
X175222182Y-52938603D01*
X175527397Y-53243818D01*
X175926180Y-53409000D01*
X176357820Y-53409000D01*
X176756603Y-53243818D01*
X177061818Y-52938603D01*
X177227000Y-52539820D01*
X177227000Y-52108180D01*
X177061818Y-51709397D01*
X176862421Y-51510000D01*
X177721579Y-51510000D01*
X177522182Y-51709397D01*
X177357000Y-52108180D01*
X177357000Y-52539820D01*
X177522182Y-52938603D01*
X177827397Y-53243818D01*
X178226180Y-53409000D01*
X178657820Y-53409000D01*
X179056603Y-53243818D01*
X179361818Y-52938603D01*
X179527000Y-52539820D01*
X179527000Y-52108180D01*
X179361818Y-51709397D01*
X179162421Y-51510000D01*
X185134382Y-51510000D01*
X185939358Y-51581842D01*
X186688277Y-51786723D01*
X187389072Y-52120986D01*
X188019605Y-52574069D01*
X188559934Y-53131645D01*
X188992989Y-53776099D01*
X189305073Y-54487044D01*
X189487640Y-55247493D01*
X189523987Y-55742447D01*
X189510373Y-55814297D01*
X189765689Y-83899067D01*
X189775794Y-83947559D01*
X189718158Y-84593359D01*
X189513277Y-85342277D01*
X189179013Y-86043075D01*
X188725931Y-86673605D01*
X188168354Y-87213935D01*
X187523901Y-87646989D01*
X186812956Y-87959073D01*
X186052506Y-88141640D01*
X185393968Y-88190000D01*
X119411618Y-88190000D01*
X118606641Y-88118158D01*
X117857723Y-87913277D01*
X117156925Y-87579013D01*
X116526395Y-87125931D01*
X115986065Y-86568354D01*
X115553011Y-85923901D01*
X115240927Y-85212956D01*
X115058360Y-84452506D01*
X115023874Y-83982887D01*
X116629000Y-83982887D01*
X116629000Y-84673113D01*
X116893138Y-85310799D01*
X117381201Y-85798862D01*
X118018887Y-86063000D01*
X118709113Y-86063000D01*
X119346799Y-85798862D01*
X119547661Y-85598000D01*
X173237908Y-85598000D01*
X173353161Y-86177418D01*
X173681375Y-86668625D01*
X174172582Y-86996839D01*
X174605744Y-87083000D01*
X174898256Y-87083000D01*
X175331418Y-86996839D01*
X175822625Y-86668625D01*
X176022000Y-86370239D01*
X176221375Y-86668625D01*
X176712582Y-86996839D01*
X177145744Y-87083000D01*
X177438256Y-87083000D01*
X177871418Y-86996839D01*
X178362625Y-86668625D01*
X178575843Y-86349522D01*
X178636817Y-86479358D01*
X179065076Y-86869645D01*
X179475110Y-87039476D01*
X179705000Y-86918155D01*
X179705000Y-85725000D01*
X179685000Y-85725000D01*
X179685000Y-85471000D01*
X179705000Y-85471000D01*
X179705000Y-84277845D01*
X179959000Y-84277845D01*
X179959000Y-85471000D01*
X179979000Y-85471000D01*
X179979000Y-85725000D01*
X179959000Y-85725000D01*
X179959000Y-86918155D01*
X180188890Y-87039476D01*
X180598924Y-86869645D01*
X180795372Y-86690615D01*
X180806098Y-86744536D01*
X180974072Y-86995928D01*
X181225464Y-87163902D01*
X181522001Y-87222887D01*
X181818538Y-87163902D01*
X182005255Y-87039142D01*
X182225744Y-87083000D01*
X182518256Y-87083000D01*
X182951418Y-86996839D01*
X183442625Y-86668625D01*
X183631209Y-86386389D01*
X183653078Y-86439185D01*
X184070815Y-86856922D01*
X184616615Y-87083000D01*
X185207385Y-87083000D01*
X185753185Y-86856922D01*
X186170922Y-86439185D01*
X186397000Y-85893385D01*
X186397000Y-85302615D01*
X186170922Y-84756815D01*
X185753185Y-84339078D01*
X185207385Y-84113000D01*
X184616615Y-84113000D01*
X184070815Y-84339078D01*
X183653078Y-84756815D01*
X183631209Y-84809611D01*
X183442625Y-84527375D01*
X182951418Y-84199161D01*
X182518256Y-84113000D01*
X182225744Y-84113000D01*
X181792582Y-84199161D01*
X181301375Y-84527375D01*
X181088157Y-84846478D01*
X181027183Y-84716642D01*
X180598924Y-84326355D01*
X180188890Y-84156524D01*
X179959000Y-84277845D01*
X179705000Y-84277845D01*
X179475110Y-84156524D01*
X179065076Y-84326355D01*
X178636817Y-84716642D01*
X178575843Y-84846478D01*
X178362625Y-84527375D01*
X178052000Y-84319822D01*
X178052000Y-82042619D01*
X178201127Y-81819436D01*
X178269440Y-81476001D01*
X178269440Y-80575999D01*
X178201127Y-80232564D01*
X178006586Y-79941414D01*
X177972873Y-79918887D01*
X183939000Y-79918887D01*
X183939000Y-80609113D01*
X184203138Y-81246799D01*
X184691201Y-81734862D01*
X185328887Y-81999000D01*
X186019113Y-81999000D01*
X186656799Y-81734862D01*
X187144862Y-81246799D01*
X187409000Y-80609113D01*
X187409000Y-79918887D01*
X187144862Y-79281201D01*
X186656799Y-78793138D01*
X186019113Y-78529000D01*
X185328887Y-78529000D01*
X184691201Y-78793138D01*
X184203138Y-79281201D01*
X183939000Y-79918887D01*
X177972873Y-79918887D01*
X177715436Y-79746873D01*
X177372001Y-79678560D01*
X176721999Y-79678560D01*
X176378564Y-79746873D01*
X176087414Y-79941414D01*
X176022000Y-80039313D01*
X175956586Y-79941414D01*
X175665436Y-79746873D01*
X175322001Y-79678560D01*
X174671999Y-79678560D01*
X174328564Y-79746873D01*
X174037414Y-79941414D01*
X173842873Y-80232564D01*
X173774560Y-80575999D01*
X173774560Y-81476001D01*
X173842873Y-81819436D01*
X173917001Y-81930376D01*
X173917000Y-84369935D01*
X173681375Y-84527375D01*
X173353161Y-85018582D01*
X173237908Y-85598000D01*
X119547661Y-85598000D01*
X119834862Y-85310799D01*
X120099000Y-84673113D01*
X120099000Y-83982887D01*
X119834862Y-83345201D01*
X119346799Y-82857138D01*
X118709113Y-82593000D01*
X118018887Y-82593000D01*
X117381201Y-82857138D01*
X116893138Y-83345201D01*
X116629000Y-83982887D01*
X115023874Y-83982887D01*
X115022013Y-83957553D01*
X115035627Y-83885703D01*
X114855262Y-64045598D01*
X114999070Y-64392781D01*
X115290221Y-64683932D01*
X115670627Y-64841501D01*
X116082375Y-64841501D01*
X116462781Y-64683932D01*
X116753932Y-64392781D01*
X116911501Y-64012375D01*
X116911501Y-63600627D01*
X116753932Y-63220221D01*
X116636501Y-63102790D01*
X116636501Y-61222301D01*
X117154802Y-60704000D01*
X118010640Y-60704000D01*
X117621493Y-60865190D01*
X117189690Y-61296993D01*
X116956000Y-61861170D01*
X116956000Y-62471830D01*
X117189690Y-63036007D01*
X117590183Y-63436500D01*
X117189690Y-63836993D01*
X116956000Y-64401170D01*
X116956000Y-65011830D01*
X117189690Y-65576007D01*
X117590183Y-65976500D01*
X117189690Y-66376993D01*
X116956000Y-66941170D01*
X116956000Y-67551830D01*
X117189690Y-68116007D01*
X117590183Y-68516500D01*
X117189690Y-68916993D01*
X116956000Y-69481170D01*
X116956000Y-70091830D01*
X117189690Y-70656007D01*
X117590183Y-71056500D01*
X117189690Y-71456993D01*
X116956000Y-72021170D01*
X116956000Y-72631830D01*
X117189690Y-73196007D01*
X117590183Y-73596500D01*
X117189690Y-73996993D01*
X116956000Y-74561170D01*
X116956000Y-75171830D01*
X117189690Y-75736007D01*
X117590183Y-76136500D01*
X117189690Y-76536993D01*
X116956000Y-77101170D01*
X116956000Y-77711830D01*
X117189690Y-78276007D01*
X117590183Y-78676500D01*
X117189690Y-79076993D01*
X116956000Y-79641170D01*
X116956000Y-80251830D01*
X117189690Y-80816007D01*
X117621493Y-81247810D01*
X118185670Y-81481500D01*
X118796330Y-81481500D01*
X119360507Y-81247810D01*
X119792310Y-80816007D01*
X120026000Y-80251830D01*
X120026000Y-79641170D01*
X119792310Y-79076993D01*
X119391817Y-78676500D01*
X119792310Y-78276007D01*
X120026000Y-77711830D01*
X120026000Y-77101170D01*
X119792310Y-76536993D01*
X119391817Y-76136500D01*
X119792310Y-75736007D01*
X120026000Y-75171830D01*
X120026000Y-74561170D01*
X119792310Y-73996993D01*
X119391817Y-73596500D01*
X119792310Y-73196007D01*
X120026000Y-72631830D01*
X120026000Y-72021170D01*
X119792310Y-71456993D01*
X119391817Y-71056500D01*
X119792310Y-70656007D01*
X120026000Y-70091830D01*
X120026000Y-69481170D01*
X119792310Y-68916993D01*
X119391817Y-68516500D01*
X119792310Y-68116007D01*
X120026000Y-67551830D01*
X120026000Y-66941170D01*
X119792310Y-66376993D01*
X119391817Y-65976500D01*
X119792310Y-65576007D01*
X120026000Y-65011830D01*
X120026000Y-64401170D01*
X119792310Y-63836993D01*
X119391817Y-63436500D01*
X119792310Y-63036007D01*
X120026000Y-62471830D01*
X120026000Y-61861170D01*
X119792310Y-61296993D01*
X119360507Y-60865190D01*
X118971360Y-60704000D01*
X140870640Y-60704000D01*
X140481493Y-60865190D01*
X140049690Y-61296993D01*
X139816000Y-61861170D01*
X139816000Y-62471830D01*
X140049690Y-63036007D01*
X140450183Y-63436500D01*
X140049690Y-63836993D01*
X139816000Y-64401170D01*
X139816000Y-65011830D01*
X140049690Y-65576007D01*
X140450183Y-65976500D01*
X140049690Y-66376993D01*
X139816000Y-66941170D01*
X139816000Y-67551830D01*
X140049690Y-68116007D01*
X140450183Y-68516500D01*
X140049690Y-68916993D01*
X139816000Y-69481170D01*
X139816000Y-70091830D01*
X140049690Y-70656007D01*
X140450183Y-71056500D01*
X140049690Y-71456993D01*
X139816000Y-72021170D01*
X139816000Y-72631830D01*
X139908441Y-72855001D01*
X137146710Y-72855001D01*
X137029279Y-72737570D01*
X136648873Y-72580001D01*
X136237125Y-72580001D01*
X135856719Y-72737570D01*
X135565568Y-73028721D01*
X135407999Y-73409127D01*
X135407999Y-73820875D01*
X135565568Y-74201281D01*
X135856719Y-74492432D01*
X136237125Y-74650001D01*
X136648873Y-74650001D01*
X137029279Y-74492432D01*
X137146710Y-74375001D01*
X139893114Y-74375001D01*
X139816000Y-74561170D01*
X139816000Y-75171830D01*
X140049690Y-75736007D01*
X140481493Y-76167810D01*
X140501115Y-76175938D01*
X140450446Y-76326341D01*
X141351000Y-77226895D01*
X141365143Y-77212753D01*
X141544748Y-77392358D01*
X141530605Y-77406500D01*
X142431159Y-78307054D01*
X142687643Y-78220648D01*
X142897458Y-77647164D01*
X142871839Y-77037040D01*
X142821289Y-76915001D01*
X145253416Y-76915001D01*
X145150000Y-77164670D01*
X145150000Y-77775330D01*
X145383690Y-78339507D01*
X145784183Y-78740000D01*
X145383690Y-79140493D01*
X145150000Y-79704670D01*
X145150000Y-80315330D01*
X145383690Y-80879507D01*
X145678182Y-81173999D01*
X142294318Y-81173999D01*
X142652310Y-80816007D01*
X142886000Y-80251830D01*
X142886000Y-79641170D01*
X142652310Y-79076993D01*
X142220507Y-78645190D01*
X142200885Y-78637062D01*
X142251554Y-78486659D01*
X141351000Y-77586105D01*
X140450446Y-78486659D01*
X140501115Y-78637062D01*
X140481493Y-78645190D01*
X140049690Y-79076993D01*
X139816000Y-79641170D01*
X139816000Y-80251830D01*
X140049690Y-80816007D01*
X140407682Y-81173999D01*
X134131000Y-81173999D01*
X134131000Y-81065625D01*
X133973431Y-80685219D01*
X133682280Y-80394068D01*
X133301874Y-80236499D01*
X132890126Y-80236499D01*
X132509720Y-80394068D01*
X132231571Y-80672217D01*
X132057036Y-80555597D01*
X131835351Y-80511501D01*
X131835346Y-80511501D01*
X131760499Y-80496613D01*
X131685652Y-80511501D01*
X127306303Y-80511501D01*
X125736398Y-78941596D01*
X125788071Y-78963000D01*
X126179929Y-78963000D01*
X126541958Y-78813042D01*
X126542000Y-78813000D01*
X127905645Y-78813000D01*
X128072414Y-79062586D01*
X128363564Y-79257127D01*
X128706999Y-79325440D01*
X129357001Y-79325440D01*
X129700436Y-79257127D01*
X129991586Y-79062586D01*
X130057000Y-78964687D01*
X130122414Y-79062586D01*
X130413564Y-79257127D01*
X130756999Y-79325440D01*
X131407001Y-79325440D01*
X131750436Y-79257127D01*
X132041586Y-79062586D01*
X132236127Y-78771436D01*
X132304440Y-78428001D01*
X132304440Y-77527999D01*
X132236127Y-77184564D01*
X132223614Y-77165836D01*
X139804542Y-77165836D01*
X139830161Y-77775960D01*
X140014357Y-78220648D01*
X140270841Y-78307054D01*
X141171395Y-77406500D01*
X140270841Y-76505946D01*
X140014357Y-76592352D01*
X139804542Y-77165836D01*
X132223614Y-77165836D01*
X132041586Y-76893414D01*
X131842000Y-76760054D01*
X131842000Y-75131946D01*
X132041586Y-74998586D01*
X132236127Y-74707436D01*
X132304440Y-74364001D01*
X132304440Y-73463999D01*
X132236127Y-73120564D01*
X132041586Y-72829414D01*
X131849162Y-72700840D01*
X131856888Y-72661999D01*
X131842000Y-72587152D01*
X131842000Y-72587148D01*
X131797904Y-72365463D01*
X131756102Y-72302902D01*
X131672329Y-72177526D01*
X131672327Y-72177524D01*
X131629929Y-72114071D01*
X131566476Y-72071673D01*
X131146330Y-71651529D01*
X131103929Y-71588071D01*
X130852537Y-71420096D01*
X130630852Y-71376000D01*
X130630847Y-71376000D01*
X130556000Y-71361112D01*
X130481153Y-71376000D01*
X127060803Y-71376000D01*
X126569802Y-70885000D01*
X126951874Y-70885000D01*
X127332280Y-70727431D01*
X127449711Y-70610000D01*
X127871222Y-70610000D01*
X127877873Y-70643436D01*
X128072414Y-70934586D01*
X128363564Y-71129127D01*
X128706999Y-71197440D01*
X129357001Y-71197440D01*
X129700436Y-71129127D01*
X129991586Y-70934586D01*
X130057000Y-70836687D01*
X130122414Y-70934586D01*
X130413564Y-71129127D01*
X130756999Y-71197440D01*
X131407001Y-71197440D01*
X131750436Y-71129127D01*
X132041586Y-70934586D01*
X132236127Y-70643436D01*
X132304440Y-70300001D01*
X132304440Y-69399999D01*
X132236127Y-69056564D01*
X132041586Y-68765414D01*
X131824000Y-68620027D01*
X131824000Y-67511946D01*
X132023586Y-67378586D01*
X132218127Y-67087436D01*
X132286440Y-66744001D01*
X132286440Y-65843999D01*
X132218127Y-65500564D01*
X132023586Y-65209414D01*
X131732436Y-65014873D01*
X131389001Y-64946560D01*
X130791362Y-64946560D01*
X127336331Y-61491530D01*
X127293929Y-61428071D01*
X127042537Y-61260096D01*
X126820852Y-61216000D01*
X126820847Y-61216000D01*
X126746000Y-61201112D01*
X126671153Y-61216000D01*
X121861711Y-61216000D01*
X121744280Y-61098569D01*
X121363874Y-60941000D01*
X120952126Y-60941000D01*
X120571720Y-61098569D01*
X120280569Y-61389720D01*
X120123000Y-61770126D01*
X120123000Y-62181874D01*
X120280569Y-62562280D01*
X120571720Y-62853431D01*
X120952126Y-63011000D01*
X121363874Y-63011000D01*
X121744280Y-62853431D01*
X121861711Y-62736000D01*
X126431199Y-62736000D01*
X127541477Y-63846278D01*
X127429720Y-63892569D01*
X127138569Y-64183720D01*
X126981000Y-64564126D01*
X126981000Y-64975874D01*
X127138569Y-65356280D01*
X127281540Y-65499251D01*
X127288452Y-65534000D01*
X126820846Y-65534000D01*
X126745999Y-65519112D01*
X126671152Y-65534000D01*
X126671148Y-65534000D01*
X126449463Y-65578096D01*
X126427851Y-65592537D01*
X126261526Y-65703671D01*
X126261524Y-65703673D01*
X126198071Y-65746071D01*
X126155673Y-65809524D01*
X124737530Y-67227669D01*
X124674071Y-67270071D01*
X124506096Y-67521464D01*
X124462000Y-67743149D01*
X124462000Y-67743153D01*
X124447112Y-67818000D01*
X124462000Y-67892847D01*
X124462001Y-70537148D01*
X124447112Y-70612000D01*
X124462001Y-70686852D01*
X124470073Y-70727431D01*
X124506097Y-70908537D01*
X124626472Y-71088690D01*
X124674072Y-71159929D01*
X124737528Y-71202329D01*
X126155673Y-72620476D01*
X126198071Y-72683929D01*
X126261524Y-72726327D01*
X126261526Y-72726329D01*
X126386902Y-72810102D01*
X126449463Y-72851904D01*
X126585683Y-72879000D01*
X126286126Y-72879000D01*
X125905720Y-73036569D01*
X125614569Y-73327720D01*
X125457000Y-73708126D01*
X125457000Y-74119874D01*
X125614569Y-74500280D01*
X125905720Y-74791431D01*
X126286126Y-74949000D01*
X126697874Y-74949000D01*
X127078280Y-74791431D01*
X127195711Y-74674000D01*
X127871222Y-74674000D01*
X127877873Y-74707436D01*
X128072414Y-74998586D01*
X128363564Y-75193127D01*
X128706999Y-75261440D01*
X129357001Y-75261440D01*
X129700436Y-75193127D01*
X129991586Y-74998586D01*
X130057000Y-74900687D01*
X130122414Y-74998586D01*
X130322000Y-75131946D01*
X130322001Y-76760054D01*
X130122414Y-76893414D01*
X130057000Y-76991313D01*
X129991586Y-76893414D01*
X129700436Y-76698873D01*
X129357001Y-76630560D01*
X128706999Y-76630560D01*
X128363564Y-76698873D01*
X128072414Y-76893414D01*
X127905645Y-77143000D01*
X126542000Y-77143000D01*
X126541958Y-77142958D01*
X126179929Y-76993000D01*
X125788071Y-76993000D01*
X125426042Y-77142958D01*
X125148958Y-77420042D01*
X124999000Y-77782071D01*
X124999000Y-78173929D01*
X125020404Y-78225603D01*
X123209000Y-76414199D01*
X123209000Y-76248126D01*
X123051431Y-75867720D01*
X122760280Y-75576569D01*
X122379874Y-75419000D01*
X121968126Y-75419000D01*
X121587720Y-75576569D01*
X121296569Y-75867720D01*
X121139000Y-76248126D01*
X121139000Y-76659874D01*
X121296569Y-77040280D01*
X121587720Y-77331431D01*
X121968126Y-77489000D01*
X122134199Y-77489000D01*
X126401171Y-81755973D01*
X126443572Y-81819430D01*
X126694964Y-81987405D01*
X126916649Y-82031501D01*
X126916653Y-82031501D01*
X126991500Y-82046389D01*
X127066347Y-82031501D01*
X131445698Y-82031501D01*
X132448669Y-83034473D01*
X132491069Y-83097929D01*
X132742461Y-83265904D01*
X132964146Y-83310000D01*
X132964150Y-83310000D01*
X133038998Y-83324888D01*
X133113846Y-83310000D01*
X147728153Y-83310000D01*
X147803000Y-83324888D01*
X147877847Y-83310000D01*
X147877852Y-83310000D01*
X148099537Y-83265904D01*
X148350929Y-83097929D01*
X148393331Y-83034470D01*
X151723131Y-79704670D01*
X168010000Y-79704670D01*
X168010000Y-80315330D01*
X168243690Y-80879507D01*
X168675493Y-81311310D01*
X169239670Y-81545000D01*
X169850330Y-81545000D01*
X170414507Y-81311310D01*
X170846310Y-80879507D01*
X171080000Y-80315330D01*
X171080000Y-79704670D01*
X170846310Y-79140493D01*
X170414507Y-78708690D01*
X170394885Y-78700562D01*
X170445554Y-78550159D01*
X169545000Y-77649605D01*
X168644446Y-78550159D01*
X168695115Y-78700562D01*
X168675493Y-78708690D01*
X168243690Y-79140493D01*
X168010000Y-79704670D01*
X151723131Y-79704670D01*
X154198465Y-77229336D01*
X167998542Y-77229336D01*
X168024161Y-77839460D01*
X168208357Y-78284148D01*
X168464841Y-78370554D01*
X169365395Y-77470000D01*
X169724605Y-77470000D01*
X170625159Y-78370554D01*
X170881643Y-78284148D01*
X171091458Y-77710664D01*
X171065839Y-77100540D01*
X170881643Y-76655852D01*
X170625159Y-76569446D01*
X169724605Y-77470000D01*
X169365395Y-77470000D01*
X168464841Y-76569446D01*
X168208357Y-76655852D01*
X167998542Y-77229336D01*
X154198465Y-77229336D01*
X160274362Y-71153440D01*
X160447000Y-71153440D01*
X160582001Y-71126587D01*
X160582001Y-71155131D01*
X160078133Y-71659000D01*
X160078071Y-71659000D01*
X159716042Y-71808958D01*
X159438958Y-72086042D01*
X159289000Y-72448071D01*
X159289000Y-72839929D01*
X159438958Y-73201958D01*
X159716042Y-73479042D01*
X160078071Y-73629000D01*
X160469929Y-73629000D01*
X160831958Y-73479042D01*
X161109042Y-73201958D01*
X161259000Y-72839929D01*
X161259000Y-72839867D01*
X161949282Y-72149585D01*
X162019001Y-72103001D01*
X162203552Y-71826801D01*
X162252000Y-71583237D01*
X162252000Y-71583234D01*
X162268357Y-71501001D01*
X162252000Y-71418768D01*
X162252000Y-71126587D01*
X162387000Y-71153440D01*
X162987000Y-71153440D01*
X163234765Y-71104157D01*
X163444809Y-70963809D01*
X163585157Y-70753765D01*
X163634440Y-70506000D01*
X163634440Y-69006000D01*
X163585157Y-68758235D01*
X163444809Y-68548191D01*
X163234765Y-68407843D01*
X162987000Y-68358560D01*
X162387000Y-68358560D01*
X162252000Y-68385413D01*
X162252000Y-68281232D01*
X162268357Y-68198999D01*
X162252000Y-68116764D01*
X162252000Y-68116763D01*
X162203552Y-67873199D01*
X162019001Y-67596999D01*
X161949283Y-67550415D01*
X161684587Y-67285720D01*
X161638001Y-67215999D01*
X161361801Y-67031448D01*
X161118237Y-66983000D01*
X161118233Y-66983000D01*
X161036000Y-66966643D01*
X160953767Y-66983000D01*
X154667232Y-66983000D01*
X154584999Y-66966643D01*
X154502766Y-66983000D01*
X154502763Y-66983000D01*
X154259199Y-67031448D01*
X154225448Y-67054000D01*
X153982999Y-67215999D01*
X153936416Y-67285715D01*
X153264718Y-67957415D01*
X153195000Y-68003999D01*
X153148416Y-68073717D01*
X153010448Y-68280200D01*
X152945643Y-68606000D01*
X152958242Y-68669339D01*
X152898843Y-68758235D01*
X152849560Y-69006000D01*
X152849560Y-69548761D01*
X152652000Y-69351201D01*
X152652000Y-61580848D01*
X152666888Y-61506000D01*
X152652000Y-61431152D01*
X152652000Y-61431148D01*
X152607904Y-61209463D01*
X152607904Y-61209462D01*
X152482329Y-61021527D01*
X152439929Y-60958071D01*
X152376473Y-60915671D01*
X149201724Y-57740923D01*
X149236127Y-57689436D01*
X149304440Y-57346001D01*
X149304440Y-56445999D01*
X150211560Y-56445999D01*
X150211560Y-57346001D01*
X150279873Y-57689436D01*
X150474414Y-57980586D01*
X150765564Y-58175127D01*
X151108999Y-58243440D01*
X151759001Y-58243440D01*
X152102436Y-58175127D01*
X152393586Y-57980586D01*
X152459000Y-57882687D01*
X152524414Y-57980586D01*
X152815564Y-58175127D01*
X152910000Y-58193911D01*
X152910001Y-63341536D01*
X152898843Y-63358235D01*
X152849560Y-63606000D01*
X152849560Y-65106000D01*
X152898843Y-65353765D01*
X153039191Y-65563809D01*
X153249235Y-65704157D01*
X153497000Y-65753440D01*
X154097000Y-65753440D01*
X154344765Y-65704157D01*
X154432000Y-65645868D01*
X154519235Y-65704157D01*
X154767000Y-65753440D01*
X155367000Y-65753440D01*
X155614765Y-65704157D01*
X155702000Y-65645868D01*
X155789235Y-65704157D01*
X156037000Y-65753440D01*
X156637000Y-65753440D01*
X156884765Y-65704157D01*
X156972000Y-65645868D01*
X157059235Y-65704157D01*
X157307000Y-65753440D01*
X157907000Y-65753440D01*
X158154765Y-65704157D01*
X158242000Y-65645868D01*
X158329235Y-65704157D01*
X158577000Y-65753440D01*
X159177000Y-65753440D01*
X159424765Y-65704157D01*
X159512000Y-65645868D01*
X159599235Y-65704157D01*
X159847000Y-65753440D01*
X160447000Y-65753440D01*
X160694765Y-65704157D01*
X160782000Y-65645868D01*
X160869235Y-65704157D01*
X161117000Y-65753440D01*
X161717000Y-65753440D01*
X161964765Y-65704157D01*
X162043972Y-65651232D01*
X162260690Y-65741000D01*
X162401250Y-65741000D01*
X162560000Y-65582250D01*
X162560000Y-64483000D01*
X162814000Y-64483000D01*
X162814000Y-65582250D01*
X162972750Y-65741000D01*
X163113310Y-65741000D01*
X163346699Y-65644327D01*
X163525327Y-65465698D01*
X163622000Y-65232309D01*
X163622000Y-64641750D01*
X163463250Y-64483000D01*
X162814000Y-64483000D01*
X162560000Y-64483000D01*
X162540000Y-64483000D01*
X162540000Y-64229000D01*
X162560000Y-64229000D01*
X162560000Y-63129750D01*
X162814000Y-63129750D01*
X162814000Y-64229000D01*
X163463250Y-64229000D01*
X163622000Y-64070250D01*
X163622000Y-63479691D01*
X163525327Y-63246302D01*
X163346699Y-63067673D01*
X163113310Y-62971000D01*
X162972750Y-62971000D01*
X162814000Y-63129750D01*
X162560000Y-63129750D01*
X162401250Y-62971000D01*
X162260690Y-62971000D01*
X162043972Y-63060768D01*
X161964765Y-63007843D01*
X161717000Y-62958560D01*
X161117000Y-62958560D01*
X160869235Y-63007843D01*
X160782000Y-63066132D01*
X160694765Y-63007843D01*
X160447000Y-62958560D01*
X159847000Y-62958560D01*
X159599235Y-63007843D01*
X159512000Y-63066132D01*
X159424765Y-63007843D01*
X159177000Y-62958560D01*
X158577000Y-62958560D01*
X158367000Y-63000331D01*
X158367000Y-62925801D01*
X159368131Y-61924670D01*
X168010000Y-61924670D01*
X168010000Y-62535330D01*
X168243690Y-63099507D01*
X168644183Y-63500000D01*
X168243690Y-63900493D01*
X168010000Y-64464670D01*
X168010000Y-65075330D01*
X168243690Y-65639507D01*
X168644183Y-66040000D01*
X168243690Y-66440493D01*
X168010000Y-67004670D01*
X168010000Y-67615330D01*
X168243690Y-68179507D01*
X168644183Y-68580000D01*
X168243690Y-68980493D01*
X168010000Y-69544670D01*
X168010000Y-70155330D01*
X168243690Y-70719507D01*
X168644183Y-71120000D01*
X168243690Y-71520493D01*
X168010000Y-72084670D01*
X168010000Y-72695330D01*
X168243690Y-73259507D01*
X168644183Y-73660000D01*
X168243690Y-74060493D01*
X168010000Y-74624670D01*
X168010000Y-75235330D01*
X168243690Y-75799507D01*
X168675493Y-76231310D01*
X168695115Y-76239438D01*
X168644446Y-76389841D01*
X169545000Y-77290395D01*
X170445554Y-76389841D01*
X170394885Y-76239438D01*
X170414507Y-76231310D01*
X170846310Y-75799507D01*
X171080000Y-75235330D01*
X171080000Y-74624670D01*
X170846310Y-74060493D01*
X170445817Y-73660000D01*
X170846310Y-73259507D01*
X171080000Y-72695330D01*
X171080000Y-72084670D01*
X170846310Y-71520493D01*
X170445817Y-71120000D01*
X170846310Y-70719507D01*
X171080000Y-70155330D01*
X171080000Y-69544670D01*
X170846310Y-68980493D01*
X170445817Y-68580000D01*
X170846310Y-68179507D01*
X171080000Y-67615330D01*
X171080000Y-67004670D01*
X170846310Y-66440493D01*
X170445817Y-66040000D01*
X170846310Y-65639507D01*
X171080000Y-65075330D01*
X171080000Y-64464670D01*
X170846310Y-63900493D01*
X170445817Y-63500000D01*
X170846310Y-63099507D01*
X171080000Y-62535330D01*
X171080000Y-61924670D01*
X170846310Y-61360493D01*
X170414507Y-60928690D01*
X169850330Y-60695000D01*
X169239670Y-60695000D01*
X168675493Y-60928690D01*
X168243690Y-61360493D01*
X168010000Y-61924670D01*
X159368131Y-61924670D01*
X160588802Y-60704000D01*
X166567153Y-60704000D01*
X166642000Y-60718888D01*
X166716847Y-60704000D01*
X166716852Y-60704000D01*
X166938537Y-60659904D01*
X167189929Y-60491929D01*
X167232331Y-60428470D01*
X169417362Y-58243440D01*
X170015001Y-58243440D01*
X170358436Y-58175127D01*
X170649586Y-57980586D01*
X170844127Y-57689436D01*
X170912440Y-57346001D01*
X170912440Y-56445999D01*
X170844127Y-56102564D01*
X170649586Y-55811414D01*
X170358436Y-55616873D01*
X170015001Y-55548560D01*
X169364999Y-55548560D01*
X169021564Y-55616873D01*
X168730414Y-55811414D01*
X168665000Y-55909313D01*
X168599586Y-55811414D01*
X168582887Y-55800256D01*
X168675000Y-55577874D01*
X168675000Y-55166126D01*
X168617326Y-55026887D01*
X183939000Y-55026887D01*
X183939000Y-55717113D01*
X184203138Y-56354799D01*
X184691201Y-56842862D01*
X185328887Y-57107000D01*
X186019113Y-57107000D01*
X186656799Y-56842862D01*
X187144862Y-56354799D01*
X187409000Y-55717113D01*
X187409000Y-55026887D01*
X187144862Y-54389201D01*
X186656799Y-53901138D01*
X186019113Y-53637000D01*
X185328887Y-53637000D01*
X184691201Y-53901138D01*
X184203138Y-54389201D01*
X183939000Y-55026887D01*
X168617326Y-55026887D01*
X168517431Y-54785720D01*
X168226280Y-54494569D01*
X167845874Y-54337000D01*
X167434126Y-54337000D01*
X167053720Y-54494569D01*
X166762569Y-54785720D01*
X166605000Y-55166126D01*
X166605000Y-55577874D01*
X166697113Y-55800256D01*
X166680414Y-55811414D01*
X166485873Y-56102564D01*
X166417560Y-56445999D01*
X166417560Y-57346001D01*
X166485873Y-57689436D01*
X166680414Y-57980586D01*
X166971564Y-58175127D01*
X167275596Y-58235602D01*
X166327199Y-59184000D01*
X163378801Y-59184000D01*
X164319362Y-58243440D01*
X164613001Y-58243440D01*
X164956436Y-58175127D01*
X165247586Y-57980586D01*
X165442127Y-57689436D01*
X165510440Y-57346001D01*
X165510440Y-56445999D01*
X165442127Y-56102564D01*
X165247586Y-55811414D01*
X164956436Y-55616873D01*
X164613001Y-55548560D01*
X163962999Y-55548560D01*
X163619564Y-55616873D01*
X163328414Y-55811414D01*
X163263000Y-55909313D01*
X163197586Y-55811414D01*
X163035206Y-55702915D01*
X163087000Y-55577874D01*
X163087000Y-55166126D01*
X162929431Y-54785720D01*
X162638280Y-54494569D01*
X162257874Y-54337000D01*
X161846126Y-54337000D01*
X161465720Y-54494569D01*
X161174569Y-54785720D01*
X161017000Y-55166126D01*
X161017000Y-55577874D01*
X161174569Y-55958280D01*
X161177993Y-55961704D01*
X161083873Y-56102564D01*
X161015560Y-56445999D01*
X161015560Y-57346001D01*
X161083873Y-57689436D01*
X161278414Y-57980586D01*
X161569564Y-58175127D01*
X161912999Y-58243440D01*
X162169759Y-58243440D01*
X161737199Y-58676000D01*
X159332848Y-58676000D01*
X159258000Y-58661112D01*
X159183152Y-58676000D01*
X159183148Y-58676000D01*
X159009605Y-58710520D01*
X158961462Y-58720096D01*
X158774418Y-58845076D01*
X158710071Y-58888071D01*
X158667671Y-58951527D01*
X155852530Y-61766669D01*
X155827000Y-61783728D01*
X155827000Y-61147801D01*
X158731362Y-58243440D01*
X159211001Y-58243440D01*
X159554436Y-58175127D01*
X159845586Y-57980586D01*
X160040127Y-57689436D01*
X160108440Y-57346001D01*
X160108440Y-56445999D01*
X160040127Y-56102564D01*
X159845586Y-55811414D01*
X159554436Y-55616873D01*
X159211001Y-55548560D01*
X158560999Y-55548560D01*
X158217564Y-55616873D01*
X157926414Y-55811414D01*
X157883926Y-55875002D01*
X158007000Y-55577874D01*
X158007000Y-55166126D01*
X157849431Y-54785720D01*
X157558280Y-54494569D01*
X157177874Y-54337000D01*
X156766126Y-54337000D01*
X156385720Y-54494569D01*
X156094569Y-54785720D01*
X155937000Y-55166126D01*
X155937000Y-55577874D01*
X155999632Y-55729082D01*
X155876414Y-55811414D01*
X155681873Y-56102564D01*
X155613560Y-56445999D01*
X155613560Y-57346001D01*
X155681873Y-57689436D01*
X155876414Y-57980586D01*
X156167564Y-58175127D01*
X156510999Y-58243440D01*
X156581758Y-58243440D01*
X154582530Y-60242669D01*
X154519071Y-60285071D01*
X154430000Y-60418376D01*
X154430000Y-57989664D01*
X154443586Y-57980586D01*
X154638127Y-57689436D01*
X154706440Y-57346001D01*
X154706440Y-56445999D01*
X154638127Y-56102564D01*
X154443586Y-55811414D01*
X154152436Y-55616873D01*
X153809001Y-55548560D01*
X153158999Y-55548560D01*
X152815564Y-55616873D01*
X152673000Y-55712132D01*
X152673000Y-55420126D01*
X152515431Y-55039720D01*
X152224280Y-54748569D01*
X151843874Y-54591000D01*
X151432126Y-54591000D01*
X151051720Y-54748569D01*
X150760569Y-55039720D01*
X150603000Y-55420126D01*
X150603000Y-55725495D01*
X150474414Y-55811414D01*
X150279873Y-56102564D01*
X150211560Y-56445999D01*
X149304440Y-56445999D01*
X149236127Y-56102564D01*
X149041586Y-55811414D01*
X148750436Y-55616873D01*
X148407001Y-55548560D01*
X147756999Y-55548560D01*
X147413564Y-55616873D01*
X147122414Y-55811414D01*
X147057000Y-55909313D01*
X146991586Y-55811414D01*
X146988985Y-55809676D01*
X147085000Y-55577874D01*
X147085000Y-55166126D01*
X146927431Y-54785720D01*
X146636280Y-54494569D01*
X146255874Y-54337000D01*
X145844126Y-54337000D01*
X145463720Y-54494569D01*
X145172569Y-54785720D01*
X145015000Y-55166126D01*
X145015000Y-55577874D01*
X145103211Y-55790836D01*
X145072414Y-55811414D01*
X144877873Y-56102564D01*
X144809560Y-56445999D01*
X144809560Y-57346001D01*
X144877873Y-57689436D01*
X145072414Y-57980586D01*
X145363564Y-58175127D01*
X145706999Y-58243440D01*
X146357001Y-58243440D01*
X146700436Y-58175127D01*
X146991586Y-57980586D01*
X147057000Y-57882687D01*
X147122414Y-57980586D01*
X147413564Y-58175127D01*
X147499525Y-58192226D01*
X147534072Y-58243929D01*
X147597528Y-58286329D01*
X151132000Y-61820802D01*
X151132001Y-69591150D01*
X151117112Y-69666002D01*
X151176097Y-69962539D01*
X151299041Y-70146537D01*
X151344072Y-70213931D01*
X151407528Y-70256331D01*
X152566670Y-71415474D01*
X152609070Y-71478930D01*
X152672526Y-71521330D01*
X152860461Y-71646905D01*
X152883693Y-71651526D01*
X153082147Y-71691001D01*
X153082151Y-71691001D01*
X153156999Y-71705889D01*
X153231847Y-71691001D01*
X154267152Y-71691001D01*
X154317235Y-71700963D01*
X153163198Y-72855001D01*
X148153862Y-72855001D01*
X148220000Y-72695330D01*
X148220000Y-72084670D01*
X147986310Y-71520493D01*
X147585817Y-71120000D01*
X147986310Y-70719507D01*
X148220000Y-70155330D01*
X148220000Y-69544670D01*
X147986310Y-68980493D01*
X147585817Y-68580000D01*
X147986310Y-68179507D01*
X148220000Y-67615330D01*
X148220000Y-67004670D01*
X147986310Y-66440493D01*
X147585817Y-66040000D01*
X147986310Y-65639507D01*
X148220000Y-65075330D01*
X148220000Y-64464670D01*
X147986310Y-63900493D01*
X147585817Y-63500000D01*
X147986310Y-63099507D01*
X148220000Y-62535330D01*
X148220000Y-61924670D01*
X147986310Y-61360493D01*
X147554507Y-60928690D01*
X146990330Y-60695000D01*
X146379670Y-60695000D01*
X145815493Y-60928690D01*
X145383690Y-61360493D01*
X145150000Y-61924670D01*
X145150000Y-62535330D01*
X145383690Y-63099507D01*
X145784183Y-63500000D01*
X145383690Y-63900493D01*
X145150000Y-64464670D01*
X145150000Y-65075330D01*
X145383690Y-65639507D01*
X145784183Y-66040000D01*
X145383690Y-66440493D01*
X145150000Y-67004670D01*
X145150000Y-67615330D01*
X145383690Y-68179507D01*
X145784183Y-68580000D01*
X145383690Y-68980493D01*
X145150000Y-69544670D01*
X145150000Y-70155330D01*
X145383690Y-70719507D01*
X145784183Y-71120000D01*
X145383690Y-71520493D01*
X145150000Y-72084670D01*
X145150000Y-72695330D01*
X145216138Y-72855001D01*
X142793559Y-72855001D01*
X142886000Y-72631830D01*
X142886000Y-72021170D01*
X142652310Y-71456993D01*
X142251817Y-71056500D01*
X142652310Y-70656007D01*
X142886000Y-70091830D01*
X142886000Y-69481170D01*
X142652310Y-68916993D01*
X142251817Y-68516500D01*
X142652310Y-68116007D01*
X142886000Y-67551830D01*
X142886000Y-66941170D01*
X142652310Y-66376993D01*
X142251817Y-65976500D01*
X142652310Y-65576007D01*
X142886000Y-65011830D01*
X142886000Y-64401170D01*
X142652310Y-63836993D01*
X142251817Y-63436500D01*
X142652310Y-63036007D01*
X142886000Y-62471830D01*
X142886000Y-61861170D01*
X142652310Y-61296993D01*
X142220507Y-60865190D01*
X141831360Y-60704000D01*
X142179199Y-60704000D01*
X142983000Y-61507802D01*
X142983000Y-61673874D01*
X143140569Y-62054280D01*
X143431720Y-62345431D01*
X143812126Y-62503000D01*
X144223874Y-62503000D01*
X144604280Y-62345431D01*
X144895431Y-62054280D01*
X145053000Y-61673874D01*
X145053000Y-61262126D01*
X144895431Y-60881720D01*
X144604280Y-60590569D01*
X144223874Y-60433000D01*
X144057802Y-60433000D01*
X143084331Y-59459530D01*
X143041929Y-59396071D01*
X142790537Y-59228096D01*
X142568852Y-59184000D01*
X142568847Y-59184000D01*
X142494000Y-59169112D01*
X142419153Y-59184000D01*
X116914846Y-59184000D01*
X116839999Y-59169112D01*
X116765152Y-59184000D01*
X116765148Y-59184000D01*
X116543463Y-59228096D01*
X116543461Y-59228097D01*
X116543462Y-59228097D01*
X116355526Y-59353671D01*
X116355524Y-59353673D01*
X116292071Y-59396071D01*
X116249673Y-59459525D01*
X115392028Y-60317170D01*
X115328573Y-60359570D01*
X115286173Y-60423026D01*
X115286172Y-60423027D01*
X115160598Y-60610962D01*
X115101613Y-60907499D01*
X115116502Y-60982351D01*
X115116501Y-63102790D01*
X114999070Y-63220221D01*
X114851009Y-63577674D01*
X114780311Y-55800934D01*
X114770206Y-55752441D01*
X114827842Y-55106642D01*
X114849660Y-55026887D01*
X116629000Y-55026887D01*
X116629000Y-55717113D01*
X116893138Y-56354799D01*
X117381201Y-56842862D01*
X118018887Y-57107000D01*
X118709113Y-57107000D01*
X119346799Y-56842862D01*
X119834862Y-56354799D01*
X120099000Y-55717113D01*
X120099000Y-55026887D01*
X119834862Y-54389201D01*
X119346799Y-53901138D01*
X118709113Y-53637000D01*
X118018887Y-53637000D01*
X117381201Y-53901138D01*
X116893138Y-54389201D01*
X116629000Y-55026887D01*
X114849660Y-55026887D01*
X115032723Y-54357723D01*
X115366986Y-53656928D01*
X115820069Y-53026395D01*
X116377645Y-52486066D01*
X117022099Y-52053011D01*
X117733044Y-51740927D01*
X118493493Y-51558360D01*
X119152031Y-51510000D01*
X175421579Y-51510000D01*
X175222182Y-51709397D01*
X175222182Y-51709397D01*
G37*
X175222182Y-51709397D02*
X175057000Y-52108180D01*
X175057000Y-52539820D01*
X175222182Y-52938603D01*
X175527397Y-53243818D01*
X175926180Y-53409000D01*
X176357820Y-53409000D01*
X176756603Y-53243818D01*
X177061818Y-52938603D01*
X177227000Y-52539820D01*
X177227000Y-52108180D01*
X177061818Y-51709397D01*
X176862421Y-51510000D01*
X177721579Y-51510000D01*
X177522182Y-51709397D01*
X177357000Y-52108180D01*
X177357000Y-52539820D01*
X177522182Y-52938603D01*
X177827397Y-53243818D01*
X178226180Y-53409000D01*
X178657820Y-53409000D01*
X179056603Y-53243818D01*
X179361818Y-52938603D01*
X179527000Y-52539820D01*
X179527000Y-52108180D01*
X179361818Y-51709397D01*
X179162421Y-51510000D01*
X185134382Y-51510000D01*
X185939358Y-51581842D01*
X186688277Y-51786723D01*
X187389072Y-52120986D01*
X188019605Y-52574069D01*
X188559934Y-53131645D01*
X188992989Y-53776099D01*
X189305073Y-54487044D01*
X189487640Y-55247493D01*
X189523987Y-55742447D01*
X189510373Y-55814297D01*
X189765689Y-83899067D01*
X189775794Y-83947559D01*
X189718158Y-84593359D01*
X189513277Y-85342277D01*
X189179013Y-86043075D01*
X188725931Y-86673605D01*
X188168354Y-87213935D01*
X187523901Y-87646989D01*
X186812956Y-87959073D01*
X186052506Y-88141640D01*
X185393968Y-88190000D01*
X119411618Y-88190000D01*
X118606641Y-88118158D01*
X117857723Y-87913277D01*
X117156925Y-87579013D01*
X116526395Y-87125931D01*
X115986065Y-86568354D01*
X115553011Y-85923901D01*
X115240927Y-85212956D01*
X115058360Y-84452506D01*
X115023874Y-83982887D01*
X116629000Y-83982887D01*
X116629000Y-84673113D01*
X116893138Y-85310799D01*
X117381201Y-85798862D01*
X118018887Y-86063000D01*
X118709113Y-86063000D01*
X119346799Y-85798862D01*
X119547661Y-85598000D01*
X173237908Y-85598000D01*
X173353161Y-86177418D01*
X173681375Y-86668625D01*
X174172582Y-86996839D01*
X174605744Y-87083000D01*
X174898256Y-87083000D01*
X175331418Y-86996839D01*
X175822625Y-86668625D01*
X176022000Y-86370239D01*
X176221375Y-86668625D01*
X176712582Y-86996839D01*
X177145744Y-87083000D01*
X177438256Y-87083000D01*
X177871418Y-86996839D01*
X178362625Y-86668625D01*
X178575843Y-86349522D01*
X178636817Y-86479358D01*
X179065076Y-86869645D01*
X179475110Y-87039476D01*
X179705000Y-86918155D01*
X179705000Y-85725000D01*
X179685000Y-85725000D01*
X179685000Y-85471000D01*
X179705000Y-85471000D01*
X179705000Y-84277845D01*
X179959000Y-84277845D01*
X179959000Y-85471000D01*
X179979000Y-85471000D01*
X179979000Y-85725000D01*
X179959000Y-85725000D01*
X179959000Y-86918155D01*
X180188890Y-87039476D01*
X180598924Y-86869645D01*
X180795372Y-86690615D01*
X180806098Y-86744536D01*
X180974072Y-86995928D01*
X181225464Y-87163902D01*
X181522001Y-87222887D01*
X181818538Y-87163902D01*
X182005255Y-87039142D01*
X182225744Y-87083000D01*
X182518256Y-87083000D01*
X182951418Y-86996839D01*
X183442625Y-86668625D01*
X183631209Y-86386389D01*
X183653078Y-86439185D01*
X184070815Y-86856922D01*
X184616615Y-87083000D01*
X185207385Y-87083000D01*
X185753185Y-86856922D01*
X186170922Y-86439185D01*
X186397000Y-85893385D01*
X186397000Y-85302615D01*
X186170922Y-84756815D01*
X185753185Y-84339078D01*
X185207385Y-84113000D01*
X184616615Y-84113000D01*
X184070815Y-84339078D01*
X183653078Y-84756815D01*
X183631209Y-84809611D01*
X183442625Y-84527375D01*
X182951418Y-84199161D01*
X182518256Y-84113000D01*
X182225744Y-84113000D01*
X181792582Y-84199161D01*
X181301375Y-84527375D01*
X181088157Y-84846478D01*
X181027183Y-84716642D01*
X180598924Y-84326355D01*
X180188890Y-84156524D01*
X179959000Y-84277845D01*
X179705000Y-84277845D01*
X179475110Y-84156524D01*
X179065076Y-84326355D01*
X178636817Y-84716642D01*
X178575843Y-84846478D01*
X178362625Y-84527375D01*
X178052000Y-84319822D01*
X178052000Y-82042619D01*
X178201127Y-81819436D01*
X178269440Y-81476001D01*
X178269440Y-80575999D01*
X178201127Y-80232564D01*
X178006586Y-79941414D01*
X177972873Y-79918887D01*
X183939000Y-79918887D01*
X183939000Y-80609113D01*
X184203138Y-81246799D01*
X184691201Y-81734862D01*
X185328887Y-81999000D01*
X186019113Y-81999000D01*
X186656799Y-81734862D01*
X187144862Y-81246799D01*
X187409000Y-80609113D01*
X187409000Y-79918887D01*
X187144862Y-79281201D01*
X186656799Y-78793138D01*
X186019113Y-78529000D01*
X185328887Y-78529000D01*
X184691201Y-78793138D01*
X184203138Y-79281201D01*
X183939000Y-79918887D01*
X177972873Y-79918887D01*
X177715436Y-79746873D01*
X177372001Y-79678560D01*
X176721999Y-79678560D01*
X176378564Y-79746873D01*
X176087414Y-79941414D01*
X176022000Y-80039313D01*
X175956586Y-79941414D01*
X175665436Y-79746873D01*
X175322001Y-79678560D01*
X174671999Y-79678560D01*
X174328564Y-79746873D01*
X174037414Y-79941414D01*
X173842873Y-80232564D01*
X173774560Y-80575999D01*
X173774560Y-81476001D01*
X173842873Y-81819436D01*
X173917001Y-81930376D01*
X173917000Y-84369935D01*
X173681375Y-84527375D01*
X173353161Y-85018582D01*
X173237908Y-85598000D01*
X119547661Y-85598000D01*
X119834862Y-85310799D01*
X120099000Y-84673113D01*
X120099000Y-83982887D01*
X119834862Y-83345201D01*
X119346799Y-82857138D01*
X118709113Y-82593000D01*
X118018887Y-82593000D01*
X117381201Y-82857138D01*
X116893138Y-83345201D01*
X116629000Y-83982887D01*
X115023874Y-83982887D01*
X115022013Y-83957553D01*
X115035627Y-83885703D01*
X114855262Y-64045598D01*
X114999070Y-64392781D01*
X115290221Y-64683932D01*
X115670627Y-64841501D01*
X116082375Y-64841501D01*
X116462781Y-64683932D01*
X116753932Y-64392781D01*
X116911501Y-64012375D01*
X116911501Y-63600627D01*
X116753932Y-63220221D01*
X116636501Y-63102790D01*
X116636501Y-61222301D01*
X117154802Y-60704000D01*
X118010640Y-60704000D01*
X117621493Y-60865190D01*
X117189690Y-61296993D01*
X116956000Y-61861170D01*
X116956000Y-62471830D01*
X117189690Y-63036007D01*
X117590183Y-63436500D01*
X117189690Y-63836993D01*
X116956000Y-64401170D01*
X116956000Y-65011830D01*
X117189690Y-65576007D01*
X117590183Y-65976500D01*
X117189690Y-66376993D01*
X116956000Y-66941170D01*
X116956000Y-67551830D01*
X117189690Y-68116007D01*
X117590183Y-68516500D01*
X117189690Y-68916993D01*
X116956000Y-69481170D01*
X116956000Y-70091830D01*
X117189690Y-70656007D01*
X117590183Y-71056500D01*
X117189690Y-71456993D01*
X116956000Y-72021170D01*
X116956000Y-72631830D01*
X117189690Y-73196007D01*
X117590183Y-73596500D01*
X117189690Y-73996993D01*
X116956000Y-74561170D01*
X116956000Y-75171830D01*
X117189690Y-75736007D01*
X117590183Y-76136500D01*
X117189690Y-76536993D01*
X116956000Y-77101170D01*
X116956000Y-77711830D01*
X117189690Y-78276007D01*
X117590183Y-78676500D01*
X117189690Y-79076993D01*
X116956000Y-79641170D01*
X116956000Y-80251830D01*
X117189690Y-80816007D01*
X117621493Y-81247810D01*
X118185670Y-81481500D01*
X118796330Y-81481500D01*
X119360507Y-81247810D01*
X119792310Y-80816007D01*
X120026000Y-80251830D01*
X120026000Y-79641170D01*
X119792310Y-79076993D01*
X119391817Y-78676500D01*
X119792310Y-78276007D01*
X120026000Y-77711830D01*
X120026000Y-77101170D01*
X119792310Y-76536993D01*
X119391817Y-76136500D01*
X119792310Y-75736007D01*
X120026000Y-75171830D01*
X120026000Y-74561170D01*
X119792310Y-73996993D01*
X119391817Y-73596500D01*
X119792310Y-73196007D01*
X120026000Y-72631830D01*
X120026000Y-72021170D01*
X119792310Y-71456993D01*
X119391817Y-71056500D01*
X119792310Y-70656007D01*
X120026000Y-70091830D01*
X120026000Y-69481170D01*
X119792310Y-68916993D01*
X119391817Y-68516500D01*
X119792310Y-68116007D01*
X120026000Y-67551830D01*
X120026000Y-66941170D01*
X119792310Y-66376993D01*
X119391817Y-65976500D01*
X119792310Y-65576007D01*
X120026000Y-65011830D01*
X120026000Y-64401170D01*
X119792310Y-63836993D01*
X119391817Y-63436500D01*
X119792310Y-63036007D01*
X120026000Y-62471830D01*
X120026000Y-61861170D01*
X119792310Y-61296993D01*
X119360507Y-60865190D01*
X118971360Y-60704000D01*
X140870640Y-60704000D01*
X140481493Y-60865190D01*
X140049690Y-61296993D01*
X139816000Y-61861170D01*
X139816000Y-62471830D01*
X140049690Y-63036007D01*
X140450183Y-63436500D01*
X140049690Y-63836993D01*
X139816000Y-64401170D01*
X139816000Y-65011830D01*
X140049690Y-65576007D01*
X140450183Y-65976500D01*
X140049690Y-66376993D01*
X139816000Y-66941170D01*
X139816000Y-67551830D01*
X140049690Y-68116007D01*
X140450183Y-68516500D01*
X140049690Y-68916993D01*
X139816000Y-69481170D01*
X139816000Y-70091830D01*
X140049690Y-70656007D01*
X140450183Y-71056500D01*
X140049690Y-71456993D01*
X139816000Y-72021170D01*
X139816000Y-72631830D01*
X139908441Y-72855001D01*
X137146710Y-72855001D01*
X137029279Y-72737570D01*
X136648873Y-72580001D01*
X136237125Y-72580001D01*
X135856719Y-72737570D01*
X135565568Y-73028721D01*
X135407999Y-73409127D01*
X135407999Y-73820875D01*
X135565568Y-74201281D01*
X135856719Y-74492432D01*
X136237125Y-74650001D01*
X136648873Y-74650001D01*
X137029279Y-74492432D01*
X137146710Y-74375001D01*
X139893114Y-74375001D01*
X139816000Y-74561170D01*
X139816000Y-75171830D01*
X140049690Y-75736007D01*
X140481493Y-76167810D01*
X140501115Y-76175938D01*
X140450446Y-76326341D01*
X141351000Y-77226895D01*
X141365143Y-77212753D01*
X141544748Y-77392358D01*
X141530605Y-77406500D01*
X142431159Y-78307054D01*
X142687643Y-78220648D01*
X142897458Y-77647164D01*
X142871839Y-77037040D01*
X142821289Y-76915001D01*
X145253416Y-76915001D01*
X145150000Y-77164670D01*
X145150000Y-77775330D01*
X145383690Y-78339507D01*
X145784183Y-78740000D01*
X145383690Y-79140493D01*
X145150000Y-79704670D01*
X145150000Y-80315330D01*
X145383690Y-80879507D01*
X145678182Y-81173999D01*
X142294318Y-81173999D01*
X142652310Y-80816007D01*
X142886000Y-80251830D01*
X142886000Y-79641170D01*
X142652310Y-79076993D01*
X142220507Y-78645190D01*
X142200885Y-78637062D01*
X142251554Y-78486659D01*
X141351000Y-77586105D01*
X140450446Y-78486659D01*
X140501115Y-78637062D01*
X140481493Y-78645190D01*
X140049690Y-79076993D01*
X139816000Y-79641170D01*
X139816000Y-80251830D01*
X140049690Y-80816007D01*
X140407682Y-81173999D01*
X134131000Y-81173999D01*
X134131000Y-81065625D01*
X133973431Y-80685219D01*
X133682280Y-80394068D01*
X133301874Y-80236499D01*
X132890126Y-80236499D01*
X132509720Y-80394068D01*
X132231571Y-80672217D01*
X132057036Y-80555597D01*
X131835351Y-80511501D01*
X131835346Y-80511501D01*
X131760499Y-80496613D01*
X131685652Y-80511501D01*
X127306303Y-80511501D01*
X125736398Y-78941596D01*
X125788071Y-78963000D01*
X126179929Y-78963000D01*
X126541958Y-78813042D01*
X126542000Y-78813000D01*
X127905645Y-78813000D01*
X128072414Y-79062586D01*
X128363564Y-79257127D01*
X128706999Y-79325440D01*
X129357001Y-79325440D01*
X129700436Y-79257127D01*
X129991586Y-79062586D01*
X130057000Y-78964687D01*
X130122414Y-79062586D01*
X130413564Y-79257127D01*
X130756999Y-79325440D01*
X131407001Y-79325440D01*
X131750436Y-79257127D01*
X132041586Y-79062586D01*
X132236127Y-78771436D01*
X132304440Y-78428001D01*
X132304440Y-77527999D01*
X132236127Y-77184564D01*
X132223614Y-77165836D01*
X139804542Y-77165836D01*
X139830161Y-77775960D01*
X140014357Y-78220648D01*
X140270841Y-78307054D01*
X141171395Y-77406500D01*
X140270841Y-76505946D01*
X140014357Y-76592352D01*
X139804542Y-77165836D01*
X132223614Y-77165836D01*
X132041586Y-76893414D01*
X131842000Y-76760054D01*
X131842000Y-75131946D01*
X132041586Y-74998586D01*
X132236127Y-74707436D01*
X132304440Y-74364001D01*
X132304440Y-73463999D01*
X132236127Y-73120564D01*
X132041586Y-72829414D01*
X131849162Y-72700840D01*
X131856888Y-72661999D01*
X131842000Y-72587152D01*
X131842000Y-72587148D01*
X131797904Y-72365463D01*
X131756102Y-72302902D01*
X131672329Y-72177526D01*
X131672327Y-72177524D01*
X131629929Y-72114071D01*
X131566476Y-72071673D01*
X131146330Y-71651529D01*
X131103929Y-71588071D01*
X130852537Y-71420096D01*
X130630852Y-71376000D01*
X130630847Y-71376000D01*
X130556000Y-71361112D01*
X130481153Y-71376000D01*
X127060803Y-71376000D01*
X126569802Y-70885000D01*
X126951874Y-70885000D01*
X127332280Y-70727431D01*
X127449711Y-70610000D01*
X127871222Y-70610000D01*
X127877873Y-70643436D01*
X128072414Y-70934586D01*
X128363564Y-71129127D01*
X128706999Y-71197440D01*
X129357001Y-71197440D01*
X129700436Y-71129127D01*
X129991586Y-70934586D01*
X130057000Y-70836687D01*
X130122414Y-70934586D01*
X130413564Y-71129127D01*
X130756999Y-71197440D01*
X131407001Y-71197440D01*
X131750436Y-71129127D01*
X132041586Y-70934586D01*
X132236127Y-70643436D01*
X132304440Y-70300001D01*
X132304440Y-69399999D01*
X132236127Y-69056564D01*
X132041586Y-68765414D01*
X131824000Y-68620027D01*
X131824000Y-67511946D01*
X132023586Y-67378586D01*
X132218127Y-67087436D01*
X132286440Y-66744001D01*
X132286440Y-65843999D01*
X132218127Y-65500564D01*
X132023586Y-65209414D01*
X131732436Y-65014873D01*
X131389001Y-64946560D01*
X130791362Y-64946560D01*
X127336331Y-61491530D01*
X127293929Y-61428071D01*
X127042537Y-61260096D01*
X126820852Y-61216000D01*
X126820847Y-61216000D01*
X126746000Y-61201112D01*
X126671153Y-61216000D01*
X121861711Y-61216000D01*
X121744280Y-61098569D01*
X121363874Y-60941000D01*
X120952126Y-60941000D01*
X120571720Y-61098569D01*
X120280569Y-61389720D01*
X120123000Y-61770126D01*
X120123000Y-62181874D01*
X120280569Y-62562280D01*
X120571720Y-62853431D01*
X120952126Y-63011000D01*
X121363874Y-63011000D01*
X121744280Y-62853431D01*
X121861711Y-62736000D01*
X126431199Y-62736000D01*
X127541477Y-63846278D01*
X127429720Y-63892569D01*
X127138569Y-64183720D01*
X126981000Y-64564126D01*
X126981000Y-64975874D01*
X127138569Y-65356280D01*
X127281540Y-65499251D01*
X127288452Y-65534000D01*
X126820846Y-65534000D01*
X126745999Y-65519112D01*
X126671152Y-65534000D01*
X126671148Y-65534000D01*
X126449463Y-65578096D01*
X126427851Y-65592537D01*
X126261526Y-65703671D01*
X126261524Y-65703673D01*
X126198071Y-65746071D01*
X126155673Y-65809524D01*
X124737530Y-67227669D01*
X124674071Y-67270071D01*
X124506096Y-67521464D01*
X124462000Y-67743149D01*
X124462000Y-67743153D01*
X124447112Y-67818000D01*
X124462000Y-67892847D01*
X124462001Y-70537148D01*
X124447112Y-70612000D01*
X124462001Y-70686852D01*
X124470073Y-70727431D01*
X124506097Y-70908537D01*
X124626472Y-71088690D01*
X124674072Y-71159929D01*
X124737528Y-71202329D01*
X126155673Y-72620476D01*
X126198071Y-72683929D01*
X126261524Y-72726327D01*
X126261526Y-72726329D01*
X126386902Y-72810102D01*
X126449463Y-72851904D01*
X126585683Y-72879000D01*
X126286126Y-72879000D01*
X125905720Y-73036569D01*
X125614569Y-73327720D01*
X125457000Y-73708126D01*
X125457000Y-74119874D01*
X125614569Y-74500280D01*
X125905720Y-74791431D01*
X126286126Y-74949000D01*
X126697874Y-74949000D01*
X127078280Y-74791431D01*
X127195711Y-74674000D01*
X127871222Y-74674000D01*
X127877873Y-74707436D01*
X128072414Y-74998586D01*
X128363564Y-75193127D01*
X128706999Y-75261440D01*
X129357001Y-75261440D01*
X129700436Y-75193127D01*
X129991586Y-74998586D01*
X130057000Y-74900687D01*
X130122414Y-74998586D01*
X130322000Y-75131946D01*
X130322001Y-76760054D01*
X130122414Y-76893414D01*
X130057000Y-76991313D01*
X129991586Y-76893414D01*
X129700436Y-76698873D01*
X129357001Y-76630560D01*
X128706999Y-76630560D01*
X128363564Y-76698873D01*
X128072414Y-76893414D01*
X127905645Y-77143000D01*
X126542000Y-77143000D01*
X126541958Y-77142958D01*
X126179929Y-76993000D01*
X125788071Y-76993000D01*
X125426042Y-77142958D01*
X125148958Y-77420042D01*
X124999000Y-77782071D01*
X124999000Y-78173929D01*
X125020404Y-78225603D01*
X123209000Y-76414199D01*
X123209000Y-76248126D01*
X123051431Y-75867720D01*
X122760280Y-75576569D01*
X122379874Y-75419000D01*
X121968126Y-75419000D01*
X121587720Y-75576569D01*
X121296569Y-75867720D01*
X121139000Y-76248126D01*
X121139000Y-76659874D01*
X121296569Y-77040280D01*
X121587720Y-77331431D01*
X121968126Y-77489000D01*
X122134199Y-77489000D01*
X126401171Y-81755973D01*
X126443572Y-81819430D01*
X126694964Y-81987405D01*
X126916649Y-82031501D01*
X126916653Y-82031501D01*
X126991500Y-82046389D01*
X127066347Y-82031501D01*
X131445698Y-82031501D01*
X132448669Y-83034473D01*
X132491069Y-83097929D01*
X132742461Y-83265904D01*
X132964146Y-83310000D01*
X132964150Y-83310000D01*
X133038998Y-83324888D01*
X133113846Y-83310000D01*
X147728153Y-83310000D01*
X147803000Y-83324888D01*
X147877847Y-83310000D01*
X147877852Y-83310000D01*
X148099537Y-83265904D01*
X148350929Y-83097929D01*
X148393331Y-83034470D01*
X151723131Y-79704670D01*
X168010000Y-79704670D01*
X168010000Y-80315330D01*
X168243690Y-80879507D01*
X168675493Y-81311310D01*
X169239670Y-81545000D01*
X169850330Y-81545000D01*
X170414507Y-81311310D01*
X170846310Y-80879507D01*
X171080000Y-80315330D01*
X171080000Y-79704670D01*
X170846310Y-79140493D01*
X170414507Y-78708690D01*
X170394885Y-78700562D01*
X170445554Y-78550159D01*
X169545000Y-77649605D01*
X168644446Y-78550159D01*
X168695115Y-78700562D01*
X168675493Y-78708690D01*
X168243690Y-79140493D01*
X168010000Y-79704670D01*
X151723131Y-79704670D01*
X154198465Y-77229336D01*
X167998542Y-77229336D01*
X168024161Y-77839460D01*
X168208357Y-78284148D01*
X168464841Y-78370554D01*
X169365395Y-77470000D01*
X169724605Y-77470000D01*
X170625159Y-78370554D01*
X170881643Y-78284148D01*
X171091458Y-77710664D01*
X171065839Y-77100540D01*
X170881643Y-76655852D01*
X170625159Y-76569446D01*
X169724605Y-77470000D01*
X169365395Y-77470000D01*
X168464841Y-76569446D01*
X168208357Y-76655852D01*
X167998542Y-77229336D01*
X154198465Y-77229336D01*
X160274362Y-71153440D01*
X160447000Y-71153440D01*
X160582001Y-71126587D01*
X160582001Y-71155131D01*
X160078133Y-71659000D01*
X160078071Y-71659000D01*
X159716042Y-71808958D01*
X159438958Y-72086042D01*
X159289000Y-72448071D01*
X159289000Y-72839929D01*
X159438958Y-73201958D01*
X159716042Y-73479042D01*
X160078071Y-73629000D01*
X160469929Y-73629000D01*
X160831958Y-73479042D01*
X161109042Y-73201958D01*
X161259000Y-72839929D01*
X161259000Y-72839867D01*
X161949282Y-72149585D01*
X162019001Y-72103001D01*
X162203552Y-71826801D01*
X162252000Y-71583237D01*
X162252000Y-71583234D01*
X162268357Y-71501001D01*
X162252000Y-71418768D01*
X162252000Y-71126587D01*
X162387000Y-71153440D01*
X162987000Y-71153440D01*
X163234765Y-71104157D01*
X163444809Y-70963809D01*
X163585157Y-70753765D01*
X163634440Y-70506000D01*
X163634440Y-69006000D01*
X163585157Y-68758235D01*
X163444809Y-68548191D01*
X163234765Y-68407843D01*
X162987000Y-68358560D01*
X162387000Y-68358560D01*
X162252000Y-68385413D01*
X162252000Y-68281232D01*
X162268357Y-68198999D01*
X162252000Y-68116764D01*
X162252000Y-68116763D01*
X162203552Y-67873199D01*
X162019001Y-67596999D01*
X161949283Y-67550415D01*
X161684587Y-67285720D01*
X161638001Y-67215999D01*
X161361801Y-67031448D01*
X161118237Y-66983000D01*
X161118233Y-66983000D01*
X161036000Y-66966643D01*
X160953767Y-66983000D01*
X154667232Y-66983000D01*
X154584999Y-66966643D01*
X154502766Y-66983000D01*
X154502763Y-66983000D01*
X154259199Y-67031448D01*
X154225448Y-67054000D01*
X153982999Y-67215999D01*
X153936416Y-67285715D01*
X153264718Y-67957415D01*
X153195000Y-68003999D01*
X153148416Y-68073717D01*
X153010448Y-68280200D01*
X152945643Y-68606000D01*
X152958242Y-68669339D01*
X152898843Y-68758235D01*
X152849560Y-69006000D01*
X152849560Y-69548761D01*
X152652000Y-69351201D01*
X152652000Y-61580848D01*
X152666888Y-61506000D01*
X152652000Y-61431152D01*
X152652000Y-61431148D01*
X152607904Y-61209463D01*
X152607904Y-61209462D01*
X152482329Y-61021527D01*
X152439929Y-60958071D01*
X152376473Y-60915671D01*
X149201724Y-57740923D01*
X149236127Y-57689436D01*
X149304440Y-57346001D01*
X149304440Y-56445999D01*
X150211560Y-56445999D01*
X150211560Y-57346001D01*
X150279873Y-57689436D01*
X150474414Y-57980586D01*
X150765564Y-58175127D01*
X151108999Y-58243440D01*
X151759001Y-58243440D01*
X152102436Y-58175127D01*
X152393586Y-57980586D01*
X152459000Y-57882687D01*
X152524414Y-57980586D01*
X152815564Y-58175127D01*
X152910000Y-58193911D01*
X152910001Y-63341536D01*
X152898843Y-63358235D01*
X152849560Y-63606000D01*
X152849560Y-65106000D01*
X152898843Y-65353765D01*
X153039191Y-65563809D01*
X153249235Y-65704157D01*
X153497000Y-65753440D01*
X154097000Y-65753440D01*
X154344765Y-65704157D01*
X154432000Y-65645868D01*
X154519235Y-65704157D01*
X154767000Y-65753440D01*
X155367000Y-65753440D01*
X155614765Y-65704157D01*
X155702000Y-65645868D01*
X155789235Y-65704157D01*
X156037000Y-65753440D01*
X156637000Y-65753440D01*
X156884765Y-65704157D01*
X156972000Y-65645868D01*
X157059235Y-65704157D01*
X157307000Y-65753440D01*
X157907000Y-65753440D01*
X158154765Y-65704157D01*
X158242000Y-65645868D01*
X158329235Y-65704157D01*
X158577000Y-65753440D01*
X159177000Y-65753440D01*
X159424765Y-65704157D01*
X159512000Y-65645868D01*
X159599235Y-65704157D01*
X159847000Y-65753440D01*
X160447000Y-65753440D01*
X160694765Y-65704157D01*
X160782000Y-65645868D01*
X160869235Y-65704157D01*
X161117000Y-65753440D01*
X161717000Y-65753440D01*
X161964765Y-65704157D01*
X162043972Y-65651232D01*
X162260690Y-65741000D01*
X162401250Y-65741000D01*
X162560000Y-65582250D01*
X162560000Y-64483000D01*
X162814000Y-64483000D01*
X162814000Y-65582250D01*
X162972750Y-65741000D01*
X163113310Y-65741000D01*
X163346699Y-65644327D01*
X163525327Y-65465698D01*
X163622000Y-65232309D01*
X163622000Y-64641750D01*
X163463250Y-64483000D01*
X162814000Y-64483000D01*
X162560000Y-64483000D01*
X162540000Y-64483000D01*
X162540000Y-64229000D01*
X162560000Y-64229000D01*
X162560000Y-63129750D01*
X162814000Y-63129750D01*
X162814000Y-64229000D01*
X163463250Y-64229000D01*
X163622000Y-64070250D01*
X163622000Y-63479691D01*
X163525327Y-63246302D01*
X163346699Y-63067673D01*
X163113310Y-62971000D01*
X162972750Y-62971000D01*
X162814000Y-63129750D01*
X162560000Y-63129750D01*
X162401250Y-62971000D01*
X162260690Y-62971000D01*
X162043972Y-63060768D01*
X161964765Y-63007843D01*
X161717000Y-62958560D01*
X161117000Y-62958560D01*
X160869235Y-63007843D01*
X160782000Y-63066132D01*
X160694765Y-63007843D01*
X160447000Y-62958560D01*
X159847000Y-62958560D01*
X159599235Y-63007843D01*
X159512000Y-63066132D01*
X159424765Y-63007843D01*
X159177000Y-62958560D01*
X158577000Y-62958560D01*
X158367000Y-63000331D01*
X158367000Y-62925801D01*
X159368131Y-61924670D01*
X168010000Y-61924670D01*
X168010000Y-62535330D01*
X168243690Y-63099507D01*
X168644183Y-63500000D01*
X168243690Y-63900493D01*
X168010000Y-64464670D01*
X168010000Y-65075330D01*
X168243690Y-65639507D01*
X168644183Y-66040000D01*
X168243690Y-66440493D01*
X168010000Y-67004670D01*
X168010000Y-67615330D01*
X168243690Y-68179507D01*
X168644183Y-68580000D01*
X168243690Y-68980493D01*
X168010000Y-69544670D01*
X168010000Y-70155330D01*
X168243690Y-70719507D01*
X168644183Y-71120000D01*
X168243690Y-71520493D01*
X168010000Y-72084670D01*
X168010000Y-72695330D01*
X168243690Y-73259507D01*
X168644183Y-73660000D01*
X168243690Y-74060493D01*
X168010000Y-74624670D01*
X168010000Y-75235330D01*
X168243690Y-75799507D01*
X168675493Y-76231310D01*
X168695115Y-76239438D01*
X168644446Y-76389841D01*
X169545000Y-77290395D01*
X170445554Y-76389841D01*
X170394885Y-76239438D01*
X170414507Y-76231310D01*
X170846310Y-75799507D01*
X171080000Y-75235330D01*
X171080000Y-74624670D01*
X170846310Y-74060493D01*
X170445817Y-73660000D01*
X170846310Y-73259507D01*
X171080000Y-72695330D01*
X171080000Y-72084670D01*
X170846310Y-71520493D01*
X170445817Y-71120000D01*
X170846310Y-70719507D01*
X171080000Y-70155330D01*
X171080000Y-69544670D01*
X170846310Y-68980493D01*
X170445817Y-68580000D01*
X170846310Y-68179507D01*
X171080000Y-67615330D01*
X171080000Y-67004670D01*
X170846310Y-66440493D01*
X170445817Y-66040000D01*
X170846310Y-65639507D01*
X171080000Y-65075330D01*
X171080000Y-64464670D01*
X170846310Y-63900493D01*
X170445817Y-63500000D01*
X170846310Y-63099507D01*
X171080000Y-62535330D01*
X171080000Y-61924670D01*
X170846310Y-61360493D01*
X170414507Y-60928690D01*
X169850330Y-60695000D01*
X169239670Y-60695000D01*
X168675493Y-60928690D01*
X168243690Y-61360493D01*
X168010000Y-61924670D01*
X159368131Y-61924670D01*
X160588802Y-60704000D01*
X166567153Y-60704000D01*
X166642000Y-60718888D01*
X166716847Y-60704000D01*
X166716852Y-60704000D01*
X166938537Y-60659904D01*
X167189929Y-60491929D01*
X167232331Y-60428470D01*
X169417362Y-58243440D01*
X170015001Y-58243440D01*
X170358436Y-58175127D01*
X170649586Y-57980586D01*
X170844127Y-57689436D01*
X170912440Y-57346001D01*
X170912440Y-56445999D01*
X170844127Y-56102564D01*
X170649586Y-55811414D01*
X170358436Y-55616873D01*
X170015001Y-55548560D01*
X169364999Y-55548560D01*
X169021564Y-55616873D01*
X168730414Y-55811414D01*
X168665000Y-55909313D01*
X168599586Y-55811414D01*
X168582887Y-55800256D01*
X168675000Y-55577874D01*
X168675000Y-55166126D01*
X168617326Y-55026887D01*
X183939000Y-55026887D01*
X183939000Y-55717113D01*
X184203138Y-56354799D01*
X184691201Y-56842862D01*
X185328887Y-57107000D01*
X186019113Y-57107000D01*
X186656799Y-56842862D01*
X187144862Y-56354799D01*
X187409000Y-55717113D01*
X187409000Y-55026887D01*
X187144862Y-54389201D01*
X186656799Y-53901138D01*
X186019113Y-53637000D01*
X185328887Y-53637000D01*
X184691201Y-53901138D01*
X184203138Y-54389201D01*
X183939000Y-55026887D01*
X168617326Y-55026887D01*
X168517431Y-54785720D01*
X168226280Y-54494569D01*
X167845874Y-54337000D01*
X167434126Y-54337000D01*
X167053720Y-54494569D01*
X166762569Y-54785720D01*
X166605000Y-55166126D01*
X166605000Y-55577874D01*
X166697113Y-55800256D01*
X166680414Y-55811414D01*
X166485873Y-56102564D01*
X166417560Y-56445999D01*
X166417560Y-57346001D01*
X166485873Y-57689436D01*
X166680414Y-57980586D01*
X166971564Y-58175127D01*
X167275596Y-58235602D01*
X166327199Y-59184000D01*
X163378801Y-59184000D01*
X164319362Y-58243440D01*
X164613001Y-58243440D01*
X164956436Y-58175127D01*
X165247586Y-57980586D01*
X165442127Y-57689436D01*
X165510440Y-57346001D01*
X165510440Y-56445999D01*
X165442127Y-56102564D01*
X165247586Y-55811414D01*
X164956436Y-55616873D01*
X164613001Y-55548560D01*
X163962999Y-55548560D01*
X163619564Y-55616873D01*
X163328414Y-55811414D01*
X163263000Y-55909313D01*
X163197586Y-55811414D01*
X163035206Y-55702915D01*
X163087000Y-55577874D01*
X163087000Y-55166126D01*
X162929431Y-54785720D01*
X162638280Y-54494569D01*
X162257874Y-54337000D01*
X161846126Y-54337000D01*
X161465720Y-54494569D01*
X161174569Y-54785720D01*
X161017000Y-55166126D01*
X161017000Y-55577874D01*
X161174569Y-55958280D01*
X161177993Y-55961704D01*
X161083873Y-56102564D01*
X161015560Y-56445999D01*
X161015560Y-57346001D01*
X161083873Y-57689436D01*
X161278414Y-57980586D01*
X161569564Y-58175127D01*
X161912999Y-58243440D01*
X162169759Y-58243440D01*
X161737199Y-58676000D01*
X159332848Y-58676000D01*
X159258000Y-58661112D01*
X159183152Y-58676000D01*
X159183148Y-58676000D01*
X159009605Y-58710520D01*
X158961462Y-58720096D01*
X158774418Y-58845076D01*
X158710071Y-58888071D01*
X158667671Y-58951527D01*
X155852530Y-61766669D01*
X155827000Y-61783728D01*
X155827000Y-61147801D01*
X158731362Y-58243440D01*
X159211001Y-58243440D01*
X159554436Y-58175127D01*
X159845586Y-57980586D01*
X160040127Y-57689436D01*
X160108440Y-57346001D01*
X160108440Y-56445999D01*
X160040127Y-56102564D01*
X159845586Y-55811414D01*
X159554436Y-55616873D01*
X159211001Y-55548560D01*
X158560999Y-55548560D01*
X158217564Y-55616873D01*
X157926414Y-55811414D01*
X157883926Y-55875002D01*
X158007000Y-55577874D01*
X158007000Y-55166126D01*
X157849431Y-54785720D01*
X157558280Y-54494569D01*
X157177874Y-54337000D01*
X156766126Y-54337000D01*
X156385720Y-54494569D01*
X156094569Y-54785720D01*
X155937000Y-55166126D01*
X155937000Y-55577874D01*
X155999632Y-55729082D01*
X155876414Y-55811414D01*
X155681873Y-56102564D01*
X155613560Y-56445999D01*
X155613560Y-57346001D01*
X155681873Y-57689436D01*
X155876414Y-57980586D01*
X156167564Y-58175127D01*
X156510999Y-58243440D01*
X156581758Y-58243440D01*
X154582530Y-60242669D01*
X154519071Y-60285071D01*
X154430000Y-60418376D01*
X154430000Y-57989664D01*
X154443586Y-57980586D01*
X154638127Y-57689436D01*
X154706440Y-57346001D01*
X154706440Y-56445999D01*
X154638127Y-56102564D01*
X154443586Y-55811414D01*
X154152436Y-55616873D01*
X153809001Y-55548560D01*
X153158999Y-55548560D01*
X152815564Y-55616873D01*
X152673000Y-55712132D01*
X152673000Y-55420126D01*
X152515431Y-55039720D01*
X152224280Y-54748569D01*
X151843874Y-54591000D01*
X151432126Y-54591000D01*
X151051720Y-54748569D01*
X150760569Y-55039720D01*
X150603000Y-55420126D01*
X150603000Y-55725495D01*
X150474414Y-55811414D01*
X150279873Y-56102564D01*
X150211560Y-56445999D01*
X149304440Y-56445999D01*
X149236127Y-56102564D01*
X149041586Y-55811414D01*
X148750436Y-55616873D01*
X148407001Y-55548560D01*
X147756999Y-55548560D01*
X147413564Y-55616873D01*
X147122414Y-55811414D01*
X147057000Y-55909313D01*
X146991586Y-55811414D01*
X146988985Y-55809676D01*
X147085000Y-55577874D01*
X147085000Y-55166126D01*
X146927431Y-54785720D01*
X146636280Y-54494569D01*
X146255874Y-54337000D01*
X145844126Y-54337000D01*
X145463720Y-54494569D01*
X145172569Y-54785720D01*
X145015000Y-55166126D01*
X145015000Y-55577874D01*
X145103211Y-55790836D01*
X145072414Y-55811414D01*
X144877873Y-56102564D01*
X144809560Y-56445999D01*
X144809560Y-57346001D01*
X144877873Y-57689436D01*
X145072414Y-57980586D01*
X145363564Y-58175127D01*
X145706999Y-58243440D01*
X146357001Y-58243440D01*
X146700436Y-58175127D01*
X146991586Y-57980586D01*
X147057000Y-57882687D01*
X147122414Y-57980586D01*
X147413564Y-58175127D01*
X147499525Y-58192226D01*
X147534072Y-58243929D01*
X147597528Y-58286329D01*
X151132000Y-61820802D01*
X151132001Y-69591150D01*
X151117112Y-69666002D01*
X151176097Y-69962539D01*
X151299041Y-70146537D01*
X151344072Y-70213931D01*
X151407528Y-70256331D01*
X152566670Y-71415474D01*
X152609070Y-71478930D01*
X152672526Y-71521330D01*
X152860461Y-71646905D01*
X152883693Y-71651526D01*
X153082147Y-71691001D01*
X153082151Y-71691001D01*
X153156999Y-71705889D01*
X153231847Y-71691001D01*
X154267152Y-71691001D01*
X154317235Y-71700963D01*
X153163198Y-72855001D01*
X148153862Y-72855001D01*
X148220000Y-72695330D01*
X148220000Y-72084670D01*
X147986310Y-71520493D01*
X147585817Y-71120000D01*
X147986310Y-70719507D01*
X148220000Y-70155330D01*
X148220000Y-69544670D01*
X147986310Y-68980493D01*
X147585817Y-68580000D01*
X147986310Y-68179507D01*
X148220000Y-67615330D01*
X148220000Y-67004670D01*
X147986310Y-66440493D01*
X147585817Y-66040000D01*
X147986310Y-65639507D01*
X148220000Y-65075330D01*
X148220000Y-64464670D01*
X147986310Y-63900493D01*
X147585817Y-63500000D01*
X147986310Y-63099507D01*
X148220000Y-62535330D01*
X148220000Y-61924670D01*
X147986310Y-61360493D01*
X147554507Y-60928690D01*
X146990330Y-60695000D01*
X146379670Y-60695000D01*
X145815493Y-60928690D01*
X145383690Y-61360493D01*
X145150000Y-61924670D01*
X145150000Y-62535330D01*
X145383690Y-63099507D01*
X145784183Y-63500000D01*
X145383690Y-63900493D01*
X145150000Y-64464670D01*
X145150000Y-65075330D01*
X145383690Y-65639507D01*
X145784183Y-66040000D01*
X145383690Y-66440493D01*
X145150000Y-67004670D01*
X145150000Y-67615330D01*
X145383690Y-68179507D01*
X145784183Y-68580000D01*
X145383690Y-68980493D01*
X145150000Y-69544670D01*
X145150000Y-70155330D01*
X145383690Y-70719507D01*
X145784183Y-71120000D01*
X145383690Y-71520493D01*
X145150000Y-72084670D01*
X145150000Y-72695330D01*
X145216138Y-72855001D01*
X142793559Y-72855001D01*
X142886000Y-72631830D01*
X142886000Y-72021170D01*
X142652310Y-71456993D01*
X142251817Y-71056500D01*
X142652310Y-70656007D01*
X142886000Y-70091830D01*
X142886000Y-69481170D01*
X142652310Y-68916993D01*
X142251817Y-68516500D01*
X142652310Y-68116007D01*
X142886000Y-67551830D01*
X142886000Y-66941170D01*
X142652310Y-66376993D01*
X142251817Y-65976500D01*
X142652310Y-65576007D01*
X142886000Y-65011830D01*
X142886000Y-64401170D01*
X142652310Y-63836993D01*
X142251817Y-63436500D01*
X142652310Y-63036007D01*
X142886000Y-62471830D01*
X142886000Y-61861170D01*
X142652310Y-61296993D01*
X142220507Y-60865190D01*
X141831360Y-60704000D01*
X142179199Y-60704000D01*
X142983000Y-61507802D01*
X142983000Y-61673874D01*
X143140569Y-62054280D01*
X143431720Y-62345431D01*
X143812126Y-62503000D01*
X144223874Y-62503000D01*
X144604280Y-62345431D01*
X144895431Y-62054280D01*
X145053000Y-61673874D01*
X145053000Y-61262126D01*
X144895431Y-60881720D01*
X144604280Y-60590569D01*
X144223874Y-60433000D01*
X144057802Y-60433000D01*
X143084331Y-59459530D01*
X143041929Y-59396071D01*
X142790537Y-59228096D01*
X142568852Y-59184000D01*
X142568847Y-59184000D01*
X142494000Y-59169112D01*
X142419153Y-59184000D01*
X116914846Y-59184000D01*
X116839999Y-59169112D01*
X116765152Y-59184000D01*
X116765148Y-59184000D01*
X116543463Y-59228096D01*
X116543461Y-59228097D01*
X116543462Y-59228097D01*
X116355526Y-59353671D01*
X116355524Y-59353673D01*
X116292071Y-59396071D01*
X116249673Y-59459525D01*
X115392028Y-60317170D01*
X115328573Y-60359570D01*
X115286173Y-60423026D01*
X115286172Y-60423027D01*
X115160598Y-60610962D01*
X115101613Y-60907499D01*
X115116502Y-60982351D01*
X115116501Y-63102790D01*
X114999070Y-63220221D01*
X114851009Y-63577674D01*
X114780311Y-55800934D01*
X114770206Y-55752441D01*
X114827842Y-55106642D01*
X114849660Y-55026887D01*
X116629000Y-55026887D01*
X116629000Y-55717113D01*
X116893138Y-56354799D01*
X117381201Y-56842862D01*
X118018887Y-57107000D01*
X118709113Y-57107000D01*
X119346799Y-56842862D01*
X119834862Y-56354799D01*
X120099000Y-55717113D01*
X120099000Y-55026887D01*
X119834862Y-54389201D01*
X119346799Y-53901138D01*
X118709113Y-53637000D01*
X118018887Y-53637000D01*
X117381201Y-53901138D01*
X116893138Y-54389201D01*
X116629000Y-55026887D01*
X114849660Y-55026887D01*
X115032723Y-54357723D01*
X115366986Y-53656928D01*
X115820069Y-53026395D01*
X116377645Y-52486066D01*
X117022099Y-52053011D01*
X117733044Y-51740927D01*
X118493493Y-51558360D01*
X119152031Y-51510000D01*
X175421579Y-51510000D01*
X175222182Y-51709397D01*
G04 #@! TD*
M02*
