M48
;DRILL file {KiCad (5.0.1-3-g963ef8bb5)} date 2019 April 05, Friday 16:27:09
;FORMAT={-:-/ absolute / inch / decimal}
FMAT,2
INCH,TZ
T1C0.0157
T2C0.0197
T3C0.0394
T4C0.0400
%
G90
G05
M72
T1
X4.5621Y-2.5121
X4.77Y-2.44
X4.81Y-3.01
X4.98Y-2.91
X4.99Y-2.75
X5.04Y-2.55
X5.24Y-3.1997
X5.3718Y-2.8982
X5.67Y-2.42
X5.75Y-2.18
X5.9693Y-2.24
X5.97Y-2.19
X6.18Y-2.18
X6.38Y-2.18
X6.6Y-2.18
T2
X4.96Y-3.07
X5.9Y-2.0604
X6.11Y-2.07
X6.31Y-2.86
X6.32Y-2.06
X6.53Y-2.07
X6.75Y-2.07
X7.11Y-2.2
T3
X6.88Y-3.37
X6.98Y-3.37
X7.08Y-3.37
X7.18Y-3.37
X7.28Y-3.37
T4
X5.775Y-2.45
X5.775Y-2.55
X5.775Y-2.65
X5.775Y-2.75
X5.775Y-2.85
X5.775Y-2.95
X5.775Y-3.05
X5.775Y-3.15
X6.675Y-2.45
X6.675Y-2.55
X6.675Y-2.65
X6.675Y-2.75
X6.675Y-2.85
X6.675Y-2.95
X6.675Y-3.05
X6.675Y-3.15
X4.665Y-2.4475
X4.665Y-2.5475
X4.665Y-2.6475
X4.665Y-2.7475
X4.665Y-2.8475
X4.665Y-2.9475
X4.665Y-3.0475
X4.665Y-3.1475
X5.565Y-2.4475
X5.565Y-2.5475
X5.565Y-2.6475
X5.565Y-2.7475
X5.565Y-2.8475
X5.565Y-2.9475
X5.565Y-3.0475
X5.565Y-3.1475
T0
M30
