G04 #@! TF.GenerationSoftware,KiCad,Pcbnew,(5.0.1-3-g963ef8bb5)*
G04 #@! TF.CreationDate,2019-04-05T16:27:06+08:00*
G04 #@! TF.ProjectId,cactus,6361637475732E6B696361645F706362,rev?*
G04 #@! TF.SameCoordinates,Original*
G04 #@! TF.FileFunction,Legend,Top*
G04 #@! TF.FilePolarity,Positive*
%FSLAX46Y46*%
G04 Gerber Fmt 4.6, Leading zero omitted, Abs format (unit mm)*
G04 Created by KiCad (PCBNEW (5.0.1-3-g963ef8bb5)) date 2019 April 05, Friday 16:27:06*
%MOMM*%
%LPD*%
G01*
G04 APERTURE LIST*
%ADD10C,0.100000*%
%ADD11C,0.200000*%
%ADD12C,0.080000*%
%ADD13C,0.150000*%
%ADD14C,0.120000*%
G04 APERTURE END LIST*
D10*
X120316857Y-79188571D02*
X121245428Y-79188571D01*
X120745428Y-79760000D01*
X120959714Y-79760000D01*
X121102571Y-79831428D01*
X121174000Y-79902857D01*
X121245428Y-80045714D01*
X121245428Y-80402857D01*
X121174000Y-80545714D01*
X121102571Y-80617142D01*
X120959714Y-80688571D01*
X120531142Y-80688571D01*
X120388285Y-80617142D01*
X120316857Y-80545714D01*
X121674000Y-79188571D02*
X122174000Y-80688571D01*
X122674000Y-79188571D01*
X123031142Y-79188571D02*
X123959714Y-79188571D01*
X123459714Y-79760000D01*
X123674000Y-79760000D01*
X123816857Y-79831428D01*
X123888285Y-79902857D01*
X123959714Y-80045714D01*
X123959714Y-80402857D01*
X123888285Y-80545714D01*
X123816857Y-80617142D01*
X123674000Y-80688571D01*
X123245428Y-80688571D01*
X123102571Y-80617142D01*
X123031142Y-80545714D01*
X135628285Y-79188571D02*
X136128285Y-80688571D01*
X136628285Y-79188571D01*
X137771142Y-80617142D02*
X137628285Y-80688571D01*
X137342571Y-80688571D01*
X137199714Y-80617142D01*
X137128285Y-80545714D01*
X137056857Y-80402857D01*
X137056857Y-79974285D01*
X137128285Y-79831428D01*
X137199714Y-79760000D01*
X137342571Y-79688571D01*
X137628285Y-79688571D01*
X137771142Y-79760000D01*
X139056857Y-80617142D02*
X138914000Y-80688571D01*
X138628285Y-80688571D01*
X138485428Y-80617142D01*
X138414000Y-80545714D01*
X138342571Y-80402857D01*
X138342571Y-79974285D01*
X138414000Y-79831428D01*
X138485428Y-79760000D01*
X138628285Y-79688571D01*
X138914000Y-79688571D01*
X139056857Y-79760000D01*
X164211142Y-76720000D02*
X164068285Y-76648571D01*
X163854000Y-76648571D01*
X163639714Y-76720000D01*
X163496857Y-76862857D01*
X163425428Y-77005714D01*
X163354000Y-77291428D01*
X163354000Y-77505714D01*
X163425428Y-77791428D01*
X163496857Y-77934285D01*
X163639714Y-78077142D01*
X163854000Y-78148571D01*
X163996857Y-78148571D01*
X164211142Y-78077142D01*
X164282571Y-78005714D01*
X164282571Y-77505714D01*
X163996857Y-77505714D01*
X164925428Y-78148571D02*
X164925428Y-76648571D01*
X165782571Y-78148571D01*
X165782571Y-76648571D01*
X166496857Y-78148571D02*
X166496857Y-76648571D01*
X166854000Y-76648571D01*
X167068285Y-76720000D01*
X167211142Y-76862857D01*
X167282571Y-77005714D01*
X167354000Y-77291428D01*
X167354000Y-77505714D01*
X167282571Y-77791428D01*
X167211142Y-77934285D01*
X167068285Y-78077142D01*
X166854000Y-78148571D01*
X166496857Y-78148571D01*
X163822285Y-79442571D02*
X164322285Y-80942571D01*
X164822285Y-79442571D01*
X165965142Y-80871142D02*
X165822285Y-80942571D01*
X165536571Y-80942571D01*
X165393714Y-80871142D01*
X165322285Y-80799714D01*
X165250857Y-80656857D01*
X165250857Y-80228285D01*
X165322285Y-80085428D01*
X165393714Y-80014000D01*
X165536571Y-79942571D01*
X165822285Y-79942571D01*
X165965142Y-80014000D01*
X167250857Y-80871142D02*
X167108000Y-80942571D01*
X166822285Y-80942571D01*
X166679428Y-80871142D01*
X166608000Y-80799714D01*
X166536571Y-80656857D01*
X166536571Y-80228285D01*
X166608000Y-80085428D01*
X166679428Y-80014000D01*
X166822285Y-79942571D01*
X167108000Y-79942571D01*
X167250857Y-80014000D01*
X174649428Y-73302761D02*
X174792285Y-73350380D01*
X175030380Y-73350380D01*
X175125619Y-73302761D01*
X175173238Y-73255142D01*
X175220857Y-73159904D01*
X175220857Y-73064666D01*
X175173238Y-72969428D01*
X175125619Y-72921809D01*
X175030380Y-72874190D01*
X174839904Y-72826571D01*
X174744666Y-72778952D01*
X174697047Y-72731333D01*
X174649428Y-72636095D01*
X174649428Y-72540857D01*
X174697047Y-72445619D01*
X174744666Y-72398000D01*
X174839904Y-72350380D01*
X175078000Y-72350380D01*
X175220857Y-72398000D01*
X175649428Y-73350380D02*
X175649428Y-72683714D01*
X175649428Y-72350380D02*
X175601809Y-72398000D01*
X175649428Y-72445619D01*
X175697047Y-72398000D01*
X175649428Y-72350380D01*
X175649428Y-72445619D01*
X176030380Y-72350380D02*
X176697047Y-72350380D01*
X176268476Y-73350380D01*
X177268476Y-72350380D02*
X177363714Y-72350380D01*
X177458952Y-72398000D01*
X177506571Y-72445619D01*
X177554190Y-72540857D01*
X177601809Y-72731333D01*
X177601809Y-72969428D01*
X177554190Y-73159904D01*
X177506571Y-73255142D01*
X177458952Y-73302761D01*
X177363714Y-73350380D01*
X177268476Y-73350380D01*
X177173238Y-73302761D01*
X177125619Y-73255142D01*
X177078000Y-73159904D01*
X177030380Y-72969428D01*
X177030380Y-72731333D01*
X177078000Y-72540857D01*
X177125619Y-72445619D01*
X177173238Y-72398000D01*
X177268476Y-72350380D01*
X177982761Y-72445619D02*
X178030380Y-72398000D01*
X178125619Y-72350380D01*
X178363714Y-72350380D01*
X178458952Y-72398000D01*
X178506571Y-72445619D01*
X178554190Y-72540857D01*
X178554190Y-72636095D01*
X178506571Y-72778952D01*
X177935142Y-73350380D01*
X178554190Y-73350380D01*
X179506571Y-73350380D02*
X178935142Y-73350380D01*
X179220857Y-73350380D02*
X179220857Y-72350380D01*
X179125619Y-72493238D01*
X179030380Y-72588476D01*
X178935142Y-72636095D01*
X180697047Y-73350380D02*
X180697047Y-72350380D01*
X180697047Y-72731333D02*
X180792285Y-72683714D01*
X180982761Y-72683714D01*
X181078000Y-72731333D01*
X181125619Y-72778952D01*
X181173238Y-72874190D01*
X181173238Y-73159904D01*
X181125619Y-73255142D01*
X181078000Y-73302761D01*
X180982761Y-73350380D01*
X180792285Y-73350380D01*
X180697047Y-73302761D01*
X181744666Y-73350380D02*
X181649428Y-73302761D01*
X181601809Y-73255142D01*
X181554190Y-73159904D01*
X181554190Y-72874190D01*
X181601809Y-72778952D01*
X181649428Y-72731333D01*
X181744666Y-72683714D01*
X181887523Y-72683714D01*
X181982761Y-72731333D01*
X182030380Y-72778952D01*
X182078000Y-72874190D01*
X182078000Y-73159904D01*
X182030380Y-73255142D01*
X181982761Y-73302761D01*
X181887523Y-73350380D01*
X181744666Y-73350380D01*
X182935142Y-73350380D02*
X182935142Y-72826571D01*
X182887523Y-72731333D01*
X182792285Y-72683714D01*
X182601809Y-72683714D01*
X182506571Y-72731333D01*
X182935142Y-73302761D02*
X182839904Y-73350380D01*
X182601809Y-73350380D01*
X182506571Y-73302761D01*
X182458952Y-73207523D01*
X182458952Y-73112285D01*
X182506571Y-73017047D01*
X182601809Y-72969428D01*
X182839904Y-72969428D01*
X182935142Y-72921809D01*
X183411333Y-73350380D02*
X183411333Y-72683714D01*
X183411333Y-72874190D02*
X183458952Y-72778952D01*
X183506571Y-72731333D01*
X183601809Y-72683714D01*
X183697047Y-72683714D01*
X184458952Y-73350380D02*
X184458952Y-72350380D01*
X184458952Y-73302761D02*
X184363714Y-73350380D01*
X184173238Y-73350380D01*
X184078000Y-73302761D01*
X184030380Y-73255142D01*
X183982761Y-73159904D01*
X183982761Y-72874190D01*
X184030380Y-72778952D01*
X184078000Y-72731333D01*
X184173238Y-72683714D01*
X184363714Y-72683714D01*
X184458952Y-72731333D01*
D11*
X172377047Y-56152285D02*
X171538952Y-56466571D01*
X172377047Y-56780857D01*
D12*
X173256142Y-56419190D02*
X173018047Y-56419190D01*
X173018047Y-55919190D01*
X173494238Y-56419190D02*
X173446619Y-56395380D01*
X173422809Y-56371571D01*
X173399000Y-56323952D01*
X173399000Y-56181095D01*
X173422809Y-56133476D01*
X173446619Y-56109666D01*
X173494238Y-56085857D01*
X173565666Y-56085857D01*
X173613285Y-56109666D01*
X173637095Y-56133476D01*
X173660904Y-56181095D01*
X173660904Y-56323952D01*
X173637095Y-56371571D01*
X173613285Y-56395380D01*
X173565666Y-56419190D01*
X173494238Y-56419190D01*
X173875190Y-56085857D02*
X173875190Y-56419190D01*
X173875190Y-56133476D02*
X173899000Y-56109666D01*
X173946619Y-56085857D01*
X174018047Y-56085857D01*
X174065666Y-56109666D01*
X174089476Y-56157285D01*
X174089476Y-56419190D01*
X174541857Y-56085857D02*
X174541857Y-56490619D01*
X174518047Y-56538238D01*
X174494238Y-56562047D01*
X174446619Y-56585857D01*
X174375190Y-56585857D01*
X174327571Y-56562047D01*
X174541857Y-56395380D02*
X174494238Y-56419190D01*
X174399000Y-56419190D01*
X174351380Y-56395380D01*
X174327571Y-56371571D01*
X174303761Y-56323952D01*
X174303761Y-56181095D01*
X174327571Y-56133476D01*
X174351380Y-56109666D01*
X174399000Y-56085857D01*
X174494238Y-56085857D01*
X174541857Y-56109666D01*
X175160904Y-56085857D02*
X175160904Y-56585857D01*
X175160904Y-56109666D02*
X175208523Y-56085857D01*
X175303761Y-56085857D01*
X175351380Y-56109666D01*
X175375190Y-56133476D01*
X175399000Y-56181095D01*
X175399000Y-56323952D01*
X175375190Y-56371571D01*
X175351380Y-56395380D01*
X175303761Y-56419190D01*
X175208523Y-56419190D01*
X175160904Y-56395380D01*
X175613285Y-56419190D02*
X175613285Y-56085857D01*
X175613285Y-56181095D02*
X175637095Y-56133476D01*
X175660904Y-56109666D01*
X175708523Y-56085857D01*
X175756142Y-56085857D01*
X176113285Y-56395380D02*
X176065666Y-56419190D01*
X175970428Y-56419190D01*
X175922809Y-56395380D01*
X175899000Y-56347761D01*
X175899000Y-56157285D01*
X175922809Y-56109666D01*
X175970428Y-56085857D01*
X176065666Y-56085857D01*
X176113285Y-56109666D01*
X176137095Y-56157285D01*
X176137095Y-56204904D01*
X175899000Y-56252523D01*
X176327571Y-56395380D02*
X176375190Y-56419190D01*
X176470428Y-56419190D01*
X176518047Y-56395380D01*
X176541857Y-56347761D01*
X176541857Y-56323952D01*
X176518047Y-56276333D01*
X176470428Y-56252523D01*
X176399000Y-56252523D01*
X176351380Y-56228714D01*
X176327571Y-56181095D01*
X176327571Y-56157285D01*
X176351380Y-56109666D01*
X176399000Y-56085857D01*
X176470428Y-56085857D01*
X176518047Y-56109666D01*
X176732333Y-56395380D02*
X176779952Y-56419190D01*
X176875190Y-56419190D01*
X176922809Y-56395380D01*
X176946619Y-56347761D01*
X176946619Y-56323952D01*
X176922809Y-56276333D01*
X176875190Y-56252523D01*
X176803761Y-56252523D01*
X176756142Y-56228714D01*
X176732333Y-56181095D01*
X176732333Y-56157285D01*
X176756142Y-56109666D01*
X176803761Y-56085857D01*
X176875190Y-56085857D01*
X176922809Y-56109666D01*
X177470428Y-56085857D02*
X177660904Y-56085857D01*
X177541857Y-55919190D02*
X177541857Y-56347761D01*
X177565666Y-56395380D01*
X177613285Y-56419190D01*
X177660904Y-56419190D01*
X177827571Y-56419190D02*
X177827571Y-55919190D01*
X178041857Y-56419190D02*
X178041857Y-56157285D01*
X178018047Y-56109666D01*
X177970428Y-56085857D01*
X177899000Y-56085857D01*
X177851380Y-56109666D01*
X177827571Y-56133476D01*
X178279952Y-56419190D02*
X178279952Y-56085857D01*
X178279952Y-55919190D02*
X178256142Y-55943000D01*
X178279952Y-55966809D01*
X178303761Y-55943000D01*
X178279952Y-55919190D01*
X178279952Y-55966809D01*
X178494238Y-56395380D02*
X178541857Y-56419190D01*
X178637095Y-56419190D01*
X178684714Y-56395380D01*
X178708523Y-56347761D01*
X178708523Y-56323952D01*
X178684714Y-56276333D01*
X178637095Y-56252523D01*
X178565666Y-56252523D01*
X178518047Y-56228714D01*
X178494238Y-56181095D01*
X178494238Y-56157285D01*
X178518047Y-56109666D01*
X178565666Y-56085857D01*
X178637095Y-56085857D01*
X178684714Y-56109666D01*
X179303761Y-56419190D02*
X179303761Y-55919190D01*
X179303761Y-56109666D02*
X179351380Y-56085857D01*
X179446619Y-56085857D01*
X179494238Y-56109666D01*
X179518047Y-56133476D01*
X179541857Y-56181095D01*
X179541857Y-56323952D01*
X179518047Y-56371571D01*
X179494238Y-56395380D01*
X179446619Y-56419190D01*
X179351380Y-56419190D01*
X179303761Y-56395380D01*
X179970428Y-56085857D02*
X179970428Y-56419190D01*
X179756142Y-56085857D02*
X179756142Y-56347761D01*
X179779952Y-56395380D01*
X179827571Y-56419190D01*
X179899000Y-56419190D01*
X179946619Y-56395380D01*
X179970428Y-56371571D01*
X180137095Y-56085857D02*
X180327571Y-56085857D01*
X180208523Y-55919190D02*
X180208523Y-56347761D01*
X180232333Y-56395380D01*
X180279952Y-56419190D01*
X180327571Y-56419190D01*
X180422809Y-56085857D02*
X180613285Y-56085857D01*
X180494238Y-55919190D02*
X180494238Y-56347761D01*
X180518047Y-56395380D01*
X180565666Y-56419190D01*
X180613285Y-56419190D01*
X180851380Y-56419190D02*
X180803761Y-56395380D01*
X180779952Y-56371571D01*
X180756142Y-56323952D01*
X180756142Y-56181095D01*
X180779952Y-56133476D01*
X180803761Y-56109666D01*
X180851380Y-56085857D01*
X180922809Y-56085857D01*
X180970428Y-56109666D01*
X180994238Y-56133476D01*
X181018047Y-56181095D01*
X181018047Y-56323952D01*
X180994238Y-56371571D01*
X180970428Y-56395380D01*
X180922809Y-56419190D01*
X180851380Y-56419190D01*
X181232333Y-56085857D02*
X181232333Y-56419190D01*
X181232333Y-56133476D02*
X181256142Y-56109666D01*
X181303761Y-56085857D01*
X181375190Y-56085857D01*
X181422809Y-56109666D01*
X181446619Y-56157285D01*
X181446619Y-56419190D01*
X172946619Y-56915857D02*
X173137095Y-56915857D01*
X173018047Y-56749190D02*
X173018047Y-57177761D01*
X173041857Y-57225380D01*
X173089476Y-57249190D01*
X173137095Y-57249190D01*
X173375190Y-57249190D02*
X173327571Y-57225380D01*
X173303761Y-57201571D01*
X173279952Y-57153952D01*
X173279952Y-57011095D01*
X173303761Y-56963476D01*
X173327571Y-56939666D01*
X173375190Y-56915857D01*
X173446619Y-56915857D01*
X173494238Y-56939666D01*
X173518047Y-56963476D01*
X173541857Y-57011095D01*
X173541857Y-57153952D01*
X173518047Y-57201571D01*
X173494238Y-57225380D01*
X173446619Y-57249190D01*
X173375190Y-57249190D01*
X174351380Y-56915857D02*
X174351380Y-57320619D01*
X174327571Y-57368238D01*
X174303761Y-57392047D01*
X174256142Y-57415857D01*
X174184714Y-57415857D01*
X174137095Y-57392047D01*
X174351380Y-57225380D02*
X174303761Y-57249190D01*
X174208523Y-57249190D01*
X174160904Y-57225380D01*
X174137095Y-57201571D01*
X174113285Y-57153952D01*
X174113285Y-57011095D01*
X174137095Y-56963476D01*
X174160904Y-56939666D01*
X174208523Y-56915857D01*
X174303761Y-56915857D01*
X174351380Y-56939666D01*
X174779952Y-57225380D02*
X174732333Y-57249190D01*
X174637095Y-57249190D01*
X174589476Y-57225380D01*
X174565666Y-57177761D01*
X174565666Y-56987285D01*
X174589476Y-56939666D01*
X174637095Y-56915857D01*
X174732333Y-56915857D01*
X174779952Y-56939666D01*
X174803761Y-56987285D01*
X174803761Y-57034904D01*
X174565666Y-57082523D01*
X174946619Y-56915857D02*
X175137095Y-56915857D01*
X175018047Y-56749190D02*
X175018047Y-57177761D01*
X175041857Y-57225380D01*
X175089476Y-57249190D01*
X175137095Y-57249190D01*
X175613285Y-56915857D02*
X175803761Y-56915857D01*
X175684714Y-56749190D02*
X175684714Y-57177761D01*
X175708523Y-57225380D01*
X175756142Y-57249190D01*
X175803761Y-57249190D01*
X175970428Y-57249190D02*
X175970428Y-56749190D01*
X176184714Y-57249190D02*
X176184714Y-56987285D01*
X176160904Y-56939666D01*
X176113285Y-56915857D01*
X176041857Y-56915857D01*
X175994238Y-56939666D01*
X175970428Y-56963476D01*
X176613285Y-57225380D02*
X176565666Y-57249190D01*
X176470428Y-57249190D01*
X176422809Y-57225380D01*
X176399000Y-57177761D01*
X176399000Y-56987285D01*
X176422809Y-56939666D01*
X176470428Y-56915857D01*
X176565666Y-56915857D01*
X176613285Y-56939666D01*
X176637095Y-56987285D01*
X176637095Y-57034904D01*
X176399000Y-57082523D01*
X177232333Y-57249190D02*
X177232333Y-56749190D01*
X177446619Y-57249190D02*
X177446619Y-56987285D01*
X177422809Y-56939666D01*
X177375190Y-56915857D01*
X177303761Y-56915857D01*
X177256142Y-56939666D01*
X177232333Y-56963476D01*
X177899000Y-56915857D02*
X177899000Y-57249190D01*
X177684714Y-56915857D02*
X177684714Y-57177761D01*
X177708523Y-57225380D01*
X177756142Y-57249190D01*
X177827571Y-57249190D01*
X177875190Y-57225380D01*
X177899000Y-57201571D01*
X178137095Y-57249190D02*
X178137095Y-56915857D01*
X178137095Y-56963476D02*
X178160904Y-56939666D01*
X178208523Y-56915857D01*
X178279952Y-56915857D01*
X178327571Y-56939666D01*
X178351380Y-56987285D01*
X178351380Y-57249190D01*
X178351380Y-56987285D02*
X178375190Y-56939666D01*
X178422809Y-56915857D01*
X178494238Y-56915857D01*
X178541857Y-56939666D01*
X178565666Y-56987285D01*
X178565666Y-57249190D01*
X178803761Y-57249190D02*
X178803761Y-56915857D01*
X178803761Y-56749190D02*
X178779952Y-56773000D01*
X178803761Y-56796809D01*
X178827571Y-56773000D01*
X178803761Y-56749190D01*
X178803761Y-56796809D01*
X179256142Y-57249190D02*
X179256142Y-56749190D01*
X179256142Y-57225380D02*
X179208523Y-57249190D01*
X179113285Y-57249190D01*
X179065666Y-57225380D01*
X179041857Y-57201571D01*
X179018047Y-57153952D01*
X179018047Y-57011095D01*
X179041857Y-56963476D01*
X179065666Y-56939666D01*
X179113285Y-56915857D01*
X179208523Y-56915857D01*
X179256142Y-56939666D01*
X179494238Y-57249190D02*
X179494238Y-56915857D01*
X179494238Y-56749190D02*
X179470428Y-56773000D01*
X179494238Y-56796809D01*
X179518047Y-56773000D01*
X179494238Y-56749190D01*
X179494238Y-56796809D01*
X179660904Y-56915857D02*
X179851380Y-56915857D01*
X179732333Y-56749190D02*
X179732333Y-57177761D01*
X179756142Y-57225380D01*
X179803761Y-57249190D01*
X179851380Y-57249190D01*
X179970428Y-56915857D02*
X180089476Y-57249190D01*
X180208523Y-56915857D02*
X180089476Y-57249190D01*
X180041857Y-57368238D01*
X180018047Y-57392047D01*
X179970428Y-57415857D01*
X172970428Y-57745857D02*
X173089476Y-58079190D01*
X173208523Y-57745857D01*
X173613285Y-58079190D02*
X173613285Y-57817285D01*
X173589476Y-57769666D01*
X173541857Y-57745857D01*
X173446619Y-57745857D01*
X173399000Y-57769666D01*
X173613285Y-58055380D02*
X173565666Y-58079190D01*
X173446619Y-58079190D01*
X173399000Y-58055380D01*
X173375190Y-58007761D01*
X173375190Y-57960142D01*
X173399000Y-57912523D01*
X173446619Y-57888714D01*
X173565666Y-57888714D01*
X173613285Y-57864904D01*
X173922809Y-58079190D02*
X173875190Y-58055380D01*
X173851380Y-58007761D01*
X173851380Y-57579190D01*
X174327571Y-57745857D02*
X174327571Y-58079190D01*
X174113285Y-57745857D02*
X174113285Y-58007761D01*
X174137095Y-58055380D01*
X174184714Y-58079190D01*
X174256142Y-58079190D01*
X174303761Y-58055380D01*
X174327571Y-58031571D01*
X174756142Y-58055380D02*
X174708523Y-58079190D01*
X174613285Y-58079190D01*
X174565666Y-58055380D01*
X174541857Y-58007761D01*
X174541857Y-57817285D01*
X174565666Y-57769666D01*
X174613285Y-57745857D01*
X174708523Y-57745857D01*
X174756142Y-57769666D01*
X174779952Y-57817285D01*
X174779952Y-57864904D01*
X174541857Y-57912523D01*
X175375190Y-58079190D02*
X175375190Y-57745857D01*
X175375190Y-57579190D02*
X175351380Y-57603000D01*
X175375190Y-57626809D01*
X175399000Y-57603000D01*
X175375190Y-57579190D01*
X175375190Y-57626809D01*
X175613285Y-57745857D02*
X175613285Y-58079190D01*
X175613285Y-57793476D02*
X175637095Y-57769666D01*
X175684714Y-57745857D01*
X175756142Y-57745857D01*
X175803761Y-57769666D01*
X175827571Y-57817285D01*
X175827571Y-58079190D01*
X176732333Y-58079190D02*
X176565666Y-57841095D01*
X176446619Y-58079190D02*
X176446619Y-57579190D01*
X176637095Y-57579190D01*
X176684714Y-57603000D01*
X176708523Y-57626809D01*
X176732333Y-57674428D01*
X176732333Y-57745857D01*
X176708523Y-57793476D01*
X176684714Y-57817285D01*
X176637095Y-57841095D01*
X176446619Y-57841095D01*
X176946619Y-58079190D02*
X176946619Y-57579190D01*
X176946619Y-57817285D02*
X177232333Y-57817285D01*
X177232333Y-58079190D02*
X177232333Y-57579190D01*
X177446619Y-58079190D02*
X177827571Y-57579190D01*
X177518047Y-57579190D02*
X177565666Y-57603000D01*
X177589476Y-57650619D01*
X177565666Y-57698238D01*
X177518047Y-57722047D01*
X177470428Y-57698238D01*
X177446619Y-57650619D01*
X177470428Y-57603000D01*
X177518047Y-57579190D01*
X177803761Y-58055380D02*
X177827571Y-58007761D01*
X177803761Y-57960142D01*
X177756142Y-57936333D01*
X177708523Y-57960142D01*
X177684714Y-58007761D01*
X177708523Y-58055380D01*
X177756142Y-58079190D01*
X177803761Y-58055380D01*
D10*
X167443304Y-56687980D02*
X166871876Y-56687980D01*
X167157590Y-56687980D02*
X167157590Y-55687980D01*
X167062352Y-55830838D01*
X166967114Y-55926076D01*
X166871876Y-55973695D01*
X168062352Y-55687980D02*
X168157590Y-55687980D01*
X168252828Y-55735600D01*
X168300447Y-55783219D01*
X168348066Y-55878457D01*
X168395685Y-56068933D01*
X168395685Y-56307028D01*
X168348066Y-56497504D01*
X168300447Y-56592742D01*
X168252828Y-56640361D01*
X168157590Y-56687980D01*
X168062352Y-56687980D01*
X167967114Y-56640361D01*
X167919495Y-56592742D01*
X167871876Y-56497504D01*
X167824257Y-56307028D01*
X167824257Y-56068933D01*
X167871876Y-55878457D01*
X167919495Y-55783219D01*
X167967114Y-55735600D01*
X168062352Y-55687980D01*
X169014733Y-55687980D02*
X169109971Y-55687980D01*
X169205209Y-55735600D01*
X169252828Y-55783219D01*
X169300447Y-55878457D01*
X169348066Y-56068933D01*
X169348066Y-56307028D01*
X169300447Y-56497504D01*
X169252828Y-56592742D01*
X169205209Y-56640361D01*
X169109971Y-56687980D01*
X169014733Y-56687980D01*
X168919495Y-56640361D01*
X168871876Y-56592742D01*
X168824257Y-56497504D01*
X168776638Y-56307028D01*
X168776638Y-56068933D01*
X168824257Y-55878457D01*
X168871876Y-55783219D01*
X168919495Y-55735600D01*
X169014733Y-55687980D01*
X169729019Y-56687980D02*
X170490923Y-55687980D01*
X169871876Y-55687980D02*
X169967114Y-55735600D01*
X170014733Y-55830838D01*
X169967114Y-55926076D01*
X169871876Y-55973695D01*
X169776638Y-55926076D01*
X169729019Y-55830838D01*
X169776638Y-55735600D01*
X169871876Y-55687980D01*
X170443304Y-56640361D02*
X170490923Y-56545123D01*
X170443304Y-56449885D01*
X170348066Y-56402266D01*
X170252828Y-56449885D01*
X170205209Y-56545123D01*
X170252828Y-56640361D01*
X170348066Y-56687980D01*
X170443304Y-56640361D01*
X162204542Y-56116552D02*
X162109304Y-56068933D01*
X162061685Y-56021314D01*
X162014066Y-55926076D01*
X162014066Y-55878457D01*
X162061685Y-55783219D01*
X162109304Y-55735600D01*
X162204542Y-55687980D01*
X162395019Y-55687980D01*
X162490257Y-55735600D01*
X162537876Y-55783219D01*
X162585495Y-55878457D01*
X162585495Y-55926076D01*
X162537876Y-56021314D01*
X162490257Y-56068933D01*
X162395019Y-56116552D01*
X162204542Y-56116552D01*
X162109304Y-56164171D01*
X162061685Y-56211790D01*
X162014066Y-56307028D01*
X162014066Y-56497504D01*
X162061685Y-56592742D01*
X162109304Y-56640361D01*
X162204542Y-56687980D01*
X162395019Y-56687980D01*
X162490257Y-56640361D01*
X162537876Y-56592742D01*
X162585495Y-56497504D01*
X162585495Y-56307028D01*
X162537876Y-56211790D01*
X162490257Y-56164171D01*
X162395019Y-56116552D01*
X163204542Y-55687980D02*
X163299780Y-55687980D01*
X163395019Y-55735600D01*
X163442638Y-55783219D01*
X163490257Y-55878457D01*
X163537876Y-56068933D01*
X163537876Y-56307028D01*
X163490257Y-56497504D01*
X163442638Y-56592742D01*
X163395019Y-56640361D01*
X163299780Y-56687980D01*
X163204542Y-56687980D01*
X163109304Y-56640361D01*
X163061685Y-56592742D01*
X163014066Y-56497504D01*
X162966447Y-56307028D01*
X162966447Y-56068933D01*
X163014066Y-55878457D01*
X163061685Y-55783219D01*
X163109304Y-55735600D01*
X163204542Y-55687980D01*
X163918828Y-56687980D02*
X164680733Y-55687980D01*
X164061685Y-55687980D02*
X164156923Y-55735600D01*
X164204542Y-55830838D01*
X164156923Y-55926076D01*
X164061685Y-55973695D01*
X163966447Y-55926076D01*
X163918828Y-55830838D01*
X163966447Y-55735600D01*
X164061685Y-55687980D01*
X164633114Y-56640361D02*
X164680733Y-56545123D01*
X164633114Y-56449885D01*
X164537876Y-56402266D01*
X164442638Y-56449885D01*
X164395019Y-56545123D01*
X164442638Y-56640361D01*
X164537876Y-56687980D01*
X164633114Y-56640361D01*
X156978457Y-55687980D02*
X156787980Y-55687980D01*
X156692742Y-55735600D01*
X156645123Y-55783219D01*
X156549885Y-55926076D01*
X156502266Y-56116552D01*
X156502266Y-56497504D01*
X156549885Y-56592742D01*
X156597504Y-56640361D01*
X156692742Y-56687980D01*
X156883219Y-56687980D01*
X156978457Y-56640361D01*
X157026076Y-56592742D01*
X157073695Y-56497504D01*
X157073695Y-56259409D01*
X157026076Y-56164171D01*
X156978457Y-56116552D01*
X156883219Y-56068933D01*
X156692742Y-56068933D01*
X156597504Y-56116552D01*
X156549885Y-56164171D01*
X156502266Y-56259409D01*
X157692742Y-55687980D02*
X157787980Y-55687980D01*
X157883219Y-55735600D01*
X157930838Y-55783219D01*
X157978457Y-55878457D01*
X158026076Y-56068933D01*
X158026076Y-56307028D01*
X157978457Y-56497504D01*
X157930838Y-56592742D01*
X157883219Y-56640361D01*
X157787980Y-56687980D01*
X157692742Y-56687980D01*
X157597504Y-56640361D01*
X157549885Y-56592742D01*
X157502266Y-56497504D01*
X157454647Y-56307028D01*
X157454647Y-56068933D01*
X157502266Y-55878457D01*
X157549885Y-55783219D01*
X157597504Y-55735600D01*
X157692742Y-55687980D01*
X158407028Y-56687980D02*
X159168933Y-55687980D01*
X158549885Y-55687980D02*
X158645123Y-55735600D01*
X158692742Y-55830838D01*
X158645123Y-55926076D01*
X158549885Y-55973695D01*
X158454647Y-55926076D01*
X158407028Y-55830838D01*
X158454647Y-55735600D01*
X158549885Y-55687980D01*
X159121314Y-56640361D02*
X159168933Y-56545123D01*
X159121314Y-56449885D01*
X159026076Y-56402266D01*
X158930838Y-56449885D01*
X158883219Y-56545123D01*
X158930838Y-56640361D01*
X159026076Y-56687980D01*
X159121314Y-56640361D01*
X151703209Y-56021314D02*
X151703209Y-56687980D01*
X151465113Y-55640361D02*
X151227018Y-56354647D01*
X151846066Y-56354647D01*
X152417494Y-55687980D02*
X152512732Y-55687980D01*
X152607971Y-55735600D01*
X152655590Y-55783219D01*
X152703209Y-55878457D01*
X152750828Y-56068933D01*
X152750828Y-56307028D01*
X152703209Y-56497504D01*
X152655590Y-56592742D01*
X152607971Y-56640361D01*
X152512732Y-56687980D01*
X152417494Y-56687980D01*
X152322256Y-56640361D01*
X152274637Y-56592742D01*
X152227018Y-56497504D01*
X152179399Y-56307028D01*
X152179399Y-56068933D01*
X152227018Y-55878457D01*
X152274637Y-55783219D01*
X152322256Y-55735600D01*
X152417494Y-55687980D01*
X153131780Y-56687980D02*
X153893685Y-55687980D01*
X153274637Y-55687980D02*
X153369875Y-55735600D01*
X153417494Y-55830838D01*
X153369875Y-55926076D01*
X153274637Y-55973695D01*
X153179399Y-55926076D01*
X153131780Y-55830838D01*
X153179399Y-55735600D01*
X153274637Y-55687980D01*
X153846066Y-56640361D02*
X153893685Y-56545123D01*
X153846066Y-56449885D01*
X153750828Y-56402266D01*
X153655590Y-56449885D01*
X153607971Y-56545123D01*
X153655590Y-56640361D01*
X153750828Y-56687980D01*
X153846066Y-56640361D01*
X146012066Y-55783219D02*
X146059685Y-55735600D01*
X146154923Y-55687980D01*
X146393019Y-55687980D01*
X146488257Y-55735600D01*
X146535876Y-55783219D01*
X146583495Y-55878457D01*
X146583495Y-55973695D01*
X146535876Y-56116552D01*
X145964447Y-56687980D01*
X146583495Y-56687980D01*
X147202542Y-55687980D02*
X147297780Y-55687980D01*
X147393019Y-55735600D01*
X147440638Y-55783219D01*
X147488257Y-55878457D01*
X147535876Y-56068933D01*
X147535876Y-56307028D01*
X147488257Y-56497504D01*
X147440638Y-56592742D01*
X147393019Y-56640361D01*
X147297780Y-56687980D01*
X147202542Y-56687980D01*
X147107304Y-56640361D01*
X147059685Y-56592742D01*
X147012066Y-56497504D01*
X146964447Y-56307028D01*
X146964447Y-56068933D01*
X147012066Y-55878457D01*
X147059685Y-55783219D01*
X147107304Y-55735600D01*
X147202542Y-55687980D01*
X147916828Y-56687980D02*
X148678733Y-55687980D01*
X148059685Y-55687980D02*
X148154923Y-55735600D01*
X148202542Y-55830838D01*
X148154923Y-55926076D01*
X148059685Y-55973695D01*
X147964447Y-55926076D01*
X147916828Y-55830838D01*
X147964447Y-55735600D01*
X148059685Y-55687980D01*
X148631114Y-56640361D02*
X148678733Y-56545123D01*
X148631114Y-56449885D01*
X148535876Y-56402266D01*
X148440638Y-56449885D01*
X148393019Y-56545123D01*
X148440638Y-56640361D01*
X148535876Y-56687980D01*
X148631114Y-56640361D01*
D13*
G04 #@! TO.C,U1*
X145351500Y-80835500D02*
X145351500Y-58356500D01*
X147320000Y-81851500D02*
X145351500Y-80835500D01*
X147320000Y-88646000D02*
X147320000Y-81851500D01*
X171069000Y-88519000D02*
X147320000Y-88646000D01*
X171069000Y-58293000D02*
X171069000Y-88519000D01*
X145351500Y-58356500D02*
X171069000Y-58293000D01*
G04 #@! TO.C,U2*
X119443500Y-54610000D02*
X120142000Y-54356000D01*
X118999000Y-54864000D02*
X119443500Y-54610000D01*
X118427500Y-55245000D02*
X118999000Y-54864000D01*
X117983000Y-55689500D02*
X118427500Y-55245000D01*
X117602000Y-56134000D02*
X117983000Y-55689500D01*
X117221000Y-56832500D02*
X117602000Y-56134000D01*
X117030500Y-57531000D02*
X117221000Y-56832500D01*
X116903500Y-58356500D02*
X117030500Y-57531000D01*
X142303500Y-56832500D02*
X142621000Y-57531000D01*
X142049500Y-56324500D02*
X142303500Y-56832500D01*
X141668500Y-55816500D02*
X142049500Y-56324500D01*
X141351000Y-55435500D02*
X141668500Y-55816500D01*
X140906500Y-55118000D02*
X141351000Y-55435500D01*
X140398500Y-54800500D02*
X140906500Y-55118000D01*
X139827000Y-54546500D02*
X140398500Y-54800500D01*
X139192000Y-54356000D02*
X139827000Y-54546500D01*
D10*
X116903500Y-80962500D02*
X116878552Y-58407408D01*
X116928454Y-81017604D02*
X118872000Y-81915000D01*
X142621000Y-57531000D02*
X142607002Y-88701151D01*
X118849528Y-88794228D02*
X118879322Y-81985885D01*
X133516397Y-88683422D02*
X142597193Y-88709500D01*
X133518373Y-88709500D02*
X133516397Y-87507247D01*
X124714000Y-87503000D02*
X133545222Y-87496312D01*
X124624169Y-87489567D02*
X124650500Y-88773000D01*
X118233881Y-83933364D02*
X118851242Y-83933364D01*
X118233881Y-85926558D02*
X118233881Y-83933364D01*
X118886520Y-85926558D02*
X118233881Y-85926558D01*
X118868881Y-81922531D02*
X118921798Y-88007947D01*
X120438742Y-81922531D02*
X118868881Y-81922531D01*
X120967909Y-82416420D02*
X120438742Y-81922531D01*
X122255548Y-82416420D02*
X120967909Y-82416420D01*
X122255548Y-87478781D02*
X122255548Y-82416420D01*
X121003187Y-87478781D02*
X122255548Y-87478781D01*
X120474020Y-88007947D02*
X121003187Y-87478781D01*
X118921798Y-88007947D02*
X120474020Y-88007947D01*
X139192000Y-54356000D02*
X120154087Y-54384758D01*
X132846650Y-82526800D02*
X132846650Y-88340537D01*
X125707069Y-82526800D02*
X132846650Y-82526800D01*
X125707069Y-88340537D02*
X125707069Y-82526800D01*
X132846650Y-88340537D02*
X125707069Y-88340537D01*
X118849528Y-88794228D02*
X124660820Y-88794228D01*
D13*
X138557000Y-54737000D02*
X138557000Y-77597000D01*
X120777000Y-54737000D02*
X138557000Y-54737000D01*
X120777000Y-77597000D02*
X120777000Y-54737000D01*
X138557000Y-77597000D02*
X120777000Y-77597000D01*
X123317000Y-76327000D02*
X136017000Y-76327000D01*
X123317000Y-62357000D02*
X123317000Y-76327000D01*
X136017000Y-62357000D02*
X123317000Y-62357000D01*
X136017000Y-76327000D02*
X136017000Y-62357000D01*
D14*
G04 #@! TO.C,U4*
X186245500Y-84268000D02*
X186245500Y-86928000D01*
X186245500Y-86931500D02*
X173422000Y-86928000D01*
X186245500Y-84264500D02*
X173422000Y-84268000D01*
X173422000Y-84268000D02*
X173422000Y-86928000D01*
D13*
X186436000Y-70358000D02*
G75*
G02X187452000Y-71374000I0J-1016000D01*
G01*
X173228000Y-88138000D02*
G75*
G02X172212000Y-87122000I0J1016000D01*
G01*
X187452000Y-87122000D02*
G75*
G02X186436000Y-88138000I-1016000J0D01*
G01*
X172212000Y-71374000D02*
G75*
G02X173228000Y-70358000I1016000J0D01*
G01*
X173228000Y-88138000D02*
X186436000Y-88138000D01*
X187452000Y-87122000D02*
X187452000Y-71374000D01*
X186436000Y-70358000D02*
X173228000Y-70358000D01*
X172212000Y-71374000D02*
X172212000Y-87122000D01*
G04 #@! TO.C,SW1*
X172892000Y-55124000D02*
X172892000Y-50924000D01*
X181692000Y-55124000D02*
X172892000Y-55124000D01*
X181692000Y-50924000D02*
X181692000Y-55124000D01*
X172892000Y-50924000D02*
X181692000Y-50924000D01*
D14*
G04 #@! TO.C,D1*
X146066000Y-55062000D02*
X148926000Y-55062000D01*
X148926000Y-55062000D02*
X148926000Y-53142000D01*
X148926000Y-53142000D02*
X146066000Y-53142000D01*
G04 #@! TO.C,D2*
X154323500Y-53142000D02*
X151463500Y-53142000D01*
X154323500Y-55062000D02*
X154323500Y-53142000D01*
X151463500Y-55062000D02*
X154323500Y-55062000D01*
G04 #@! TO.C,D3*
X156861000Y-55062000D02*
X159721000Y-55062000D01*
X159721000Y-55062000D02*
X159721000Y-53142000D01*
X159721000Y-53142000D02*
X156861000Y-53142000D01*
G04 #@! TO.C,D4*
X165118500Y-53142000D02*
X162258500Y-53142000D01*
X165118500Y-55062000D02*
X165118500Y-53142000D01*
X162258500Y-55062000D02*
X165118500Y-55062000D01*
G04 #@! TO.C,D5*
X167656000Y-55062000D02*
X170516000Y-55062000D01*
X170516000Y-55062000D02*
X170516000Y-53142000D01*
X170516000Y-53142000D02*
X167656000Y-53142000D01*
G04 #@! TO.C,REF4*
D10*
X115804904Y-85166095D02*
X115423952Y-85432761D01*
X115804904Y-85623238D02*
X115004904Y-85623238D01*
X115004904Y-85318476D01*
X115043000Y-85242285D01*
X115081095Y-85204190D01*
X115157285Y-85166095D01*
X115271571Y-85166095D01*
X115347761Y-85204190D01*
X115385857Y-85242285D01*
X115423952Y-85318476D01*
X115423952Y-85623238D01*
X115385857Y-84823238D02*
X115385857Y-84556571D01*
X115804904Y-84442285D02*
X115804904Y-84823238D01*
X115004904Y-84823238D01*
X115004904Y-84442285D01*
X115385857Y-83832761D02*
X115385857Y-84099428D01*
X115804904Y-84099428D02*
X115004904Y-84099428D01*
X115004904Y-83718476D01*
X115271571Y-83070857D02*
X115804904Y-83070857D01*
X114966809Y-83261333D02*
X115538238Y-83451809D01*
X115538238Y-82956571D01*
G04 #@! TO.C,REF1*
X115677904Y-56210095D02*
X115296952Y-56476761D01*
X115677904Y-56667238D02*
X114877904Y-56667238D01*
X114877904Y-56362476D01*
X114916000Y-56286285D01*
X114954095Y-56248190D01*
X115030285Y-56210095D01*
X115144571Y-56210095D01*
X115220761Y-56248190D01*
X115258857Y-56286285D01*
X115296952Y-56362476D01*
X115296952Y-56667238D01*
X115258857Y-55867238D02*
X115258857Y-55600571D01*
X115677904Y-55486285D02*
X115677904Y-55867238D01*
X114877904Y-55867238D01*
X114877904Y-55486285D01*
X115258857Y-54876761D02*
X115258857Y-55143428D01*
X115677904Y-55143428D02*
X114877904Y-55143428D01*
X114877904Y-54762476D01*
X115677904Y-54038666D02*
X115677904Y-54495809D01*
X115677904Y-54267238D02*
X114877904Y-54267238D01*
X114992190Y-54343428D01*
X115068380Y-54419619D01*
X115106476Y-54495809D01*
G04 #@! TO.C,REF2*
X189210904Y-56210095D02*
X188829952Y-56476761D01*
X189210904Y-56667238D02*
X188410904Y-56667238D01*
X188410904Y-56362476D01*
X188449000Y-56286285D01*
X188487095Y-56248190D01*
X188563285Y-56210095D01*
X188677571Y-56210095D01*
X188753761Y-56248190D01*
X188791857Y-56286285D01*
X188829952Y-56362476D01*
X188829952Y-56667238D01*
X188791857Y-55867238D02*
X188791857Y-55600571D01*
X189210904Y-55486285D02*
X189210904Y-55867238D01*
X188410904Y-55867238D01*
X188410904Y-55486285D01*
X188791857Y-54876761D02*
X188791857Y-55143428D01*
X189210904Y-55143428D02*
X188410904Y-55143428D01*
X188410904Y-54762476D01*
X188487095Y-54495809D02*
X188449000Y-54457714D01*
X188410904Y-54381523D01*
X188410904Y-54191047D01*
X188449000Y-54114857D01*
X188487095Y-54076761D01*
X188563285Y-54038666D01*
X188639476Y-54038666D01*
X188753761Y-54076761D01*
X189210904Y-54533904D01*
X189210904Y-54038666D01*
G04 #@! TO.C,U1*
D13*
X145034095Y-85812380D02*
X145034095Y-86621904D01*
X145081714Y-86717142D01*
X145129333Y-86764761D01*
X145224571Y-86812380D01*
X145415047Y-86812380D01*
X145510285Y-86764761D01*
X145557904Y-86717142D01*
X145605523Y-86621904D01*
X145605523Y-85812380D01*
X146605523Y-86812380D02*
X146034095Y-86812380D01*
X146319809Y-86812380D02*
X146319809Y-85812380D01*
X146224571Y-85955238D01*
X146129333Y-86050476D01*
X146034095Y-86098095D01*
X151900714Y-66460714D02*
X152329285Y-66603571D01*
X152472142Y-66746428D01*
X152615000Y-67032142D01*
X152615000Y-67460714D01*
X152472142Y-67746428D01*
X152329285Y-67889285D01*
X152043571Y-68032142D01*
X150900714Y-68032142D01*
X150900714Y-65032142D01*
X151900714Y-65032142D01*
X152186428Y-65175000D01*
X152329285Y-65317857D01*
X152472142Y-65603571D01*
X152472142Y-65889285D01*
X152329285Y-66175000D01*
X152186428Y-66317857D01*
X151900714Y-66460714D01*
X150900714Y-66460714D01*
X155186428Y-68032142D02*
X155186428Y-66460714D01*
X155043571Y-66175000D01*
X154757857Y-66032142D01*
X154186428Y-66032142D01*
X153900714Y-66175000D01*
X155186428Y-67889285D02*
X154900714Y-68032142D01*
X154186428Y-68032142D01*
X153900714Y-67889285D01*
X153757857Y-67603571D01*
X153757857Y-67317857D01*
X153900714Y-67032142D01*
X154186428Y-66889285D01*
X154900714Y-66889285D01*
X155186428Y-66746428D01*
X156186428Y-66032142D02*
X157329285Y-66032142D01*
X156615000Y-65032142D02*
X156615000Y-67603571D01*
X156757857Y-67889285D01*
X157043571Y-68032142D01*
X157329285Y-68032142D01*
X157900714Y-66032142D02*
X159043571Y-66032142D01*
X158329285Y-65032142D02*
X158329285Y-67603571D01*
X158472142Y-67889285D01*
X158757857Y-68032142D01*
X159043571Y-68032142D01*
X161186428Y-67889285D02*
X160900714Y-68032142D01*
X160329285Y-68032142D01*
X160043571Y-67889285D01*
X159900714Y-67603571D01*
X159900714Y-66460714D01*
X160043571Y-66175000D01*
X160329285Y-66032142D01*
X160900714Y-66032142D01*
X161186428Y-66175000D01*
X161329285Y-66460714D01*
X161329285Y-66746428D01*
X159900714Y-67032142D01*
X162615000Y-68032142D02*
X162615000Y-66032142D01*
X162615000Y-66603571D02*
X162757857Y-66317857D01*
X162900714Y-66175000D01*
X163186428Y-66032142D01*
X163472142Y-66032142D01*
X164186428Y-66032142D02*
X164900714Y-68032142D01*
X165615000Y-66032142D02*
X164900714Y-68032142D01*
X164615000Y-68746428D01*
X164472142Y-68889285D01*
X164186428Y-69032142D01*
X151757857Y-72969285D02*
X152186428Y-73112142D01*
X152900714Y-73112142D01*
X153186428Y-72969285D01*
X153329285Y-72826428D01*
X153472142Y-72540714D01*
X153472142Y-72255000D01*
X153329285Y-71969285D01*
X153186428Y-71826428D01*
X152900714Y-71683571D01*
X152329285Y-71540714D01*
X152043571Y-71397857D01*
X151900714Y-71255000D01*
X151757857Y-70969285D01*
X151757857Y-70683571D01*
X151900714Y-70397857D01*
X152043571Y-70255000D01*
X152329285Y-70112142D01*
X153043571Y-70112142D01*
X153472142Y-70255000D01*
X154757857Y-73112142D02*
X154757857Y-70112142D01*
X156043571Y-73112142D02*
X156043571Y-71540714D01*
X155900714Y-71255000D01*
X155615000Y-71112142D01*
X155186428Y-71112142D01*
X154900714Y-71255000D01*
X154757857Y-71397857D01*
X157472142Y-73112142D02*
X157472142Y-71112142D01*
X157472142Y-70112142D02*
X157329285Y-70255000D01*
X157472142Y-70397857D01*
X157615000Y-70255000D01*
X157472142Y-70112142D01*
X157472142Y-70397857D01*
X160043571Y-72969285D02*
X159757857Y-73112142D01*
X159186428Y-73112142D01*
X158900714Y-72969285D01*
X158757857Y-72683571D01*
X158757857Y-71540714D01*
X158900714Y-71255000D01*
X159186428Y-71112142D01*
X159757857Y-71112142D01*
X160043571Y-71255000D01*
X160186428Y-71540714D01*
X160186428Y-71826428D01*
X158757857Y-72112142D01*
X161900714Y-73112142D02*
X161615000Y-72969285D01*
X161472142Y-72683571D01*
X161472142Y-70112142D01*
X164329285Y-73112142D02*
X164329285Y-70112142D01*
X164329285Y-72969285D02*
X164043571Y-73112142D01*
X163472142Y-73112142D01*
X163186428Y-72969285D01*
X163043571Y-72826428D01*
X162900714Y-72540714D01*
X162900714Y-71683571D01*
X163043571Y-71397857D01*
X163186428Y-71255000D01*
X163472142Y-71112142D01*
X164043571Y-71112142D01*
X164329285Y-71255000D01*
G04 #@! TO.C,U2*
X121158095Y-52284380D02*
X121158095Y-53093904D01*
X121205714Y-53189142D01*
X121253333Y-53236761D01*
X121348571Y-53284380D01*
X121539047Y-53284380D01*
X121634285Y-53236761D01*
X121681904Y-53189142D01*
X121729523Y-53093904D01*
X121729523Y-52284380D01*
X122158095Y-52379619D02*
X122205714Y-52332000D01*
X122300952Y-52284380D01*
X122539047Y-52284380D01*
X122634285Y-52332000D01*
X122681904Y-52379619D01*
X122729523Y-52474857D01*
X122729523Y-52570095D01*
X122681904Y-52712952D01*
X122110476Y-53284380D01*
X122729523Y-53284380D01*
X122174857Y-55634142D02*
X122889142Y-58634142D01*
X123460571Y-56491285D01*
X124032000Y-58634142D01*
X124746285Y-55634142D01*
X127032000Y-58491285D02*
X126746285Y-58634142D01*
X126174857Y-58634142D01*
X125889142Y-58491285D01*
X125746285Y-58205571D01*
X125746285Y-57062714D01*
X125889142Y-56777000D01*
X126174857Y-56634142D01*
X126746285Y-56634142D01*
X127032000Y-56777000D01*
X127174857Y-57062714D01*
X127174857Y-57348428D01*
X125746285Y-57634142D01*
X128460571Y-58634142D02*
X128460571Y-55634142D01*
X129460571Y-57777000D01*
X130460571Y-55634142D01*
X130460571Y-58634142D01*
X132317714Y-58634142D02*
X132032000Y-58491285D01*
X131889142Y-58348428D01*
X131746285Y-58062714D01*
X131746285Y-57205571D01*
X131889142Y-56919857D01*
X132032000Y-56777000D01*
X132317714Y-56634142D01*
X132746285Y-56634142D01*
X133032000Y-56777000D01*
X133174857Y-56919857D01*
X133317714Y-57205571D01*
X133317714Y-58062714D01*
X133174857Y-58348428D01*
X133032000Y-58491285D01*
X132746285Y-58634142D01*
X132317714Y-58634142D01*
X134460571Y-58491285D02*
X134746285Y-58634142D01*
X135317714Y-58634142D01*
X135603428Y-58491285D01*
X135746285Y-58205571D01*
X135746285Y-58062714D01*
X135603428Y-57777000D01*
X135317714Y-57634142D01*
X134889142Y-57634142D01*
X134603428Y-57491285D01*
X134460571Y-57205571D01*
X134460571Y-57062714D01*
X134603428Y-56777000D01*
X134889142Y-56634142D01*
X135317714Y-56634142D01*
X135603428Y-56777000D01*
X127428904Y-59904380D02*
X127762238Y-60904380D01*
X128095571Y-59904380D01*
X128333666Y-59904380D02*
X128952714Y-59904380D01*
X128619380Y-60285333D01*
X128762238Y-60285333D01*
X128857476Y-60332952D01*
X128905095Y-60380571D01*
X128952714Y-60475809D01*
X128952714Y-60713904D01*
X128905095Y-60809142D01*
X128857476Y-60856761D01*
X128762238Y-60904380D01*
X128476523Y-60904380D01*
X128381285Y-60856761D01*
X128333666Y-60809142D01*
X129381285Y-60809142D02*
X129428904Y-60856761D01*
X129381285Y-60904380D01*
X129333666Y-60856761D01*
X129381285Y-60809142D01*
X129381285Y-60904380D01*
X130047952Y-59904380D02*
X130143190Y-59904380D01*
X130238428Y-59952000D01*
X130286047Y-59999619D01*
X130333666Y-60094857D01*
X130381285Y-60285333D01*
X130381285Y-60523428D01*
X130333666Y-60713904D01*
X130286047Y-60809142D01*
X130238428Y-60856761D01*
X130143190Y-60904380D01*
X130047952Y-60904380D01*
X129952714Y-60856761D01*
X129905095Y-60809142D01*
X129857476Y-60713904D01*
X129809857Y-60523428D01*
X129809857Y-60285333D01*
X129857476Y-60094857D01*
X129905095Y-59999619D01*
X129952714Y-59952000D01*
X130047952Y-59904380D01*
X130809857Y-60809142D02*
X130857476Y-60856761D01*
X130809857Y-60904380D01*
X130762238Y-60856761D01*
X130809857Y-60809142D01*
X130809857Y-60904380D01*
X131476523Y-59904380D02*
X131571761Y-59904380D01*
X131667000Y-59952000D01*
X131714619Y-59999619D01*
X131762238Y-60094857D01*
X131809857Y-60285333D01*
X131809857Y-60523428D01*
X131762238Y-60713904D01*
X131714619Y-60809142D01*
X131667000Y-60856761D01*
X131571761Y-60904380D01*
X131476523Y-60904380D01*
X131381285Y-60856761D01*
X131333666Y-60809142D01*
X131286047Y-60713904D01*
X131238428Y-60523428D01*
X131238428Y-60285333D01*
X131286047Y-60094857D01*
X131333666Y-59999619D01*
X131381285Y-59952000D01*
X131476523Y-59904380D01*
G04 #@! TO.C,U4*
X172974095Y-68540380D02*
X172974095Y-69349904D01*
X173021714Y-69445142D01*
X173069333Y-69492761D01*
X173164571Y-69540380D01*
X173355047Y-69540380D01*
X173450285Y-69492761D01*
X173497904Y-69445142D01*
X173545523Y-69349904D01*
X173545523Y-68540380D01*
X174450285Y-68873714D02*
X174450285Y-69540380D01*
X174212190Y-68492761D02*
X173974095Y-69207047D01*
X174593142Y-69207047D01*
D10*
X183877071Y-82873809D02*
X183991357Y-82911904D01*
X184181833Y-82911904D01*
X184258023Y-82873809D01*
X184296119Y-82835714D01*
X184334214Y-82759523D01*
X184334214Y-82683333D01*
X184296119Y-82607142D01*
X184258023Y-82569047D01*
X184181833Y-82530952D01*
X184029452Y-82492857D01*
X183953261Y-82454761D01*
X183915166Y-82416666D01*
X183877071Y-82340476D01*
X183877071Y-82264285D01*
X183915166Y-82188095D01*
X183953261Y-82150000D01*
X184029452Y-82111904D01*
X184219928Y-82111904D01*
X184334214Y-82150000D01*
X184677071Y-82911904D02*
X184677071Y-82111904D01*
X184867547Y-82111904D01*
X184981833Y-82150000D01*
X185058023Y-82226190D01*
X185096119Y-82302380D01*
X185134214Y-82454761D01*
X185134214Y-82569047D01*
X185096119Y-82721428D01*
X185058023Y-82797619D01*
X184981833Y-82873809D01*
X184867547Y-82911904D01*
X184677071Y-82911904D01*
X185438976Y-82683333D02*
X185819928Y-82683333D01*
X185362785Y-82911904D02*
X185629452Y-82111904D01*
X185896119Y-82911904D01*
X181292619Y-82873809D02*
X181406904Y-82911904D01*
X181597380Y-82911904D01*
X181673571Y-82873809D01*
X181711666Y-82835714D01*
X181749761Y-82759523D01*
X181749761Y-82683333D01*
X181711666Y-82607142D01*
X181673571Y-82569047D01*
X181597380Y-82530952D01*
X181445000Y-82492857D01*
X181368809Y-82454761D01*
X181330714Y-82416666D01*
X181292619Y-82340476D01*
X181292619Y-82264285D01*
X181330714Y-82188095D01*
X181368809Y-82150000D01*
X181445000Y-82111904D01*
X181635476Y-82111904D01*
X181749761Y-82150000D01*
X182549761Y-82835714D02*
X182511666Y-82873809D01*
X182397380Y-82911904D01*
X182321190Y-82911904D01*
X182206904Y-82873809D01*
X182130714Y-82797619D01*
X182092619Y-82721428D01*
X182054523Y-82569047D01*
X182054523Y-82454761D01*
X182092619Y-82302380D01*
X182130714Y-82226190D01*
X182206904Y-82150000D01*
X182321190Y-82111904D01*
X182397380Y-82111904D01*
X182511666Y-82150000D01*
X182549761Y-82188095D01*
X183273571Y-82911904D02*
X182892619Y-82911904D01*
X182892619Y-82111904D01*
X179031976Y-82150000D02*
X178955785Y-82111904D01*
X178841500Y-82111904D01*
X178727214Y-82150000D01*
X178651023Y-82226190D01*
X178612928Y-82302380D01*
X178574833Y-82454761D01*
X178574833Y-82569047D01*
X178612928Y-82721428D01*
X178651023Y-82797619D01*
X178727214Y-82873809D01*
X178841500Y-82911904D01*
X178917690Y-82911904D01*
X179031976Y-82873809D01*
X179070071Y-82835714D01*
X179070071Y-82569047D01*
X178917690Y-82569047D01*
X179412928Y-82911904D02*
X179412928Y-82111904D01*
X179870071Y-82911904D01*
X179870071Y-82111904D01*
X180251023Y-82911904D02*
X180251023Y-82111904D01*
X180441500Y-82111904D01*
X180555785Y-82150000D01*
X180631976Y-82226190D01*
X180670071Y-82302380D01*
X180708166Y-82454761D01*
X180708166Y-82569047D01*
X180670071Y-82721428D01*
X180631976Y-82797619D01*
X180555785Y-82873809D01*
X180441500Y-82911904D01*
X180251023Y-82911904D01*
X176193571Y-82111904D02*
X176688809Y-82111904D01*
X176422142Y-82416666D01*
X176536428Y-82416666D01*
X176612619Y-82454761D01*
X176650714Y-82492857D01*
X176688809Y-82569047D01*
X176688809Y-82759523D01*
X176650714Y-82835714D01*
X176612619Y-82873809D01*
X176536428Y-82911904D01*
X176307857Y-82911904D01*
X176231666Y-82873809D01*
X176193571Y-82835714D01*
X176917380Y-82111904D02*
X177184047Y-82911904D01*
X177450714Y-82111904D01*
X177831666Y-82911904D02*
X177755476Y-82873809D01*
X177717380Y-82835714D01*
X177679285Y-82759523D01*
X177679285Y-82530952D01*
X177717380Y-82454761D01*
X177755476Y-82416666D01*
X177831666Y-82378571D01*
X177945952Y-82378571D01*
X178022142Y-82416666D01*
X178060238Y-82454761D01*
X178098333Y-82530952D01*
X178098333Y-82759523D01*
X178060238Y-82835714D01*
X178022142Y-82873809D01*
X177945952Y-82911904D01*
X177831666Y-82911904D01*
X173678952Y-82111904D02*
X173945619Y-82911904D01*
X174212285Y-82111904D01*
X174478952Y-82911904D02*
X174478952Y-82378571D01*
X174478952Y-82111904D02*
X174440857Y-82150000D01*
X174478952Y-82188095D01*
X174517047Y-82150000D01*
X174478952Y-82111904D01*
X174478952Y-82188095D01*
X174859904Y-82378571D02*
X174859904Y-82911904D01*
X174859904Y-82454761D02*
X174898000Y-82416666D01*
X174974190Y-82378571D01*
X175088476Y-82378571D01*
X175164666Y-82416666D01*
X175202761Y-82492857D01*
X175202761Y-82911904D01*
G04 #@! TO.C,SW1*
D13*
X176085666Y-59840761D02*
X176228523Y-59888380D01*
X176466619Y-59888380D01*
X176561857Y-59840761D01*
X176609476Y-59793142D01*
X176657095Y-59697904D01*
X176657095Y-59602666D01*
X176609476Y-59507428D01*
X176561857Y-59459809D01*
X176466619Y-59412190D01*
X176276142Y-59364571D01*
X176180904Y-59316952D01*
X176133285Y-59269333D01*
X176085666Y-59174095D01*
X176085666Y-59078857D01*
X176133285Y-58983619D01*
X176180904Y-58936000D01*
X176276142Y-58888380D01*
X176514238Y-58888380D01*
X176657095Y-58936000D01*
X176990428Y-58888380D02*
X177228523Y-59888380D01*
X177419000Y-59174095D01*
X177609476Y-59888380D01*
X177847571Y-58888380D01*
X178752333Y-59888380D02*
X178180904Y-59888380D01*
X178466619Y-59888380D02*
X178466619Y-58888380D01*
X178371380Y-59031238D01*
X178276142Y-59126476D01*
X178180904Y-59174095D01*
G04 #@! TO.C,D1*
X146327904Y-52649380D02*
X146327904Y-51649380D01*
X146566000Y-51649380D01*
X146708857Y-51697000D01*
X146804095Y-51792238D01*
X146851714Y-51887476D01*
X146899333Y-52077952D01*
X146899333Y-52220809D01*
X146851714Y-52411285D01*
X146804095Y-52506523D01*
X146708857Y-52601761D01*
X146566000Y-52649380D01*
X146327904Y-52649380D01*
X147851714Y-52649380D02*
X147280285Y-52649380D01*
X147566000Y-52649380D02*
X147566000Y-51649380D01*
X147470761Y-51792238D01*
X147375523Y-51887476D01*
X147280285Y-51935095D01*
G04 #@! TO.C,D2*
X151725404Y-52649380D02*
X151725404Y-51649380D01*
X151963500Y-51649380D01*
X152106357Y-51697000D01*
X152201595Y-51792238D01*
X152249214Y-51887476D01*
X152296833Y-52077952D01*
X152296833Y-52220809D01*
X152249214Y-52411285D01*
X152201595Y-52506523D01*
X152106357Y-52601761D01*
X151963500Y-52649380D01*
X151725404Y-52649380D01*
X152677785Y-51744619D02*
X152725404Y-51697000D01*
X152820642Y-51649380D01*
X153058738Y-51649380D01*
X153153976Y-51697000D01*
X153201595Y-51744619D01*
X153249214Y-51839857D01*
X153249214Y-51935095D01*
X153201595Y-52077952D01*
X152630166Y-52649380D01*
X153249214Y-52649380D01*
G04 #@! TO.C,D3*
X157122904Y-52649380D02*
X157122904Y-51649380D01*
X157361000Y-51649380D01*
X157503857Y-51697000D01*
X157599095Y-51792238D01*
X157646714Y-51887476D01*
X157694333Y-52077952D01*
X157694333Y-52220809D01*
X157646714Y-52411285D01*
X157599095Y-52506523D01*
X157503857Y-52601761D01*
X157361000Y-52649380D01*
X157122904Y-52649380D01*
X158027666Y-51649380D02*
X158646714Y-51649380D01*
X158313380Y-52030333D01*
X158456238Y-52030333D01*
X158551476Y-52077952D01*
X158599095Y-52125571D01*
X158646714Y-52220809D01*
X158646714Y-52458904D01*
X158599095Y-52554142D01*
X158551476Y-52601761D01*
X158456238Y-52649380D01*
X158170523Y-52649380D01*
X158075285Y-52601761D01*
X158027666Y-52554142D01*
G04 #@! TO.C,D4*
X162520404Y-52649380D02*
X162520404Y-51649380D01*
X162758500Y-51649380D01*
X162901357Y-51697000D01*
X162996595Y-51792238D01*
X163044214Y-51887476D01*
X163091833Y-52077952D01*
X163091833Y-52220809D01*
X163044214Y-52411285D01*
X162996595Y-52506523D01*
X162901357Y-52601761D01*
X162758500Y-52649380D01*
X162520404Y-52649380D01*
X163948976Y-51982714D02*
X163948976Y-52649380D01*
X163710880Y-51601761D02*
X163472785Y-52316047D01*
X164091833Y-52316047D01*
G04 #@! TO.C,D5*
X167917904Y-52649380D02*
X167917904Y-51649380D01*
X168156000Y-51649380D01*
X168298857Y-51697000D01*
X168394095Y-51792238D01*
X168441714Y-51887476D01*
X168489333Y-52077952D01*
X168489333Y-52220809D01*
X168441714Y-52411285D01*
X168394095Y-52506523D01*
X168298857Y-52601761D01*
X168156000Y-52649380D01*
X167917904Y-52649380D01*
X169394095Y-51649380D02*
X168917904Y-51649380D01*
X168870285Y-52125571D01*
X168917904Y-52077952D01*
X169013142Y-52030333D01*
X169251238Y-52030333D01*
X169346476Y-52077952D01*
X169394095Y-52125571D01*
X169441714Y-52220809D01*
X169441714Y-52458904D01*
X169394095Y-52554142D01*
X169346476Y-52601761D01*
X169251238Y-52649380D01*
X169013142Y-52649380D01*
X168917904Y-52601761D01*
X168870285Y-52554142D01*
G04 #@! TO.C,REF3*
D10*
X189083904Y-81102095D02*
X188702952Y-81368761D01*
X189083904Y-81559238D02*
X188283904Y-81559238D01*
X188283904Y-81254476D01*
X188322000Y-81178285D01*
X188360095Y-81140190D01*
X188436285Y-81102095D01*
X188550571Y-81102095D01*
X188626761Y-81140190D01*
X188664857Y-81178285D01*
X188702952Y-81254476D01*
X188702952Y-81559238D01*
X188664857Y-80759238D02*
X188664857Y-80492571D01*
X189083904Y-80378285D02*
X189083904Y-80759238D01*
X188283904Y-80759238D01*
X188283904Y-80378285D01*
X188664857Y-79768761D02*
X188664857Y-80035428D01*
X189083904Y-80035428D02*
X188283904Y-80035428D01*
X188283904Y-79654476D01*
X188283904Y-79425904D02*
X188283904Y-78930666D01*
X188588666Y-79197333D01*
X188588666Y-79083047D01*
X188626761Y-79006857D01*
X188664857Y-78968761D01*
X188741047Y-78930666D01*
X188931523Y-78930666D01*
X189007714Y-78968761D01*
X189045809Y-79006857D01*
X189083904Y-79083047D01*
X189083904Y-79311619D01*
X189045809Y-79387809D01*
X189007714Y-79425904D01*
G04 #@! TD*
M02*
