G04 #@! TF.GenerationSoftware,KiCad,Pcbnew,(5.0.1-3-g963ef8bb5)*
G04 #@! TF.CreationDate,2019-04-05T16:02:28+08:00*
G04 #@! TF.ProjectId,cactus,6361637475732E6B696361645F706362,rev?*
G04 #@! TF.SameCoordinates,Original*
G04 #@! TF.FileFunction,Paste,Top*
G04 #@! TF.FilePolarity,Positive*
%FSLAX46Y46*%
G04 Gerber Fmt 4.6, Leading zero omitted, Abs format (unit mm)*
G04 Created by KiCad (PCBNEW (5.0.1-3-g963ef8bb5)) date 2019 April 05, Friday 16:02:28*
%MOMM*%
%LPD*%
G01*
G04 APERTURE LIST*
%ADD10R,1.500000X1.500000*%
%ADD11R,1.200000X1.200000*%
%ADD12C,0.100000*%
%ADD13C,1.150000*%
G04 APERTURE END LIST*
D10*
G04 #@! TO.C,SW1*
X173842000Y-51774000D03*
D11*
X175192000Y-53624000D03*
X179392000Y-53624000D03*
D10*
X180742000Y-51774000D03*
G04 #@! TD*
D12*
G04 #@! TO.C,D1*
G36*
X148440505Y-53403204D02*
X148464773Y-53406804D01*
X148488572Y-53412765D01*
X148511671Y-53421030D01*
X148533850Y-53431520D01*
X148554893Y-53444132D01*
X148574599Y-53458747D01*
X148592777Y-53475223D01*
X148609253Y-53493401D01*
X148623868Y-53513107D01*
X148636480Y-53534150D01*
X148646970Y-53556329D01*
X148655235Y-53579428D01*
X148661196Y-53603227D01*
X148664796Y-53627495D01*
X148666000Y-53651999D01*
X148666000Y-54552001D01*
X148664796Y-54576505D01*
X148661196Y-54600773D01*
X148655235Y-54624572D01*
X148646970Y-54647671D01*
X148636480Y-54669850D01*
X148623868Y-54690893D01*
X148609253Y-54710599D01*
X148592777Y-54728777D01*
X148574599Y-54745253D01*
X148554893Y-54759868D01*
X148533850Y-54772480D01*
X148511671Y-54782970D01*
X148488572Y-54791235D01*
X148464773Y-54797196D01*
X148440505Y-54800796D01*
X148416001Y-54802000D01*
X147765999Y-54802000D01*
X147741495Y-54800796D01*
X147717227Y-54797196D01*
X147693428Y-54791235D01*
X147670329Y-54782970D01*
X147648150Y-54772480D01*
X147627107Y-54759868D01*
X147607401Y-54745253D01*
X147589223Y-54728777D01*
X147572747Y-54710599D01*
X147558132Y-54690893D01*
X147545520Y-54669850D01*
X147535030Y-54647671D01*
X147526765Y-54624572D01*
X147520804Y-54600773D01*
X147517204Y-54576505D01*
X147516000Y-54552001D01*
X147516000Y-53651999D01*
X147517204Y-53627495D01*
X147520804Y-53603227D01*
X147526765Y-53579428D01*
X147535030Y-53556329D01*
X147545520Y-53534150D01*
X147558132Y-53513107D01*
X147572747Y-53493401D01*
X147589223Y-53475223D01*
X147607401Y-53458747D01*
X147627107Y-53444132D01*
X147648150Y-53431520D01*
X147670329Y-53421030D01*
X147693428Y-53412765D01*
X147717227Y-53406804D01*
X147741495Y-53403204D01*
X147765999Y-53402000D01*
X148416001Y-53402000D01*
X148440505Y-53403204D01*
X148440505Y-53403204D01*
G37*
D13*
X148091000Y-54102000D03*
D12*
G36*
X146390505Y-53403204D02*
X146414773Y-53406804D01*
X146438572Y-53412765D01*
X146461671Y-53421030D01*
X146483850Y-53431520D01*
X146504893Y-53444132D01*
X146524599Y-53458747D01*
X146542777Y-53475223D01*
X146559253Y-53493401D01*
X146573868Y-53513107D01*
X146586480Y-53534150D01*
X146596970Y-53556329D01*
X146605235Y-53579428D01*
X146611196Y-53603227D01*
X146614796Y-53627495D01*
X146616000Y-53651999D01*
X146616000Y-54552001D01*
X146614796Y-54576505D01*
X146611196Y-54600773D01*
X146605235Y-54624572D01*
X146596970Y-54647671D01*
X146586480Y-54669850D01*
X146573868Y-54690893D01*
X146559253Y-54710599D01*
X146542777Y-54728777D01*
X146524599Y-54745253D01*
X146504893Y-54759868D01*
X146483850Y-54772480D01*
X146461671Y-54782970D01*
X146438572Y-54791235D01*
X146414773Y-54797196D01*
X146390505Y-54800796D01*
X146366001Y-54802000D01*
X145715999Y-54802000D01*
X145691495Y-54800796D01*
X145667227Y-54797196D01*
X145643428Y-54791235D01*
X145620329Y-54782970D01*
X145598150Y-54772480D01*
X145577107Y-54759868D01*
X145557401Y-54745253D01*
X145539223Y-54728777D01*
X145522747Y-54710599D01*
X145508132Y-54690893D01*
X145495520Y-54669850D01*
X145485030Y-54647671D01*
X145476765Y-54624572D01*
X145470804Y-54600773D01*
X145467204Y-54576505D01*
X145466000Y-54552001D01*
X145466000Y-53651999D01*
X145467204Y-53627495D01*
X145470804Y-53603227D01*
X145476765Y-53579428D01*
X145485030Y-53556329D01*
X145495520Y-53534150D01*
X145508132Y-53513107D01*
X145522747Y-53493401D01*
X145539223Y-53475223D01*
X145557401Y-53458747D01*
X145577107Y-53444132D01*
X145598150Y-53431520D01*
X145620329Y-53421030D01*
X145643428Y-53412765D01*
X145667227Y-53406804D01*
X145691495Y-53403204D01*
X145715999Y-53402000D01*
X146366001Y-53402000D01*
X146390505Y-53403204D01*
X146390505Y-53403204D01*
G37*
D13*
X146041000Y-54102000D03*
G04 #@! TD*
D12*
G04 #@! TO.C,D2*
G36*
X151788005Y-53403204D02*
X151812273Y-53406804D01*
X151836072Y-53412765D01*
X151859171Y-53421030D01*
X151881350Y-53431520D01*
X151902393Y-53444132D01*
X151922099Y-53458747D01*
X151940277Y-53475223D01*
X151956753Y-53493401D01*
X151971368Y-53513107D01*
X151983980Y-53534150D01*
X151994470Y-53556329D01*
X152002735Y-53579428D01*
X152008696Y-53603227D01*
X152012296Y-53627495D01*
X152013500Y-53651999D01*
X152013500Y-54552001D01*
X152012296Y-54576505D01*
X152008696Y-54600773D01*
X152002735Y-54624572D01*
X151994470Y-54647671D01*
X151983980Y-54669850D01*
X151971368Y-54690893D01*
X151956753Y-54710599D01*
X151940277Y-54728777D01*
X151922099Y-54745253D01*
X151902393Y-54759868D01*
X151881350Y-54772480D01*
X151859171Y-54782970D01*
X151836072Y-54791235D01*
X151812273Y-54797196D01*
X151788005Y-54800796D01*
X151763501Y-54802000D01*
X151113499Y-54802000D01*
X151088995Y-54800796D01*
X151064727Y-54797196D01*
X151040928Y-54791235D01*
X151017829Y-54782970D01*
X150995650Y-54772480D01*
X150974607Y-54759868D01*
X150954901Y-54745253D01*
X150936723Y-54728777D01*
X150920247Y-54710599D01*
X150905632Y-54690893D01*
X150893020Y-54669850D01*
X150882530Y-54647671D01*
X150874265Y-54624572D01*
X150868304Y-54600773D01*
X150864704Y-54576505D01*
X150863500Y-54552001D01*
X150863500Y-53651999D01*
X150864704Y-53627495D01*
X150868304Y-53603227D01*
X150874265Y-53579428D01*
X150882530Y-53556329D01*
X150893020Y-53534150D01*
X150905632Y-53513107D01*
X150920247Y-53493401D01*
X150936723Y-53475223D01*
X150954901Y-53458747D01*
X150974607Y-53444132D01*
X150995650Y-53431520D01*
X151017829Y-53421030D01*
X151040928Y-53412765D01*
X151064727Y-53406804D01*
X151088995Y-53403204D01*
X151113499Y-53402000D01*
X151763501Y-53402000D01*
X151788005Y-53403204D01*
X151788005Y-53403204D01*
G37*
D13*
X151438500Y-54102000D03*
D12*
G36*
X153838005Y-53403204D02*
X153862273Y-53406804D01*
X153886072Y-53412765D01*
X153909171Y-53421030D01*
X153931350Y-53431520D01*
X153952393Y-53444132D01*
X153972099Y-53458747D01*
X153990277Y-53475223D01*
X154006753Y-53493401D01*
X154021368Y-53513107D01*
X154033980Y-53534150D01*
X154044470Y-53556329D01*
X154052735Y-53579428D01*
X154058696Y-53603227D01*
X154062296Y-53627495D01*
X154063500Y-53651999D01*
X154063500Y-54552001D01*
X154062296Y-54576505D01*
X154058696Y-54600773D01*
X154052735Y-54624572D01*
X154044470Y-54647671D01*
X154033980Y-54669850D01*
X154021368Y-54690893D01*
X154006753Y-54710599D01*
X153990277Y-54728777D01*
X153972099Y-54745253D01*
X153952393Y-54759868D01*
X153931350Y-54772480D01*
X153909171Y-54782970D01*
X153886072Y-54791235D01*
X153862273Y-54797196D01*
X153838005Y-54800796D01*
X153813501Y-54802000D01*
X153163499Y-54802000D01*
X153138995Y-54800796D01*
X153114727Y-54797196D01*
X153090928Y-54791235D01*
X153067829Y-54782970D01*
X153045650Y-54772480D01*
X153024607Y-54759868D01*
X153004901Y-54745253D01*
X152986723Y-54728777D01*
X152970247Y-54710599D01*
X152955632Y-54690893D01*
X152943020Y-54669850D01*
X152932530Y-54647671D01*
X152924265Y-54624572D01*
X152918304Y-54600773D01*
X152914704Y-54576505D01*
X152913500Y-54552001D01*
X152913500Y-53651999D01*
X152914704Y-53627495D01*
X152918304Y-53603227D01*
X152924265Y-53579428D01*
X152932530Y-53556329D01*
X152943020Y-53534150D01*
X152955632Y-53513107D01*
X152970247Y-53493401D01*
X152986723Y-53475223D01*
X153004901Y-53458747D01*
X153024607Y-53444132D01*
X153045650Y-53431520D01*
X153067829Y-53421030D01*
X153090928Y-53412765D01*
X153114727Y-53406804D01*
X153138995Y-53403204D01*
X153163499Y-53402000D01*
X153813501Y-53402000D01*
X153838005Y-53403204D01*
X153838005Y-53403204D01*
G37*
D13*
X153488500Y-54102000D03*
G04 #@! TD*
D12*
G04 #@! TO.C,D3*
G36*
X159235505Y-53403204D02*
X159259773Y-53406804D01*
X159283572Y-53412765D01*
X159306671Y-53421030D01*
X159328850Y-53431520D01*
X159349893Y-53444132D01*
X159369599Y-53458747D01*
X159387777Y-53475223D01*
X159404253Y-53493401D01*
X159418868Y-53513107D01*
X159431480Y-53534150D01*
X159441970Y-53556329D01*
X159450235Y-53579428D01*
X159456196Y-53603227D01*
X159459796Y-53627495D01*
X159461000Y-53651999D01*
X159461000Y-54552001D01*
X159459796Y-54576505D01*
X159456196Y-54600773D01*
X159450235Y-54624572D01*
X159441970Y-54647671D01*
X159431480Y-54669850D01*
X159418868Y-54690893D01*
X159404253Y-54710599D01*
X159387777Y-54728777D01*
X159369599Y-54745253D01*
X159349893Y-54759868D01*
X159328850Y-54772480D01*
X159306671Y-54782970D01*
X159283572Y-54791235D01*
X159259773Y-54797196D01*
X159235505Y-54800796D01*
X159211001Y-54802000D01*
X158560999Y-54802000D01*
X158536495Y-54800796D01*
X158512227Y-54797196D01*
X158488428Y-54791235D01*
X158465329Y-54782970D01*
X158443150Y-54772480D01*
X158422107Y-54759868D01*
X158402401Y-54745253D01*
X158384223Y-54728777D01*
X158367747Y-54710599D01*
X158353132Y-54690893D01*
X158340520Y-54669850D01*
X158330030Y-54647671D01*
X158321765Y-54624572D01*
X158315804Y-54600773D01*
X158312204Y-54576505D01*
X158311000Y-54552001D01*
X158311000Y-53651999D01*
X158312204Y-53627495D01*
X158315804Y-53603227D01*
X158321765Y-53579428D01*
X158330030Y-53556329D01*
X158340520Y-53534150D01*
X158353132Y-53513107D01*
X158367747Y-53493401D01*
X158384223Y-53475223D01*
X158402401Y-53458747D01*
X158422107Y-53444132D01*
X158443150Y-53431520D01*
X158465329Y-53421030D01*
X158488428Y-53412765D01*
X158512227Y-53406804D01*
X158536495Y-53403204D01*
X158560999Y-53402000D01*
X159211001Y-53402000D01*
X159235505Y-53403204D01*
X159235505Y-53403204D01*
G37*
D13*
X158886000Y-54102000D03*
D12*
G36*
X157185505Y-53403204D02*
X157209773Y-53406804D01*
X157233572Y-53412765D01*
X157256671Y-53421030D01*
X157278850Y-53431520D01*
X157299893Y-53444132D01*
X157319599Y-53458747D01*
X157337777Y-53475223D01*
X157354253Y-53493401D01*
X157368868Y-53513107D01*
X157381480Y-53534150D01*
X157391970Y-53556329D01*
X157400235Y-53579428D01*
X157406196Y-53603227D01*
X157409796Y-53627495D01*
X157411000Y-53651999D01*
X157411000Y-54552001D01*
X157409796Y-54576505D01*
X157406196Y-54600773D01*
X157400235Y-54624572D01*
X157391970Y-54647671D01*
X157381480Y-54669850D01*
X157368868Y-54690893D01*
X157354253Y-54710599D01*
X157337777Y-54728777D01*
X157319599Y-54745253D01*
X157299893Y-54759868D01*
X157278850Y-54772480D01*
X157256671Y-54782970D01*
X157233572Y-54791235D01*
X157209773Y-54797196D01*
X157185505Y-54800796D01*
X157161001Y-54802000D01*
X156510999Y-54802000D01*
X156486495Y-54800796D01*
X156462227Y-54797196D01*
X156438428Y-54791235D01*
X156415329Y-54782970D01*
X156393150Y-54772480D01*
X156372107Y-54759868D01*
X156352401Y-54745253D01*
X156334223Y-54728777D01*
X156317747Y-54710599D01*
X156303132Y-54690893D01*
X156290520Y-54669850D01*
X156280030Y-54647671D01*
X156271765Y-54624572D01*
X156265804Y-54600773D01*
X156262204Y-54576505D01*
X156261000Y-54552001D01*
X156261000Y-53651999D01*
X156262204Y-53627495D01*
X156265804Y-53603227D01*
X156271765Y-53579428D01*
X156280030Y-53556329D01*
X156290520Y-53534150D01*
X156303132Y-53513107D01*
X156317747Y-53493401D01*
X156334223Y-53475223D01*
X156352401Y-53458747D01*
X156372107Y-53444132D01*
X156393150Y-53431520D01*
X156415329Y-53421030D01*
X156438428Y-53412765D01*
X156462227Y-53406804D01*
X156486495Y-53403204D01*
X156510999Y-53402000D01*
X157161001Y-53402000D01*
X157185505Y-53403204D01*
X157185505Y-53403204D01*
G37*
D13*
X156836000Y-54102000D03*
G04 #@! TD*
D12*
G04 #@! TO.C,D4*
G36*
X162583005Y-53403204D02*
X162607273Y-53406804D01*
X162631072Y-53412765D01*
X162654171Y-53421030D01*
X162676350Y-53431520D01*
X162697393Y-53444132D01*
X162717099Y-53458747D01*
X162735277Y-53475223D01*
X162751753Y-53493401D01*
X162766368Y-53513107D01*
X162778980Y-53534150D01*
X162789470Y-53556329D01*
X162797735Y-53579428D01*
X162803696Y-53603227D01*
X162807296Y-53627495D01*
X162808500Y-53651999D01*
X162808500Y-54552001D01*
X162807296Y-54576505D01*
X162803696Y-54600773D01*
X162797735Y-54624572D01*
X162789470Y-54647671D01*
X162778980Y-54669850D01*
X162766368Y-54690893D01*
X162751753Y-54710599D01*
X162735277Y-54728777D01*
X162717099Y-54745253D01*
X162697393Y-54759868D01*
X162676350Y-54772480D01*
X162654171Y-54782970D01*
X162631072Y-54791235D01*
X162607273Y-54797196D01*
X162583005Y-54800796D01*
X162558501Y-54802000D01*
X161908499Y-54802000D01*
X161883995Y-54800796D01*
X161859727Y-54797196D01*
X161835928Y-54791235D01*
X161812829Y-54782970D01*
X161790650Y-54772480D01*
X161769607Y-54759868D01*
X161749901Y-54745253D01*
X161731723Y-54728777D01*
X161715247Y-54710599D01*
X161700632Y-54690893D01*
X161688020Y-54669850D01*
X161677530Y-54647671D01*
X161669265Y-54624572D01*
X161663304Y-54600773D01*
X161659704Y-54576505D01*
X161658500Y-54552001D01*
X161658500Y-53651999D01*
X161659704Y-53627495D01*
X161663304Y-53603227D01*
X161669265Y-53579428D01*
X161677530Y-53556329D01*
X161688020Y-53534150D01*
X161700632Y-53513107D01*
X161715247Y-53493401D01*
X161731723Y-53475223D01*
X161749901Y-53458747D01*
X161769607Y-53444132D01*
X161790650Y-53431520D01*
X161812829Y-53421030D01*
X161835928Y-53412765D01*
X161859727Y-53406804D01*
X161883995Y-53403204D01*
X161908499Y-53402000D01*
X162558501Y-53402000D01*
X162583005Y-53403204D01*
X162583005Y-53403204D01*
G37*
D13*
X162233500Y-54102000D03*
D12*
G36*
X164633005Y-53403204D02*
X164657273Y-53406804D01*
X164681072Y-53412765D01*
X164704171Y-53421030D01*
X164726350Y-53431520D01*
X164747393Y-53444132D01*
X164767099Y-53458747D01*
X164785277Y-53475223D01*
X164801753Y-53493401D01*
X164816368Y-53513107D01*
X164828980Y-53534150D01*
X164839470Y-53556329D01*
X164847735Y-53579428D01*
X164853696Y-53603227D01*
X164857296Y-53627495D01*
X164858500Y-53651999D01*
X164858500Y-54552001D01*
X164857296Y-54576505D01*
X164853696Y-54600773D01*
X164847735Y-54624572D01*
X164839470Y-54647671D01*
X164828980Y-54669850D01*
X164816368Y-54690893D01*
X164801753Y-54710599D01*
X164785277Y-54728777D01*
X164767099Y-54745253D01*
X164747393Y-54759868D01*
X164726350Y-54772480D01*
X164704171Y-54782970D01*
X164681072Y-54791235D01*
X164657273Y-54797196D01*
X164633005Y-54800796D01*
X164608501Y-54802000D01*
X163958499Y-54802000D01*
X163933995Y-54800796D01*
X163909727Y-54797196D01*
X163885928Y-54791235D01*
X163862829Y-54782970D01*
X163840650Y-54772480D01*
X163819607Y-54759868D01*
X163799901Y-54745253D01*
X163781723Y-54728777D01*
X163765247Y-54710599D01*
X163750632Y-54690893D01*
X163738020Y-54669850D01*
X163727530Y-54647671D01*
X163719265Y-54624572D01*
X163713304Y-54600773D01*
X163709704Y-54576505D01*
X163708500Y-54552001D01*
X163708500Y-53651999D01*
X163709704Y-53627495D01*
X163713304Y-53603227D01*
X163719265Y-53579428D01*
X163727530Y-53556329D01*
X163738020Y-53534150D01*
X163750632Y-53513107D01*
X163765247Y-53493401D01*
X163781723Y-53475223D01*
X163799901Y-53458747D01*
X163819607Y-53444132D01*
X163840650Y-53431520D01*
X163862829Y-53421030D01*
X163885928Y-53412765D01*
X163909727Y-53406804D01*
X163933995Y-53403204D01*
X163958499Y-53402000D01*
X164608501Y-53402000D01*
X164633005Y-53403204D01*
X164633005Y-53403204D01*
G37*
D13*
X164283500Y-54102000D03*
G04 #@! TD*
D12*
G04 #@! TO.C,D5*
G36*
X170030505Y-53403204D02*
X170054773Y-53406804D01*
X170078572Y-53412765D01*
X170101671Y-53421030D01*
X170123850Y-53431520D01*
X170144893Y-53444132D01*
X170164599Y-53458747D01*
X170182777Y-53475223D01*
X170199253Y-53493401D01*
X170213868Y-53513107D01*
X170226480Y-53534150D01*
X170236970Y-53556329D01*
X170245235Y-53579428D01*
X170251196Y-53603227D01*
X170254796Y-53627495D01*
X170256000Y-53651999D01*
X170256000Y-54552001D01*
X170254796Y-54576505D01*
X170251196Y-54600773D01*
X170245235Y-54624572D01*
X170236970Y-54647671D01*
X170226480Y-54669850D01*
X170213868Y-54690893D01*
X170199253Y-54710599D01*
X170182777Y-54728777D01*
X170164599Y-54745253D01*
X170144893Y-54759868D01*
X170123850Y-54772480D01*
X170101671Y-54782970D01*
X170078572Y-54791235D01*
X170054773Y-54797196D01*
X170030505Y-54800796D01*
X170006001Y-54802000D01*
X169355999Y-54802000D01*
X169331495Y-54800796D01*
X169307227Y-54797196D01*
X169283428Y-54791235D01*
X169260329Y-54782970D01*
X169238150Y-54772480D01*
X169217107Y-54759868D01*
X169197401Y-54745253D01*
X169179223Y-54728777D01*
X169162747Y-54710599D01*
X169148132Y-54690893D01*
X169135520Y-54669850D01*
X169125030Y-54647671D01*
X169116765Y-54624572D01*
X169110804Y-54600773D01*
X169107204Y-54576505D01*
X169106000Y-54552001D01*
X169106000Y-53651999D01*
X169107204Y-53627495D01*
X169110804Y-53603227D01*
X169116765Y-53579428D01*
X169125030Y-53556329D01*
X169135520Y-53534150D01*
X169148132Y-53513107D01*
X169162747Y-53493401D01*
X169179223Y-53475223D01*
X169197401Y-53458747D01*
X169217107Y-53444132D01*
X169238150Y-53431520D01*
X169260329Y-53421030D01*
X169283428Y-53412765D01*
X169307227Y-53406804D01*
X169331495Y-53403204D01*
X169355999Y-53402000D01*
X170006001Y-53402000D01*
X170030505Y-53403204D01*
X170030505Y-53403204D01*
G37*
D13*
X169681000Y-54102000D03*
D12*
G36*
X167980505Y-53403204D02*
X168004773Y-53406804D01*
X168028572Y-53412765D01*
X168051671Y-53421030D01*
X168073850Y-53431520D01*
X168094893Y-53444132D01*
X168114599Y-53458747D01*
X168132777Y-53475223D01*
X168149253Y-53493401D01*
X168163868Y-53513107D01*
X168176480Y-53534150D01*
X168186970Y-53556329D01*
X168195235Y-53579428D01*
X168201196Y-53603227D01*
X168204796Y-53627495D01*
X168206000Y-53651999D01*
X168206000Y-54552001D01*
X168204796Y-54576505D01*
X168201196Y-54600773D01*
X168195235Y-54624572D01*
X168186970Y-54647671D01*
X168176480Y-54669850D01*
X168163868Y-54690893D01*
X168149253Y-54710599D01*
X168132777Y-54728777D01*
X168114599Y-54745253D01*
X168094893Y-54759868D01*
X168073850Y-54772480D01*
X168051671Y-54782970D01*
X168028572Y-54791235D01*
X168004773Y-54797196D01*
X167980505Y-54800796D01*
X167956001Y-54802000D01*
X167305999Y-54802000D01*
X167281495Y-54800796D01*
X167257227Y-54797196D01*
X167233428Y-54791235D01*
X167210329Y-54782970D01*
X167188150Y-54772480D01*
X167167107Y-54759868D01*
X167147401Y-54745253D01*
X167129223Y-54728777D01*
X167112747Y-54710599D01*
X167098132Y-54690893D01*
X167085520Y-54669850D01*
X167075030Y-54647671D01*
X167066765Y-54624572D01*
X167060804Y-54600773D01*
X167057204Y-54576505D01*
X167056000Y-54552001D01*
X167056000Y-53651999D01*
X167057204Y-53627495D01*
X167060804Y-53603227D01*
X167066765Y-53579428D01*
X167075030Y-53556329D01*
X167085520Y-53534150D01*
X167098132Y-53513107D01*
X167112747Y-53493401D01*
X167129223Y-53475223D01*
X167147401Y-53458747D01*
X167167107Y-53444132D01*
X167188150Y-53431520D01*
X167210329Y-53421030D01*
X167233428Y-53412765D01*
X167257227Y-53406804D01*
X167281495Y-53403204D01*
X167305999Y-53402000D01*
X167956001Y-53402000D01*
X167980505Y-53403204D01*
X167980505Y-53403204D01*
G37*
D13*
X167631000Y-54102000D03*
G04 #@! TD*
M02*
