G04 #@! TF.GenerationSoftware,KiCad,Pcbnew,(5.0.1-3-g963ef8bb5)*
G04 #@! TF.CreationDate,2019-04-05T16:02:28+08:00*
G04 #@! TF.ProjectId,cactus,6361637475732E6B696361645F706362,rev?*
G04 #@! TF.SameCoordinates,Original*
G04 #@! TF.FileFunction,Soldermask,Bot*
G04 #@! TF.FilePolarity,Negative*
%FSLAX46Y46*%
G04 Gerber Fmt 4.6, Leading zero omitted, Abs format (unit mm)*
G04 Created by KiCad (PCBNEW (5.0.1-3-g963ef8bb5)) date 2019 April 05, Friday 16:02:28*
%MOMM*%
%LPD*%
G01*
G04 APERTURE LIST*
%ADD10C,0.100000*%
G04 APERTURE END LIST*
D10*
G36*
X185174812Y-84731624D02*
X185338784Y-84799544D01*
X185486354Y-84898147D01*
X185611853Y-85023646D01*
X185710456Y-85171216D01*
X185778376Y-85335188D01*
X185813000Y-85509259D01*
X185813000Y-85686741D01*
X185778376Y-85860812D01*
X185710456Y-86024784D01*
X185611853Y-86172354D01*
X185486354Y-86297853D01*
X185338784Y-86396456D01*
X185174812Y-86464376D01*
X185000741Y-86499000D01*
X184823259Y-86499000D01*
X184649188Y-86464376D01*
X184485216Y-86396456D01*
X184337646Y-86297853D01*
X184212147Y-86172354D01*
X184113544Y-86024784D01*
X184045624Y-85860812D01*
X184011000Y-85686741D01*
X184011000Y-85509259D01*
X184045624Y-85335188D01*
X184113544Y-85171216D01*
X184212147Y-85023646D01*
X184337646Y-84898147D01*
X184485216Y-84799544D01*
X184649188Y-84731624D01*
X184823259Y-84697000D01*
X185000741Y-84697000D01*
X185174812Y-84731624D01*
X185174812Y-84731624D01*
G37*
G36*
X182482443Y-84703519D02*
X182548627Y-84710037D01*
X182661853Y-84744384D01*
X182718467Y-84761557D01*
X182857087Y-84835652D01*
X182874991Y-84845222D01*
X182909084Y-84873202D01*
X183012186Y-84957814D01*
X183095448Y-85059271D01*
X183124778Y-85095009D01*
X183124779Y-85095011D01*
X183208443Y-85251533D01*
X183208443Y-85251534D01*
X183259963Y-85421373D01*
X183277359Y-85598000D01*
X183259963Y-85774627D01*
X183233819Y-85860812D01*
X183208443Y-85944467D01*
X183165513Y-86024782D01*
X183124778Y-86100991D01*
X183095448Y-86136729D01*
X183012186Y-86238186D01*
X182939480Y-86297853D01*
X182874991Y-86350778D01*
X182874989Y-86350779D01*
X182718467Y-86434443D01*
X182661853Y-86451616D01*
X182548627Y-86485963D01*
X182482442Y-86492482D01*
X182416260Y-86499000D01*
X182327740Y-86499000D01*
X182261558Y-86492482D01*
X182195373Y-86485963D01*
X182082147Y-86451616D01*
X182025533Y-86434443D01*
X181869011Y-86350779D01*
X181869009Y-86350778D01*
X181804520Y-86297853D01*
X181731814Y-86238186D01*
X181648552Y-86136729D01*
X181619222Y-86100991D01*
X181578487Y-86024782D01*
X181535557Y-85944467D01*
X181510181Y-85860812D01*
X181484037Y-85774627D01*
X181466641Y-85598000D01*
X181484037Y-85421373D01*
X181535557Y-85251534D01*
X181535557Y-85251533D01*
X181619221Y-85095011D01*
X181619222Y-85095009D01*
X181648552Y-85059271D01*
X181731814Y-84957814D01*
X181834916Y-84873202D01*
X181869009Y-84845222D01*
X181886913Y-84835652D01*
X182025533Y-84761557D01*
X182082147Y-84744384D01*
X182195373Y-84710037D01*
X182261557Y-84703519D01*
X182327740Y-84697000D01*
X182416260Y-84697000D01*
X182482443Y-84703519D01*
X182482443Y-84703519D01*
G37*
G36*
X179942443Y-84703519D02*
X180008627Y-84710037D01*
X180121853Y-84744384D01*
X180178467Y-84761557D01*
X180317087Y-84835652D01*
X180334991Y-84845222D01*
X180369084Y-84873202D01*
X180472186Y-84957814D01*
X180555448Y-85059271D01*
X180584778Y-85095009D01*
X180584779Y-85095011D01*
X180668443Y-85251533D01*
X180668443Y-85251534D01*
X180719963Y-85421373D01*
X180737359Y-85598000D01*
X180719963Y-85774627D01*
X180693819Y-85860812D01*
X180668443Y-85944467D01*
X180625513Y-86024782D01*
X180584778Y-86100991D01*
X180555448Y-86136729D01*
X180472186Y-86238186D01*
X180399480Y-86297853D01*
X180334991Y-86350778D01*
X180334989Y-86350779D01*
X180178467Y-86434443D01*
X180121853Y-86451616D01*
X180008627Y-86485963D01*
X179942442Y-86492482D01*
X179876260Y-86499000D01*
X179787740Y-86499000D01*
X179721558Y-86492482D01*
X179655373Y-86485963D01*
X179542147Y-86451616D01*
X179485533Y-86434443D01*
X179329011Y-86350779D01*
X179329009Y-86350778D01*
X179264520Y-86297853D01*
X179191814Y-86238186D01*
X179108552Y-86136729D01*
X179079222Y-86100991D01*
X179038487Y-86024782D01*
X178995557Y-85944467D01*
X178970181Y-85860812D01*
X178944037Y-85774627D01*
X178926641Y-85598000D01*
X178944037Y-85421373D01*
X178995557Y-85251534D01*
X178995557Y-85251533D01*
X179079221Y-85095011D01*
X179079222Y-85095009D01*
X179108552Y-85059271D01*
X179191814Y-84957814D01*
X179294916Y-84873202D01*
X179329009Y-84845222D01*
X179346913Y-84835652D01*
X179485533Y-84761557D01*
X179542147Y-84744384D01*
X179655373Y-84710037D01*
X179721557Y-84703519D01*
X179787740Y-84697000D01*
X179876260Y-84697000D01*
X179942443Y-84703519D01*
X179942443Y-84703519D01*
G37*
G36*
X177402443Y-84703519D02*
X177468627Y-84710037D01*
X177581853Y-84744384D01*
X177638467Y-84761557D01*
X177777087Y-84835652D01*
X177794991Y-84845222D01*
X177829084Y-84873202D01*
X177932186Y-84957814D01*
X178015448Y-85059271D01*
X178044778Y-85095009D01*
X178044779Y-85095011D01*
X178128443Y-85251533D01*
X178128443Y-85251534D01*
X178179963Y-85421373D01*
X178197359Y-85598000D01*
X178179963Y-85774627D01*
X178153819Y-85860812D01*
X178128443Y-85944467D01*
X178085513Y-86024782D01*
X178044778Y-86100991D01*
X178015448Y-86136729D01*
X177932186Y-86238186D01*
X177859480Y-86297853D01*
X177794991Y-86350778D01*
X177794989Y-86350779D01*
X177638467Y-86434443D01*
X177581853Y-86451616D01*
X177468627Y-86485963D01*
X177402442Y-86492482D01*
X177336260Y-86499000D01*
X177247740Y-86499000D01*
X177181558Y-86492482D01*
X177115373Y-86485963D01*
X177002147Y-86451616D01*
X176945533Y-86434443D01*
X176789011Y-86350779D01*
X176789009Y-86350778D01*
X176724520Y-86297853D01*
X176651814Y-86238186D01*
X176568552Y-86136729D01*
X176539222Y-86100991D01*
X176498487Y-86024782D01*
X176455557Y-85944467D01*
X176430181Y-85860812D01*
X176404037Y-85774627D01*
X176386641Y-85598000D01*
X176404037Y-85421373D01*
X176455557Y-85251534D01*
X176455557Y-85251533D01*
X176539221Y-85095011D01*
X176539222Y-85095009D01*
X176568552Y-85059271D01*
X176651814Y-84957814D01*
X176754916Y-84873202D01*
X176789009Y-84845222D01*
X176806913Y-84835652D01*
X176945533Y-84761557D01*
X177002147Y-84744384D01*
X177115373Y-84710037D01*
X177181557Y-84703519D01*
X177247740Y-84697000D01*
X177336260Y-84697000D01*
X177402443Y-84703519D01*
X177402443Y-84703519D01*
G37*
G36*
X174862443Y-84703519D02*
X174928627Y-84710037D01*
X175041853Y-84744384D01*
X175098467Y-84761557D01*
X175237087Y-84835652D01*
X175254991Y-84845222D01*
X175289084Y-84873202D01*
X175392186Y-84957814D01*
X175475448Y-85059271D01*
X175504778Y-85095009D01*
X175504779Y-85095011D01*
X175588443Y-85251533D01*
X175588443Y-85251534D01*
X175639963Y-85421373D01*
X175657359Y-85598000D01*
X175639963Y-85774627D01*
X175613819Y-85860812D01*
X175588443Y-85944467D01*
X175545513Y-86024782D01*
X175504778Y-86100991D01*
X175475448Y-86136729D01*
X175392186Y-86238186D01*
X175319480Y-86297853D01*
X175254991Y-86350778D01*
X175254989Y-86350779D01*
X175098467Y-86434443D01*
X175041853Y-86451616D01*
X174928627Y-86485963D01*
X174862442Y-86492482D01*
X174796260Y-86499000D01*
X174707740Y-86499000D01*
X174641558Y-86492482D01*
X174575373Y-86485963D01*
X174462147Y-86451616D01*
X174405533Y-86434443D01*
X174249011Y-86350779D01*
X174249009Y-86350778D01*
X174184520Y-86297853D01*
X174111814Y-86238186D01*
X174028552Y-86136729D01*
X173999222Y-86100991D01*
X173958487Y-86024782D01*
X173915557Y-85944467D01*
X173890181Y-85860812D01*
X173864037Y-85774627D01*
X173846641Y-85598000D01*
X173864037Y-85421373D01*
X173915557Y-85251534D01*
X173915557Y-85251533D01*
X173999221Y-85095011D01*
X173999222Y-85095009D01*
X174028552Y-85059271D01*
X174111814Y-84957814D01*
X174214916Y-84873202D01*
X174249009Y-84845222D01*
X174266913Y-84835652D01*
X174405533Y-84761557D01*
X174462147Y-84744384D01*
X174575373Y-84710037D01*
X174641557Y-84703519D01*
X174707740Y-84697000D01*
X174796260Y-84697000D01*
X174862443Y-84703519D01*
X174862443Y-84703519D01*
G37*
G36*
X118699734Y-83221232D02*
X118909202Y-83307996D01*
X119097723Y-83433962D01*
X119258038Y-83594277D01*
X119384004Y-83782798D01*
X119470768Y-83992266D01*
X119515000Y-84214635D01*
X119515000Y-84441365D01*
X119470768Y-84663734D01*
X119384004Y-84873202D01*
X119258038Y-85061723D01*
X119097723Y-85222038D01*
X118909202Y-85348004D01*
X118699734Y-85434768D01*
X118477365Y-85479000D01*
X118250635Y-85479000D01*
X118028266Y-85434768D01*
X117818798Y-85348004D01*
X117630277Y-85222038D01*
X117469962Y-85061723D01*
X117343996Y-84873202D01*
X117257232Y-84663734D01*
X117213000Y-84441365D01*
X117213000Y-84214635D01*
X117257232Y-83992266D01*
X117343996Y-83782798D01*
X117469962Y-83594277D01*
X117630277Y-83433962D01*
X117818798Y-83307996D01*
X118028266Y-83221232D01*
X118250635Y-83177000D01*
X118477365Y-83177000D01*
X118699734Y-83221232D01*
X118699734Y-83221232D01*
G37*
G36*
X177510677Y-80279465D02*
X177548364Y-80290898D01*
X177583103Y-80309466D01*
X177613548Y-80334452D01*
X177638534Y-80364897D01*
X177657102Y-80399636D01*
X177668535Y-80437323D01*
X177673000Y-80482661D01*
X177673000Y-81569339D01*
X177668535Y-81614677D01*
X177657102Y-81652364D01*
X177638534Y-81687103D01*
X177613548Y-81717548D01*
X177583103Y-81742534D01*
X177548364Y-81761102D01*
X177510677Y-81772535D01*
X177465339Y-81777000D01*
X176628661Y-81777000D01*
X176583323Y-81772535D01*
X176545636Y-81761102D01*
X176510897Y-81742534D01*
X176480452Y-81717548D01*
X176455466Y-81687103D01*
X176436898Y-81652364D01*
X176425465Y-81614677D01*
X176421000Y-81569339D01*
X176421000Y-80482661D01*
X176425465Y-80437323D01*
X176436898Y-80399636D01*
X176455466Y-80364897D01*
X176480452Y-80334452D01*
X176510897Y-80309466D01*
X176545636Y-80290898D01*
X176583323Y-80279465D01*
X176628661Y-80275000D01*
X177465339Y-80275000D01*
X177510677Y-80279465D01*
X177510677Y-80279465D01*
G37*
G36*
X175460677Y-80279465D02*
X175498364Y-80290898D01*
X175533103Y-80309466D01*
X175563548Y-80334452D01*
X175588534Y-80364897D01*
X175607102Y-80399636D01*
X175618535Y-80437323D01*
X175623000Y-80482661D01*
X175623000Y-81569339D01*
X175618535Y-81614677D01*
X175607102Y-81652364D01*
X175588534Y-81687103D01*
X175563548Y-81717548D01*
X175533103Y-81742534D01*
X175498364Y-81761102D01*
X175460677Y-81772535D01*
X175415339Y-81777000D01*
X174578661Y-81777000D01*
X174533323Y-81772535D01*
X174495636Y-81761102D01*
X174460897Y-81742534D01*
X174430452Y-81717548D01*
X174405466Y-81687103D01*
X174386898Y-81652364D01*
X174375465Y-81614677D01*
X174371000Y-81569339D01*
X174371000Y-80482661D01*
X174375465Y-80437323D01*
X174386898Y-80399636D01*
X174405466Y-80364897D01*
X174430452Y-80334452D01*
X174460897Y-80309466D01*
X174495636Y-80290898D01*
X174533323Y-80279465D01*
X174578661Y-80275000D01*
X175415339Y-80275000D01*
X175460677Y-80279465D01*
X175460677Y-80279465D01*
G37*
G36*
X186009734Y-79157232D02*
X186219202Y-79243996D01*
X186407723Y-79369962D01*
X186568038Y-79530277D01*
X186694004Y-79718798D01*
X186780768Y-79928266D01*
X186825000Y-80150635D01*
X186825000Y-80377365D01*
X186780768Y-80599734D01*
X186694004Y-80809202D01*
X186568038Y-80997723D01*
X186407723Y-81158038D01*
X186219202Y-81284004D01*
X186009734Y-81370768D01*
X185787365Y-81415000D01*
X185560635Y-81415000D01*
X185338266Y-81370768D01*
X185128798Y-81284004D01*
X184940277Y-81158038D01*
X184779962Y-80997723D01*
X184653996Y-80809202D01*
X184567232Y-80599734D01*
X184523000Y-80377365D01*
X184523000Y-80150635D01*
X184567232Y-79928266D01*
X184653996Y-79718798D01*
X184779962Y-79530277D01*
X184940277Y-79369962D01*
X185128798Y-79243996D01*
X185338266Y-79157232D01*
X185560635Y-79113000D01*
X185787365Y-79113000D01*
X186009734Y-79157232D01*
X186009734Y-79157232D01*
G37*
G36*
X169822396Y-79095546D02*
X169995466Y-79167234D01*
X170151230Y-79271312D01*
X170283688Y-79403770D01*
X170387766Y-79559534D01*
X170459454Y-79732604D01*
X170496000Y-79916333D01*
X170496000Y-80103667D01*
X170459454Y-80287396D01*
X170387766Y-80460466D01*
X170283688Y-80616230D01*
X170151230Y-80748688D01*
X169995466Y-80852766D01*
X169822396Y-80924454D01*
X169638667Y-80961000D01*
X169451333Y-80961000D01*
X169267604Y-80924454D01*
X169094534Y-80852766D01*
X168938770Y-80748688D01*
X168806312Y-80616230D01*
X168702234Y-80460466D01*
X168630546Y-80287396D01*
X168594000Y-80103667D01*
X168594000Y-79916333D01*
X168630546Y-79732604D01*
X168702234Y-79559534D01*
X168806312Y-79403770D01*
X168938770Y-79271312D01*
X169094534Y-79167234D01*
X169267604Y-79095546D01*
X169451333Y-79059000D01*
X169638667Y-79059000D01*
X169822396Y-79095546D01*
X169822396Y-79095546D01*
G37*
G36*
X146962396Y-79095546D02*
X147135466Y-79167234D01*
X147291230Y-79271312D01*
X147423688Y-79403770D01*
X147527766Y-79559534D01*
X147599454Y-79732604D01*
X147636000Y-79916333D01*
X147636000Y-80103667D01*
X147599454Y-80287396D01*
X147527766Y-80460466D01*
X147423688Y-80616230D01*
X147291230Y-80748688D01*
X147135466Y-80852766D01*
X146962396Y-80924454D01*
X146778667Y-80961000D01*
X146591333Y-80961000D01*
X146407604Y-80924454D01*
X146234534Y-80852766D01*
X146078770Y-80748688D01*
X145946312Y-80616230D01*
X145842234Y-80460466D01*
X145770546Y-80287396D01*
X145734000Y-80103667D01*
X145734000Y-79916333D01*
X145770546Y-79732604D01*
X145842234Y-79559534D01*
X145946312Y-79403770D01*
X146078770Y-79271312D01*
X146234534Y-79167234D01*
X146407604Y-79095546D01*
X146591333Y-79059000D01*
X146778667Y-79059000D01*
X146962396Y-79095546D01*
X146962396Y-79095546D01*
G37*
G36*
X141628396Y-79032046D02*
X141801466Y-79103734D01*
X141957230Y-79207812D01*
X142089688Y-79340270D01*
X142193766Y-79496034D01*
X142265454Y-79669104D01*
X142302000Y-79852833D01*
X142302000Y-80040167D01*
X142265454Y-80223896D01*
X142193766Y-80396966D01*
X142089688Y-80552730D01*
X141957230Y-80685188D01*
X141801466Y-80789266D01*
X141628396Y-80860954D01*
X141444667Y-80897500D01*
X141257333Y-80897500D01*
X141073604Y-80860954D01*
X140900534Y-80789266D01*
X140744770Y-80685188D01*
X140612312Y-80552730D01*
X140508234Y-80396966D01*
X140436546Y-80223896D01*
X140400000Y-80040167D01*
X140400000Y-79852833D01*
X140436546Y-79669104D01*
X140508234Y-79496034D01*
X140612312Y-79340270D01*
X140744770Y-79207812D01*
X140900534Y-79103734D01*
X141073604Y-79032046D01*
X141257333Y-78995500D01*
X141444667Y-78995500D01*
X141628396Y-79032046D01*
X141628396Y-79032046D01*
G37*
G36*
X118768396Y-79032046D02*
X118941466Y-79103734D01*
X119097230Y-79207812D01*
X119229688Y-79340270D01*
X119333766Y-79496034D01*
X119405454Y-79669104D01*
X119442000Y-79852833D01*
X119442000Y-80040167D01*
X119405454Y-80223896D01*
X119333766Y-80396966D01*
X119229688Y-80552730D01*
X119097230Y-80685188D01*
X118941466Y-80789266D01*
X118768396Y-80860954D01*
X118584667Y-80897500D01*
X118397333Y-80897500D01*
X118213604Y-80860954D01*
X118040534Y-80789266D01*
X117884770Y-80685188D01*
X117752312Y-80552730D01*
X117648234Y-80396966D01*
X117576546Y-80223896D01*
X117540000Y-80040167D01*
X117540000Y-79852833D01*
X117576546Y-79669104D01*
X117648234Y-79496034D01*
X117752312Y-79340270D01*
X117884770Y-79207812D01*
X118040534Y-79103734D01*
X118213604Y-79032046D01*
X118397333Y-78995500D01*
X118584667Y-78995500D01*
X118768396Y-79032046D01*
X118768396Y-79032046D01*
G37*
G36*
X131545677Y-77231465D02*
X131583364Y-77242898D01*
X131618103Y-77261466D01*
X131648548Y-77286452D01*
X131673534Y-77316897D01*
X131692102Y-77351636D01*
X131703535Y-77389323D01*
X131708000Y-77434661D01*
X131708000Y-78521339D01*
X131703535Y-78566677D01*
X131692102Y-78604364D01*
X131673534Y-78639103D01*
X131648548Y-78669548D01*
X131618103Y-78694534D01*
X131583364Y-78713102D01*
X131545677Y-78724535D01*
X131500339Y-78729000D01*
X130663661Y-78729000D01*
X130618323Y-78724535D01*
X130580636Y-78713102D01*
X130545897Y-78694534D01*
X130515452Y-78669548D01*
X130490466Y-78639103D01*
X130471898Y-78604364D01*
X130460465Y-78566677D01*
X130456000Y-78521339D01*
X130456000Y-77434661D01*
X130460465Y-77389323D01*
X130471898Y-77351636D01*
X130490466Y-77316897D01*
X130515452Y-77286452D01*
X130545897Y-77261466D01*
X130580636Y-77242898D01*
X130618323Y-77231465D01*
X130663661Y-77227000D01*
X131500339Y-77227000D01*
X131545677Y-77231465D01*
X131545677Y-77231465D01*
G37*
G36*
X129495677Y-77231465D02*
X129533364Y-77242898D01*
X129568103Y-77261466D01*
X129598548Y-77286452D01*
X129623534Y-77316897D01*
X129642102Y-77351636D01*
X129653535Y-77389323D01*
X129658000Y-77434661D01*
X129658000Y-78521339D01*
X129653535Y-78566677D01*
X129642102Y-78604364D01*
X129623534Y-78639103D01*
X129598548Y-78669548D01*
X129568103Y-78694534D01*
X129533364Y-78713102D01*
X129495677Y-78724535D01*
X129450339Y-78729000D01*
X128613661Y-78729000D01*
X128568323Y-78724535D01*
X128530636Y-78713102D01*
X128495897Y-78694534D01*
X128465452Y-78669548D01*
X128440466Y-78639103D01*
X128421898Y-78604364D01*
X128410465Y-78566677D01*
X128406000Y-78521339D01*
X128406000Y-77434661D01*
X128410465Y-77389323D01*
X128421898Y-77351636D01*
X128440466Y-77316897D01*
X128465452Y-77286452D01*
X128495897Y-77261466D01*
X128530636Y-77242898D01*
X128568323Y-77231465D01*
X128613661Y-77227000D01*
X129450339Y-77227000D01*
X129495677Y-77231465D01*
X129495677Y-77231465D01*
G37*
G36*
X169822396Y-76555546D02*
X169995466Y-76627234D01*
X170151230Y-76731312D01*
X170283688Y-76863770D01*
X170387766Y-77019534D01*
X170459454Y-77192604D01*
X170496000Y-77376333D01*
X170496000Y-77563667D01*
X170459454Y-77747396D01*
X170387766Y-77920466D01*
X170283688Y-78076230D01*
X170151230Y-78208688D01*
X169995466Y-78312766D01*
X169822396Y-78384454D01*
X169638667Y-78421000D01*
X169451333Y-78421000D01*
X169267604Y-78384454D01*
X169094534Y-78312766D01*
X168938770Y-78208688D01*
X168806312Y-78076230D01*
X168702234Y-77920466D01*
X168630546Y-77747396D01*
X168594000Y-77563667D01*
X168594000Y-77376333D01*
X168630546Y-77192604D01*
X168702234Y-77019534D01*
X168806312Y-76863770D01*
X168938770Y-76731312D01*
X169094534Y-76627234D01*
X169267604Y-76555546D01*
X169451333Y-76519000D01*
X169638667Y-76519000D01*
X169822396Y-76555546D01*
X169822396Y-76555546D01*
G37*
G36*
X146962396Y-76555546D02*
X147135466Y-76627234D01*
X147291230Y-76731312D01*
X147423688Y-76863770D01*
X147527766Y-77019534D01*
X147599454Y-77192604D01*
X147636000Y-77376333D01*
X147636000Y-77563667D01*
X147599454Y-77747396D01*
X147527766Y-77920466D01*
X147423688Y-78076230D01*
X147291230Y-78208688D01*
X147135466Y-78312766D01*
X146962396Y-78384454D01*
X146778667Y-78421000D01*
X146591333Y-78421000D01*
X146407604Y-78384454D01*
X146234534Y-78312766D01*
X146078770Y-78208688D01*
X145946312Y-78076230D01*
X145842234Y-77920466D01*
X145770546Y-77747396D01*
X145734000Y-77563667D01*
X145734000Y-77376333D01*
X145770546Y-77192604D01*
X145842234Y-77019534D01*
X145946312Y-76863770D01*
X146078770Y-76731312D01*
X146234534Y-76627234D01*
X146407604Y-76555546D01*
X146591333Y-76519000D01*
X146778667Y-76519000D01*
X146962396Y-76555546D01*
X146962396Y-76555546D01*
G37*
G36*
X141628396Y-76492046D02*
X141801466Y-76563734D01*
X141957230Y-76667812D01*
X142089688Y-76800270D01*
X142193766Y-76956034D01*
X142265454Y-77129104D01*
X142302000Y-77312833D01*
X142302000Y-77500167D01*
X142265454Y-77683896D01*
X142193766Y-77856966D01*
X142089688Y-78012730D01*
X141957230Y-78145188D01*
X141801466Y-78249266D01*
X141628396Y-78320954D01*
X141444667Y-78357500D01*
X141257333Y-78357500D01*
X141073604Y-78320954D01*
X140900534Y-78249266D01*
X140744770Y-78145188D01*
X140612312Y-78012730D01*
X140508234Y-77856966D01*
X140436546Y-77683896D01*
X140400000Y-77500167D01*
X140400000Y-77312833D01*
X140436546Y-77129104D01*
X140508234Y-76956034D01*
X140612312Y-76800270D01*
X140744770Y-76667812D01*
X140900534Y-76563734D01*
X141073604Y-76492046D01*
X141257333Y-76455500D01*
X141444667Y-76455500D01*
X141628396Y-76492046D01*
X141628396Y-76492046D01*
G37*
G36*
X118768396Y-76492046D02*
X118941466Y-76563734D01*
X119097230Y-76667812D01*
X119229688Y-76800270D01*
X119333766Y-76956034D01*
X119405454Y-77129104D01*
X119442000Y-77312833D01*
X119442000Y-77500167D01*
X119405454Y-77683896D01*
X119333766Y-77856966D01*
X119229688Y-78012730D01*
X119097230Y-78145188D01*
X118941466Y-78249266D01*
X118768396Y-78320954D01*
X118584667Y-78357500D01*
X118397333Y-78357500D01*
X118213604Y-78320954D01*
X118040534Y-78249266D01*
X117884770Y-78145188D01*
X117752312Y-78012730D01*
X117648234Y-77856966D01*
X117576546Y-77683896D01*
X117540000Y-77500167D01*
X117540000Y-77312833D01*
X117576546Y-77129104D01*
X117648234Y-76956034D01*
X117752312Y-76800270D01*
X117884770Y-76667812D01*
X118040534Y-76563734D01*
X118213604Y-76492046D01*
X118397333Y-76455500D01*
X118584667Y-76455500D01*
X118768396Y-76492046D01*
X118768396Y-76492046D01*
G37*
G36*
X169822396Y-74015546D02*
X169995466Y-74087234D01*
X170151230Y-74191312D01*
X170283688Y-74323770D01*
X170387766Y-74479534D01*
X170459454Y-74652604D01*
X170496000Y-74836333D01*
X170496000Y-75023667D01*
X170459454Y-75207396D01*
X170387766Y-75380466D01*
X170283688Y-75536230D01*
X170151230Y-75668688D01*
X169995466Y-75772766D01*
X169822396Y-75844454D01*
X169638667Y-75881000D01*
X169451333Y-75881000D01*
X169267604Y-75844454D01*
X169094534Y-75772766D01*
X168938770Y-75668688D01*
X168806312Y-75536230D01*
X168702234Y-75380466D01*
X168630546Y-75207396D01*
X168594000Y-75023667D01*
X168594000Y-74836333D01*
X168630546Y-74652604D01*
X168702234Y-74479534D01*
X168806312Y-74323770D01*
X168938770Y-74191312D01*
X169094534Y-74087234D01*
X169267604Y-74015546D01*
X169451333Y-73979000D01*
X169638667Y-73979000D01*
X169822396Y-74015546D01*
X169822396Y-74015546D01*
G37*
G36*
X146962396Y-74015546D02*
X147135466Y-74087234D01*
X147291230Y-74191312D01*
X147423688Y-74323770D01*
X147527766Y-74479534D01*
X147599454Y-74652604D01*
X147636000Y-74836333D01*
X147636000Y-75023667D01*
X147599454Y-75207396D01*
X147527766Y-75380466D01*
X147423688Y-75536230D01*
X147291230Y-75668688D01*
X147135466Y-75772766D01*
X146962396Y-75844454D01*
X146778667Y-75881000D01*
X146591333Y-75881000D01*
X146407604Y-75844454D01*
X146234534Y-75772766D01*
X146078770Y-75668688D01*
X145946312Y-75536230D01*
X145842234Y-75380466D01*
X145770546Y-75207396D01*
X145734000Y-75023667D01*
X145734000Y-74836333D01*
X145770546Y-74652604D01*
X145842234Y-74479534D01*
X145946312Y-74323770D01*
X146078770Y-74191312D01*
X146234534Y-74087234D01*
X146407604Y-74015546D01*
X146591333Y-73979000D01*
X146778667Y-73979000D01*
X146962396Y-74015546D01*
X146962396Y-74015546D01*
G37*
G36*
X141628396Y-73952046D02*
X141801466Y-74023734D01*
X141957230Y-74127812D01*
X142089688Y-74260270D01*
X142193766Y-74416034D01*
X142265454Y-74589104D01*
X142302000Y-74772833D01*
X142302000Y-74960167D01*
X142265454Y-75143896D01*
X142193766Y-75316966D01*
X142089688Y-75472730D01*
X141957230Y-75605188D01*
X141801466Y-75709266D01*
X141628396Y-75780954D01*
X141444667Y-75817500D01*
X141257333Y-75817500D01*
X141073604Y-75780954D01*
X140900534Y-75709266D01*
X140744770Y-75605188D01*
X140612312Y-75472730D01*
X140508234Y-75316966D01*
X140436546Y-75143896D01*
X140400000Y-74960167D01*
X140400000Y-74772833D01*
X140436546Y-74589104D01*
X140508234Y-74416034D01*
X140612312Y-74260270D01*
X140744770Y-74127812D01*
X140900534Y-74023734D01*
X141073604Y-73952046D01*
X141257333Y-73915500D01*
X141444667Y-73915500D01*
X141628396Y-73952046D01*
X141628396Y-73952046D01*
G37*
G36*
X118768396Y-73952046D02*
X118941466Y-74023734D01*
X119097230Y-74127812D01*
X119229688Y-74260270D01*
X119333766Y-74416034D01*
X119405454Y-74589104D01*
X119442000Y-74772833D01*
X119442000Y-74960167D01*
X119405454Y-75143896D01*
X119333766Y-75316966D01*
X119229688Y-75472730D01*
X119097230Y-75605188D01*
X118941466Y-75709266D01*
X118768396Y-75780954D01*
X118584667Y-75817500D01*
X118397333Y-75817500D01*
X118213604Y-75780954D01*
X118040534Y-75709266D01*
X117884770Y-75605188D01*
X117752312Y-75472730D01*
X117648234Y-75316966D01*
X117576546Y-75143896D01*
X117540000Y-74960167D01*
X117540000Y-74772833D01*
X117576546Y-74589104D01*
X117648234Y-74416034D01*
X117752312Y-74260270D01*
X117884770Y-74127812D01*
X118040534Y-74023734D01*
X118213604Y-73952046D01*
X118397333Y-73915500D01*
X118584667Y-73915500D01*
X118768396Y-73952046D01*
X118768396Y-73952046D01*
G37*
G36*
X131545677Y-73167465D02*
X131583364Y-73178898D01*
X131618103Y-73197466D01*
X131648548Y-73222452D01*
X131673534Y-73252897D01*
X131692102Y-73287636D01*
X131703535Y-73325323D01*
X131708000Y-73370661D01*
X131708000Y-74457339D01*
X131703535Y-74502677D01*
X131692102Y-74540364D01*
X131673534Y-74575103D01*
X131648548Y-74605548D01*
X131618103Y-74630534D01*
X131583364Y-74649102D01*
X131545677Y-74660535D01*
X131500339Y-74665000D01*
X130663661Y-74665000D01*
X130618323Y-74660535D01*
X130580636Y-74649102D01*
X130545897Y-74630534D01*
X130515452Y-74605548D01*
X130490466Y-74575103D01*
X130471898Y-74540364D01*
X130460465Y-74502677D01*
X130456000Y-74457339D01*
X130456000Y-73370661D01*
X130460465Y-73325323D01*
X130471898Y-73287636D01*
X130490466Y-73252897D01*
X130515452Y-73222452D01*
X130545897Y-73197466D01*
X130580636Y-73178898D01*
X130618323Y-73167465D01*
X130663661Y-73163000D01*
X131500339Y-73163000D01*
X131545677Y-73167465D01*
X131545677Y-73167465D01*
G37*
G36*
X129495677Y-73167465D02*
X129533364Y-73178898D01*
X129568103Y-73197466D01*
X129598548Y-73222452D01*
X129623534Y-73252897D01*
X129642102Y-73287636D01*
X129653535Y-73325323D01*
X129658000Y-73370661D01*
X129658000Y-74457339D01*
X129653535Y-74502677D01*
X129642102Y-74540364D01*
X129623534Y-74575103D01*
X129598548Y-74605548D01*
X129568103Y-74630534D01*
X129533364Y-74649102D01*
X129495677Y-74660535D01*
X129450339Y-74665000D01*
X128613661Y-74665000D01*
X128568323Y-74660535D01*
X128530636Y-74649102D01*
X128495897Y-74630534D01*
X128465452Y-74605548D01*
X128440466Y-74575103D01*
X128421898Y-74540364D01*
X128410465Y-74502677D01*
X128406000Y-74457339D01*
X128406000Y-73370661D01*
X128410465Y-73325323D01*
X128421898Y-73287636D01*
X128440466Y-73252897D01*
X128465452Y-73222452D01*
X128495897Y-73197466D01*
X128530636Y-73178898D01*
X128568323Y-73167465D01*
X128613661Y-73163000D01*
X129450339Y-73163000D01*
X129495677Y-73167465D01*
X129495677Y-73167465D01*
G37*
G36*
X169822396Y-71475546D02*
X169995466Y-71547234D01*
X170151230Y-71651312D01*
X170283688Y-71783770D01*
X170387766Y-71939534D01*
X170459454Y-72112604D01*
X170496000Y-72296333D01*
X170496000Y-72483667D01*
X170459454Y-72667396D01*
X170387766Y-72840466D01*
X170283688Y-72996230D01*
X170151230Y-73128688D01*
X169995466Y-73232766D01*
X169822396Y-73304454D01*
X169638667Y-73341000D01*
X169451333Y-73341000D01*
X169267604Y-73304454D01*
X169094534Y-73232766D01*
X168938770Y-73128688D01*
X168806312Y-72996230D01*
X168702234Y-72840466D01*
X168630546Y-72667396D01*
X168594000Y-72483667D01*
X168594000Y-72296333D01*
X168630546Y-72112604D01*
X168702234Y-71939534D01*
X168806312Y-71783770D01*
X168938770Y-71651312D01*
X169094534Y-71547234D01*
X169267604Y-71475546D01*
X169451333Y-71439000D01*
X169638667Y-71439000D01*
X169822396Y-71475546D01*
X169822396Y-71475546D01*
G37*
G36*
X146962396Y-71475546D02*
X147135466Y-71547234D01*
X147291230Y-71651312D01*
X147423688Y-71783770D01*
X147527766Y-71939534D01*
X147599454Y-72112604D01*
X147636000Y-72296333D01*
X147636000Y-72483667D01*
X147599454Y-72667396D01*
X147527766Y-72840466D01*
X147423688Y-72996230D01*
X147291230Y-73128688D01*
X147135466Y-73232766D01*
X146962396Y-73304454D01*
X146778667Y-73341000D01*
X146591333Y-73341000D01*
X146407604Y-73304454D01*
X146234534Y-73232766D01*
X146078770Y-73128688D01*
X145946312Y-72996230D01*
X145842234Y-72840466D01*
X145770546Y-72667396D01*
X145734000Y-72483667D01*
X145734000Y-72296333D01*
X145770546Y-72112604D01*
X145842234Y-71939534D01*
X145946312Y-71783770D01*
X146078770Y-71651312D01*
X146234534Y-71547234D01*
X146407604Y-71475546D01*
X146591333Y-71439000D01*
X146778667Y-71439000D01*
X146962396Y-71475546D01*
X146962396Y-71475546D01*
G37*
G36*
X118768396Y-71412046D02*
X118941466Y-71483734D01*
X119097230Y-71587812D01*
X119229688Y-71720270D01*
X119333766Y-71876034D01*
X119405454Y-72049104D01*
X119442000Y-72232833D01*
X119442000Y-72420167D01*
X119405454Y-72603896D01*
X119333766Y-72776966D01*
X119229688Y-72932730D01*
X119097230Y-73065188D01*
X118941466Y-73169266D01*
X118768396Y-73240954D01*
X118584667Y-73277500D01*
X118397333Y-73277500D01*
X118213604Y-73240954D01*
X118040534Y-73169266D01*
X117884770Y-73065188D01*
X117752312Y-72932730D01*
X117648234Y-72776966D01*
X117576546Y-72603896D01*
X117540000Y-72420167D01*
X117540000Y-72232833D01*
X117576546Y-72049104D01*
X117648234Y-71876034D01*
X117752312Y-71720270D01*
X117884770Y-71587812D01*
X118040534Y-71483734D01*
X118213604Y-71412046D01*
X118397333Y-71375500D01*
X118584667Y-71375500D01*
X118768396Y-71412046D01*
X118768396Y-71412046D01*
G37*
G36*
X141628396Y-71412046D02*
X141801466Y-71483734D01*
X141957230Y-71587812D01*
X142089688Y-71720270D01*
X142193766Y-71876034D01*
X142265454Y-72049104D01*
X142302000Y-72232833D01*
X142302000Y-72420167D01*
X142265454Y-72603896D01*
X142193766Y-72776966D01*
X142089688Y-72932730D01*
X141957230Y-73065188D01*
X141801466Y-73169266D01*
X141628396Y-73240954D01*
X141444667Y-73277500D01*
X141257333Y-73277500D01*
X141073604Y-73240954D01*
X140900534Y-73169266D01*
X140744770Y-73065188D01*
X140612312Y-72932730D01*
X140508234Y-72776966D01*
X140436546Y-72603896D01*
X140400000Y-72420167D01*
X140400000Y-72232833D01*
X140436546Y-72049104D01*
X140508234Y-71876034D01*
X140612312Y-71720270D01*
X140744770Y-71587812D01*
X140900534Y-71483734D01*
X141073604Y-71412046D01*
X141257333Y-71375500D01*
X141444667Y-71375500D01*
X141628396Y-71412046D01*
X141628396Y-71412046D01*
G37*
G36*
X146962396Y-68935546D02*
X147135466Y-69007234D01*
X147291230Y-69111312D01*
X147423688Y-69243770D01*
X147527766Y-69399534D01*
X147599454Y-69572604D01*
X147636000Y-69756333D01*
X147636000Y-69943667D01*
X147599454Y-70127396D01*
X147527766Y-70300466D01*
X147423688Y-70456230D01*
X147291230Y-70588688D01*
X147135466Y-70692766D01*
X146962396Y-70764454D01*
X146778667Y-70801000D01*
X146591333Y-70801000D01*
X146407604Y-70764454D01*
X146234534Y-70692766D01*
X146078770Y-70588688D01*
X145946312Y-70456230D01*
X145842234Y-70300466D01*
X145770546Y-70127396D01*
X145734000Y-69943667D01*
X145734000Y-69756333D01*
X145770546Y-69572604D01*
X145842234Y-69399534D01*
X145946312Y-69243770D01*
X146078770Y-69111312D01*
X146234534Y-69007234D01*
X146407604Y-68935546D01*
X146591333Y-68899000D01*
X146778667Y-68899000D01*
X146962396Y-68935546D01*
X146962396Y-68935546D01*
G37*
G36*
X169822396Y-68935546D02*
X169995466Y-69007234D01*
X170151230Y-69111312D01*
X170283688Y-69243770D01*
X170387766Y-69399534D01*
X170459454Y-69572604D01*
X170496000Y-69756333D01*
X170496000Y-69943667D01*
X170459454Y-70127396D01*
X170387766Y-70300466D01*
X170283688Y-70456230D01*
X170151230Y-70588688D01*
X169995466Y-70692766D01*
X169822396Y-70764454D01*
X169638667Y-70801000D01*
X169451333Y-70801000D01*
X169267604Y-70764454D01*
X169094534Y-70692766D01*
X168938770Y-70588688D01*
X168806312Y-70456230D01*
X168702234Y-70300466D01*
X168630546Y-70127396D01*
X168594000Y-69943667D01*
X168594000Y-69756333D01*
X168630546Y-69572604D01*
X168702234Y-69399534D01*
X168806312Y-69243770D01*
X168938770Y-69111312D01*
X169094534Y-69007234D01*
X169267604Y-68935546D01*
X169451333Y-68899000D01*
X169638667Y-68899000D01*
X169822396Y-68935546D01*
X169822396Y-68935546D01*
G37*
G36*
X141628396Y-68872046D02*
X141801466Y-68943734D01*
X141957230Y-69047812D01*
X142089688Y-69180270D01*
X142193766Y-69336034D01*
X142265454Y-69509104D01*
X142302000Y-69692833D01*
X142302000Y-69880167D01*
X142265454Y-70063896D01*
X142193766Y-70236966D01*
X142089688Y-70392730D01*
X141957230Y-70525188D01*
X141801466Y-70629266D01*
X141628396Y-70700954D01*
X141444667Y-70737500D01*
X141257333Y-70737500D01*
X141073604Y-70700954D01*
X140900534Y-70629266D01*
X140744770Y-70525188D01*
X140612312Y-70392730D01*
X140508234Y-70236966D01*
X140436546Y-70063896D01*
X140400000Y-69880167D01*
X140400000Y-69692833D01*
X140436546Y-69509104D01*
X140508234Y-69336034D01*
X140612312Y-69180270D01*
X140744770Y-69047812D01*
X140900534Y-68943734D01*
X141073604Y-68872046D01*
X141257333Y-68835500D01*
X141444667Y-68835500D01*
X141628396Y-68872046D01*
X141628396Y-68872046D01*
G37*
G36*
X118768396Y-68872046D02*
X118941466Y-68943734D01*
X119097230Y-69047812D01*
X119229688Y-69180270D01*
X119333766Y-69336034D01*
X119405454Y-69509104D01*
X119442000Y-69692833D01*
X119442000Y-69880167D01*
X119405454Y-70063896D01*
X119333766Y-70236966D01*
X119229688Y-70392730D01*
X119097230Y-70525188D01*
X118941466Y-70629266D01*
X118768396Y-70700954D01*
X118584667Y-70737500D01*
X118397333Y-70737500D01*
X118213604Y-70700954D01*
X118040534Y-70629266D01*
X117884770Y-70525188D01*
X117752312Y-70392730D01*
X117648234Y-70236966D01*
X117576546Y-70063896D01*
X117540000Y-69880167D01*
X117540000Y-69692833D01*
X117576546Y-69509104D01*
X117648234Y-69336034D01*
X117752312Y-69180270D01*
X117884770Y-69047812D01*
X118040534Y-68943734D01*
X118213604Y-68872046D01*
X118397333Y-68835500D01*
X118584667Y-68835500D01*
X118768396Y-68872046D01*
X118768396Y-68872046D01*
G37*
G36*
X131545677Y-69103465D02*
X131583364Y-69114898D01*
X131618103Y-69133466D01*
X131648548Y-69158452D01*
X131673534Y-69188897D01*
X131692102Y-69223636D01*
X131703535Y-69261323D01*
X131708000Y-69306661D01*
X131708000Y-70393339D01*
X131703535Y-70438677D01*
X131692102Y-70476364D01*
X131673534Y-70511103D01*
X131648548Y-70541548D01*
X131618103Y-70566534D01*
X131583364Y-70585102D01*
X131545677Y-70596535D01*
X131500339Y-70601000D01*
X130663661Y-70601000D01*
X130618323Y-70596535D01*
X130580636Y-70585102D01*
X130545897Y-70566534D01*
X130515452Y-70541548D01*
X130490466Y-70511103D01*
X130471898Y-70476364D01*
X130460465Y-70438677D01*
X130456000Y-70393339D01*
X130456000Y-69306661D01*
X130460465Y-69261323D01*
X130471898Y-69223636D01*
X130490466Y-69188897D01*
X130515452Y-69158452D01*
X130545897Y-69133466D01*
X130580636Y-69114898D01*
X130618323Y-69103465D01*
X130663661Y-69099000D01*
X131500339Y-69099000D01*
X131545677Y-69103465D01*
X131545677Y-69103465D01*
G37*
G36*
X129495677Y-69103465D02*
X129533364Y-69114898D01*
X129568103Y-69133466D01*
X129598548Y-69158452D01*
X129623534Y-69188897D01*
X129642102Y-69223636D01*
X129653535Y-69261323D01*
X129658000Y-69306661D01*
X129658000Y-70393339D01*
X129653535Y-70438677D01*
X129642102Y-70476364D01*
X129623534Y-70511103D01*
X129598548Y-70541548D01*
X129568103Y-70566534D01*
X129533364Y-70585102D01*
X129495677Y-70596535D01*
X129450339Y-70601000D01*
X128613661Y-70601000D01*
X128568323Y-70596535D01*
X128530636Y-70585102D01*
X128495897Y-70566534D01*
X128465452Y-70541548D01*
X128440466Y-70511103D01*
X128421898Y-70476364D01*
X128410465Y-70438677D01*
X128406000Y-70393339D01*
X128406000Y-69306661D01*
X128410465Y-69261323D01*
X128421898Y-69223636D01*
X128440466Y-69188897D01*
X128465452Y-69158452D01*
X128495897Y-69133466D01*
X128530636Y-69114898D01*
X128568323Y-69103465D01*
X128613661Y-69099000D01*
X129450339Y-69099000D01*
X129495677Y-69103465D01*
X129495677Y-69103465D01*
G37*
G36*
X157958000Y-70557000D02*
X157256000Y-70557000D01*
X157256000Y-68955000D01*
X157958000Y-68955000D01*
X157958000Y-70557000D01*
X157958000Y-70557000D01*
G37*
G36*
X159228000Y-70557000D02*
X158526000Y-70557000D01*
X158526000Y-68955000D01*
X159228000Y-68955000D01*
X159228000Y-70557000D01*
X159228000Y-70557000D01*
G37*
G36*
X160498000Y-70557000D02*
X159796000Y-70557000D01*
X159796000Y-68955000D01*
X160498000Y-68955000D01*
X160498000Y-70557000D01*
X160498000Y-70557000D01*
G37*
G36*
X161768000Y-70557000D02*
X161066000Y-70557000D01*
X161066000Y-68955000D01*
X161768000Y-68955000D01*
X161768000Y-70557000D01*
X161768000Y-70557000D01*
G37*
G36*
X163038000Y-70557000D02*
X162336000Y-70557000D01*
X162336000Y-68955000D01*
X163038000Y-68955000D01*
X163038000Y-70557000D01*
X163038000Y-70557000D01*
G37*
G36*
X155418000Y-70557000D02*
X154716000Y-70557000D01*
X154716000Y-68955000D01*
X155418000Y-68955000D01*
X155418000Y-70557000D01*
X155418000Y-70557000D01*
G37*
G36*
X156688000Y-70557000D02*
X155986000Y-70557000D01*
X155986000Y-68955000D01*
X156688000Y-68955000D01*
X156688000Y-70557000D01*
X156688000Y-70557000D01*
G37*
G36*
X154148000Y-70557000D02*
X153446000Y-70557000D01*
X153446000Y-68955000D01*
X154148000Y-68955000D01*
X154148000Y-70557000D01*
X154148000Y-70557000D01*
G37*
G36*
X146962396Y-66395546D02*
X147135466Y-66467234D01*
X147291230Y-66571312D01*
X147423688Y-66703770D01*
X147527766Y-66859534D01*
X147599454Y-67032604D01*
X147636000Y-67216333D01*
X147636000Y-67403667D01*
X147599454Y-67587396D01*
X147527766Y-67760466D01*
X147423688Y-67916230D01*
X147291230Y-68048688D01*
X147135466Y-68152766D01*
X146962396Y-68224454D01*
X146778667Y-68261000D01*
X146591333Y-68261000D01*
X146407604Y-68224454D01*
X146234534Y-68152766D01*
X146078770Y-68048688D01*
X145946312Y-67916230D01*
X145842234Y-67760466D01*
X145770546Y-67587396D01*
X145734000Y-67403667D01*
X145734000Y-67216333D01*
X145770546Y-67032604D01*
X145842234Y-66859534D01*
X145946312Y-66703770D01*
X146078770Y-66571312D01*
X146234534Y-66467234D01*
X146407604Y-66395546D01*
X146591333Y-66359000D01*
X146778667Y-66359000D01*
X146962396Y-66395546D01*
X146962396Y-66395546D01*
G37*
G36*
X169822396Y-66395546D02*
X169995466Y-66467234D01*
X170151230Y-66571312D01*
X170283688Y-66703770D01*
X170387766Y-66859534D01*
X170459454Y-67032604D01*
X170496000Y-67216333D01*
X170496000Y-67403667D01*
X170459454Y-67587396D01*
X170387766Y-67760466D01*
X170283688Y-67916230D01*
X170151230Y-68048688D01*
X169995466Y-68152766D01*
X169822396Y-68224454D01*
X169638667Y-68261000D01*
X169451333Y-68261000D01*
X169267604Y-68224454D01*
X169094534Y-68152766D01*
X168938770Y-68048688D01*
X168806312Y-67916230D01*
X168702234Y-67760466D01*
X168630546Y-67587396D01*
X168594000Y-67403667D01*
X168594000Y-67216333D01*
X168630546Y-67032604D01*
X168702234Y-66859534D01*
X168806312Y-66703770D01*
X168938770Y-66571312D01*
X169094534Y-66467234D01*
X169267604Y-66395546D01*
X169451333Y-66359000D01*
X169638667Y-66359000D01*
X169822396Y-66395546D01*
X169822396Y-66395546D01*
G37*
G36*
X141628396Y-66332046D02*
X141801466Y-66403734D01*
X141957230Y-66507812D01*
X142089688Y-66640270D01*
X142193766Y-66796034D01*
X142265454Y-66969104D01*
X142302000Y-67152833D01*
X142302000Y-67340167D01*
X142265454Y-67523896D01*
X142193766Y-67696966D01*
X142089688Y-67852730D01*
X141957230Y-67985188D01*
X141801466Y-68089266D01*
X141628396Y-68160954D01*
X141444667Y-68197500D01*
X141257333Y-68197500D01*
X141073604Y-68160954D01*
X140900534Y-68089266D01*
X140744770Y-67985188D01*
X140612312Y-67852730D01*
X140508234Y-67696966D01*
X140436546Y-67523896D01*
X140400000Y-67340167D01*
X140400000Y-67152833D01*
X140436546Y-66969104D01*
X140508234Y-66796034D01*
X140612312Y-66640270D01*
X140744770Y-66507812D01*
X140900534Y-66403734D01*
X141073604Y-66332046D01*
X141257333Y-66295500D01*
X141444667Y-66295500D01*
X141628396Y-66332046D01*
X141628396Y-66332046D01*
G37*
G36*
X118768396Y-66332046D02*
X118941466Y-66403734D01*
X119097230Y-66507812D01*
X119229688Y-66640270D01*
X119333766Y-66796034D01*
X119405454Y-66969104D01*
X119442000Y-67152833D01*
X119442000Y-67340167D01*
X119405454Y-67523896D01*
X119333766Y-67696966D01*
X119229688Y-67852730D01*
X119097230Y-67985188D01*
X118941466Y-68089266D01*
X118768396Y-68160954D01*
X118584667Y-68197500D01*
X118397333Y-68197500D01*
X118213604Y-68160954D01*
X118040534Y-68089266D01*
X117884770Y-67985188D01*
X117752312Y-67852730D01*
X117648234Y-67696966D01*
X117576546Y-67523896D01*
X117540000Y-67340167D01*
X117540000Y-67152833D01*
X117576546Y-66969104D01*
X117648234Y-66796034D01*
X117752312Y-66640270D01*
X117884770Y-66507812D01*
X118040534Y-66403734D01*
X118213604Y-66332046D01*
X118397333Y-66295500D01*
X118584667Y-66295500D01*
X118768396Y-66332046D01*
X118768396Y-66332046D01*
G37*
G36*
X131527677Y-65547465D02*
X131565364Y-65558898D01*
X131600103Y-65577466D01*
X131630548Y-65602452D01*
X131655534Y-65632897D01*
X131674102Y-65667636D01*
X131685535Y-65705323D01*
X131690000Y-65750661D01*
X131690000Y-66837339D01*
X131685535Y-66882677D01*
X131674102Y-66920364D01*
X131655534Y-66955103D01*
X131630548Y-66985548D01*
X131600103Y-67010534D01*
X131565364Y-67029102D01*
X131527677Y-67040535D01*
X131482339Y-67045000D01*
X130645661Y-67045000D01*
X130600323Y-67040535D01*
X130562636Y-67029102D01*
X130527897Y-67010534D01*
X130497452Y-66985548D01*
X130472466Y-66955103D01*
X130453898Y-66920364D01*
X130442465Y-66882677D01*
X130438000Y-66837339D01*
X130438000Y-65750661D01*
X130442465Y-65705323D01*
X130453898Y-65667636D01*
X130472466Y-65632897D01*
X130497452Y-65602452D01*
X130527897Y-65577466D01*
X130562636Y-65558898D01*
X130600323Y-65547465D01*
X130645661Y-65543000D01*
X131482339Y-65543000D01*
X131527677Y-65547465D01*
X131527677Y-65547465D01*
G37*
G36*
X129477677Y-65547465D02*
X129515364Y-65558898D01*
X129550103Y-65577466D01*
X129580548Y-65602452D01*
X129605534Y-65632897D01*
X129624102Y-65667636D01*
X129635535Y-65705323D01*
X129640000Y-65750661D01*
X129640000Y-66837339D01*
X129635535Y-66882677D01*
X129624102Y-66920364D01*
X129605534Y-66955103D01*
X129580548Y-66985548D01*
X129550103Y-67010534D01*
X129515364Y-67029102D01*
X129477677Y-67040535D01*
X129432339Y-67045000D01*
X128595661Y-67045000D01*
X128550323Y-67040535D01*
X128512636Y-67029102D01*
X128477897Y-67010534D01*
X128447452Y-66985548D01*
X128422466Y-66955103D01*
X128403898Y-66920364D01*
X128392465Y-66882677D01*
X128388000Y-66837339D01*
X128388000Y-65750661D01*
X128392465Y-65705323D01*
X128403898Y-65667636D01*
X128422466Y-65632897D01*
X128447452Y-65602452D01*
X128477897Y-65577466D01*
X128512636Y-65558898D01*
X128550323Y-65547465D01*
X128595661Y-65543000D01*
X129432339Y-65543000D01*
X129477677Y-65547465D01*
X129477677Y-65547465D01*
G37*
G36*
X146962396Y-63855546D02*
X147135466Y-63927234D01*
X147291230Y-64031312D01*
X147423688Y-64163770D01*
X147527766Y-64319534D01*
X147599454Y-64492604D01*
X147636000Y-64676333D01*
X147636000Y-64863667D01*
X147599454Y-65047396D01*
X147527766Y-65220466D01*
X147423688Y-65376230D01*
X147291230Y-65508688D01*
X147135466Y-65612766D01*
X146962396Y-65684454D01*
X146778667Y-65721000D01*
X146591333Y-65721000D01*
X146407604Y-65684454D01*
X146234534Y-65612766D01*
X146078770Y-65508688D01*
X145946312Y-65376230D01*
X145842234Y-65220466D01*
X145770546Y-65047396D01*
X145734000Y-64863667D01*
X145734000Y-64676333D01*
X145770546Y-64492604D01*
X145842234Y-64319534D01*
X145946312Y-64163770D01*
X146078770Y-64031312D01*
X146234534Y-63927234D01*
X146407604Y-63855546D01*
X146591333Y-63819000D01*
X146778667Y-63819000D01*
X146962396Y-63855546D01*
X146962396Y-63855546D01*
G37*
G36*
X169822396Y-63855546D02*
X169995466Y-63927234D01*
X170151230Y-64031312D01*
X170283688Y-64163770D01*
X170387766Y-64319534D01*
X170459454Y-64492604D01*
X170496000Y-64676333D01*
X170496000Y-64863667D01*
X170459454Y-65047396D01*
X170387766Y-65220466D01*
X170283688Y-65376230D01*
X170151230Y-65508688D01*
X169995466Y-65612766D01*
X169822396Y-65684454D01*
X169638667Y-65721000D01*
X169451333Y-65721000D01*
X169267604Y-65684454D01*
X169094534Y-65612766D01*
X168938770Y-65508688D01*
X168806312Y-65376230D01*
X168702234Y-65220466D01*
X168630546Y-65047396D01*
X168594000Y-64863667D01*
X168594000Y-64676333D01*
X168630546Y-64492604D01*
X168702234Y-64319534D01*
X168806312Y-64163770D01*
X168938770Y-64031312D01*
X169094534Y-63927234D01*
X169267604Y-63855546D01*
X169451333Y-63819000D01*
X169638667Y-63819000D01*
X169822396Y-63855546D01*
X169822396Y-63855546D01*
G37*
G36*
X118768396Y-63792046D02*
X118941466Y-63863734D01*
X119097230Y-63967812D01*
X119229688Y-64100270D01*
X119333766Y-64256034D01*
X119405454Y-64429104D01*
X119442000Y-64612833D01*
X119442000Y-64800167D01*
X119405454Y-64983896D01*
X119333766Y-65156966D01*
X119229688Y-65312730D01*
X119097230Y-65445188D01*
X118941466Y-65549266D01*
X118768396Y-65620954D01*
X118584667Y-65657500D01*
X118397333Y-65657500D01*
X118213604Y-65620954D01*
X118040534Y-65549266D01*
X117884770Y-65445188D01*
X117752312Y-65312730D01*
X117648234Y-65156966D01*
X117576546Y-64983896D01*
X117540000Y-64800167D01*
X117540000Y-64612833D01*
X117576546Y-64429104D01*
X117648234Y-64256034D01*
X117752312Y-64100270D01*
X117884770Y-63967812D01*
X118040534Y-63863734D01*
X118213604Y-63792046D01*
X118397333Y-63755500D01*
X118584667Y-63755500D01*
X118768396Y-63792046D01*
X118768396Y-63792046D01*
G37*
G36*
X141628396Y-63792046D02*
X141801466Y-63863734D01*
X141957230Y-63967812D01*
X142089688Y-64100270D01*
X142193766Y-64256034D01*
X142265454Y-64429104D01*
X142302000Y-64612833D01*
X142302000Y-64800167D01*
X142265454Y-64983896D01*
X142193766Y-65156966D01*
X142089688Y-65312730D01*
X141957230Y-65445188D01*
X141801466Y-65549266D01*
X141628396Y-65620954D01*
X141444667Y-65657500D01*
X141257333Y-65657500D01*
X141073604Y-65620954D01*
X140900534Y-65549266D01*
X140744770Y-65445188D01*
X140612312Y-65312730D01*
X140508234Y-65156966D01*
X140436546Y-64983896D01*
X140400000Y-64800167D01*
X140400000Y-64612833D01*
X140436546Y-64429104D01*
X140508234Y-64256034D01*
X140612312Y-64100270D01*
X140744770Y-63967812D01*
X140900534Y-63863734D01*
X141073604Y-63792046D01*
X141257333Y-63755500D01*
X141444667Y-63755500D01*
X141628396Y-63792046D01*
X141628396Y-63792046D01*
G37*
G36*
X155418000Y-65157000D02*
X154716000Y-65157000D01*
X154716000Y-63555000D01*
X155418000Y-63555000D01*
X155418000Y-65157000D01*
X155418000Y-65157000D01*
G37*
G36*
X154148000Y-65157000D02*
X153446000Y-65157000D01*
X153446000Y-63555000D01*
X154148000Y-63555000D01*
X154148000Y-65157000D01*
X154148000Y-65157000D01*
G37*
G36*
X160498000Y-65157000D02*
X159796000Y-65157000D01*
X159796000Y-63555000D01*
X160498000Y-63555000D01*
X160498000Y-65157000D01*
X160498000Y-65157000D01*
G37*
G36*
X163038000Y-65157000D02*
X162336000Y-65157000D01*
X162336000Y-63555000D01*
X163038000Y-63555000D01*
X163038000Y-65157000D01*
X163038000Y-65157000D01*
G37*
G36*
X161768000Y-65157000D02*
X161066000Y-65157000D01*
X161066000Y-63555000D01*
X161768000Y-63555000D01*
X161768000Y-65157000D01*
X161768000Y-65157000D01*
G37*
G36*
X159228000Y-65157000D02*
X158526000Y-65157000D01*
X158526000Y-63555000D01*
X159228000Y-63555000D01*
X159228000Y-65157000D01*
X159228000Y-65157000D01*
G37*
G36*
X157958000Y-65157000D02*
X157256000Y-65157000D01*
X157256000Y-63555000D01*
X157958000Y-63555000D01*
X157958000Y-65157000D01*
X157958000Y-65157000D01*
G37*
G36*
X156688000Y-65157000D02*
X155986000Y-65157000D01*
X155986000Y-63555000D01*
X156688000Y-63555000D01*
X156688000Y-65157000D01*
X156688000Y-65157000D01*
G37*
G36*
X146962396Y-61315546D02*
X147135466Y-61387234D01*
X147291230Y-61491312D01*
X147423688Y-61623770D01*
X147527766Y-61779534D01*
X147599454Y-61952604D01*
X147636000Y-62136333D01*
X147636000Y-62323667D01*
X147599454Y-62507396D01*
X147527766Y-62680466D01*
X147423688Y-62836230D01*
X147291230Y-62968688D01*
X147135466Y-63072766D01*
X146962396Y-63144454D01*
X146778667Y-63181000D01*
X146591333Y-63181000D01*
X146407604Y-63144454D01*
X146234534Y-63072766D01*
X146078770Y-62968688D01*
X145946312Y-62836230D01*
X145842234Y-62680466D01*
X145770546Y-62507396D01*
X145734000Y-62323667D01*
X145734000Y-62136333D01*
X145770546Y-61952604D01*
X145842234Y-61779534D01*
X145946312Y-61623770D01*
X146078770Y-61491312D01*
X146234534Y-61387234D01*
X146407604Y-61315546D01*
X146591333Y-61279000D01*
X146778667Y-61279000D01*
X146962396Y-61315546D01*
X146962396Y-61315546D01*
G37*
G36*
X169822396Y-61315546D02*
X169995466Y-61387234D01*
X170151230Y-61491312D01*
X170283688Y-61623770D01*
X170387766Y-61779534D01*
X170459454Y-61952604D01*
X170496000Y-62136333D01*
X170496000Y-62323667D01*
X170459454Y-62507396D01*
X170387766Y-62680466D01*
X170283688Y-62836230D01*
X170151230Y-62968688D01*
X169995466Y-63072766D01*
X169822396Y-63144454D01*
X169638667Y-63181000D01*
X169451333Y-63181000D01*
X169267604Y-63144454D01*
X169094534Y-63072766D01*
X168938770Y-62968688D01*
X168806312Y-62836230D01*
X168702234Y-62680466D01*
X168630546Y-62507396D01*
X168594000Y-62323667D01*
X168594000Y-62136333D01*
X168630546Y-61952604D01*
X168702234Y-61779534D01*
X168806312Y-61623770D01*
X168938770Y-61491312D01*
X169094534Y-61387234D01*
X169267604Y-61315546D01*
X169451333Y-61279000D01*
X169638667Y-61279000D01*
X169822396Y-61315546D01*
X169822396Y-61315546D01*
G37*
G36*
X118768396Y-61252046D02*
X118941466Y-61323734D01*
X119097230Y-61427812D01*
X119229688Y-61560270D01*
X119333766Y-61716034D01*
X119405454Y-61889104D01*
X119442000Y-62072833D01*
X119442000Y-62260167D01*
X119405454Y-62443896D01*
X119333766Y-62616966D01*
X119229688Y-62772730D01*
X119097230Y-62905188D01*
X118941466Y-63009266D01*
X118768396Y-63080954D01*
X118584667Y-63117500D01*
X118397333Y-63117500D01*
X118213604Y-63080954D01*
X118040534Y-63009266D01*
X117884770Y-62905188D01*
X117752312Y-62772730D01*
X117648234Y-62616966D01*
X117576546Y-62443896D01*
X117540000Y-62260167D01*
X117540000Y-62072833D01*
X117576546Y-61889104D01*
X117648234Y-61716034D01*
X117752312Y-61560270D01*
X117884770Y-61427812D01*
X118040534Y-61323734D01*
X118213604Y-61252046D01*
X118397333Y-61215500D01*
X118584667Y-61215500D01*
X118768396Y-61252046D01*
X118768396Y-61252046D01*
G37*
G36*
X141628396Y-61252046D02*
X141801466Y-61323734D01*
X141957230Y-61427812D01*
X142089688Y-61560270D01*
X142193766Y-61716034D01*
X142265454Y-61889104D01*
X142302000Y-62072833D01*
X142302000Y-62260167D01*
X142265454Y-62443896D01*
X142193766Y-62616966D01*
X142089688Y-62772730D01*
X141957230Y-62905188D01*
X141801466Y-63009266D01*
X141628396Y-63080954D01*
X141444667Y-63117500D01*
X141257333Y-63117500D01*
X141073604Y-63080954D01*
X140900534Y-63009266D01*
X140744770Y-62905188D01*
X140612312Y-62772730D01*
X140508234Y-62616966D01*
X140436546Y-62443896D01*
X140400000Y-62260167D01*
X140400000Y-62072833D01*
X140436546Y-61889104D01*
X140508234Y-61716034D01*
X140612312Y-61560270D01*
X140744770Y-61427812D01*
X140900534Y-61323734D01*
X141073604Y-61252046D01*
X141257333Y-61215500D01*
X141444667Y-61215500D01*
X141628396Y-61252046D01*
X141628396Y-61252046D01*
G37*
G36*
X148545677Y-56149465D02*
X148583364Y-56160898D01*
X148618103Y-56179466D01*
X148648548Y-56204452D01*
X148673534Y-56234897D01*
X148692102Y-56269636D01*
X148703535Y-56307323D01*
X148708000Y-56352661D01*
X148708000Y-57439339D01*
X148703535Y-57484677D01*
X148692102Y-57522364D01*
X148673534Y-57557103D01*
X148648548Y-57587548D01*
X148618103Y-57612534D01*
X148583364Y-57631102D01*
X148545677Y-57642535D01*
X148500339Y-57647000D01*
X147663661Y-57647000D01*
X147618323Y-57642535D01*
X147580636Y-57631102D01*
X147545897Y-57612534D01*
X147515452Y-57587548D01*
X147490466Y-57557103D01*
X147471898Y-57522364D01*
X147460465Y-57484677D01*
X147456000Y-57439339D01*
X147456000Y-56352661D01*
X147460465Y-56307323D01*
X147471898Y-56269636D01*
X147490466Y-56234897D01*
X147515452Y-56204452D01*
X147545897Y-56179466D01*
X147580636Y-56160898D01*
X147618323Y-56149465D01*
X147663661Y-56145000D01*
X148500339Y-56145000D01*
X148545677Y-56149465D01*
X148545677Y-56149465D01*
G37*
G36*
X151897677Y-56149465D02*
X151935364Y-56160898D01*
X151970103Y-56179466D01*
X152000548Y-56204452D01*
X152025534Y-56234897D01*
X152044102Y-56269636D01*
X152055535Y-56307323D01*
X152060000Y-56352661D01*
X152060000Y-57439339D01*
X152055535Y-57484677D01*
X152044102Y-57522364D01*
X152025534Y-57557103D01*
X152000548Y-57587548D01*
X151970103Y-57612534D01*
X151935364Y-57631102D01*
X151897677Y-57642535D01*
X151852339Y-57647000D01*
X151015661Y-57647000D01*
X150970323Y-57642535D01*
X150932636Y-57631102D01*
X150897897Y-57612534D01*
X150867452Y-57587548D01*
X150842466Y-57557103D01*
X150823898Y-57522364D01*
X150812465Y-57484677D01*
X150808000Y-57439339D01*
X150808000Y-56352661D01*
X150812465Y-56307323D01*
X150823898Y-56269636D01*
X150842466Y-56234897D01*
X150867452Y-56204452D01*
X150897897Y-56179466D01*
X150932636Y-56160898D01*
X150970323Y-56149465D01*
X151015661Y-56145000D01*
X151852339Y-56145000D01*
X151897677Y-56149465D01*
X151897677Y-56149465D01*
G37*
G36*
X170153677Y-56149465D02*
X170191364Y-56160898D01*
X170226103Y-56179466D01*
X170256548Y-56204452D01*
X170281534Y-56234897D01*
X170300102Y-56269636D01*
X170311535Y-56307323D01*
X170316000Y-56352661D01*
X170316000Y-57439339D01*
X170311535Y-57484677D01*
X170300102Y-57522364D01*
X170281534Y-57557103D01*
X170256548Y-57587548D01*
X170226103Y-57612534D01*
X170191364Y-57631102D01*
X170153677Y-57642535D01*
X170108339Y-57647000D01*
X169271661Y-57647000D01*
X169226323Y-57642535D01*
X169188636Y-57631102D01*
X169153897Y-57612534D01*
X169123452Y-57587548D01*
X169098466Y-57557103D01*
X169079898Y-57522364D01*
X169068465Y-57484677D01*
X169064000Y-57439339D01*
X169064000Y-56352661D01*
X169068465Y-56307323D01*
X169079898Y-56269636D01*
X169098466Y-56234897D01*
X169123452Y-56204452D01*
X169153897Y-56179466D01*
X169188636Y-56160898D01*
X169226323Y-56149465D01*
X169271661Y-56145000D01*
X170108339Y-56145000D01*
X170153677Y-56149465D01*
X170153677Y-56149465D01*
G37*
G36*
X168103677Y-56149465D02*
X168141364Y-56160898D01*
X168176103Y-56179466D01*
X168206548Y-56204452D01*
X168231534Y-56234897D01*
X168250102Y-56269636D01*
X168261535Y-56307323D01*
X168266000Y-56352661D01*
X168266000Y-57439339D01*
X168261535Y-57484677D01*
X168250102Y-57522364D01*
X168231534Y-57557103D01*
X168206548Y-57587548D01*
X168176103Y-57612534D01*
X168141364Y-57631102D01*
X168103677Y-57642535D01*
X168058339Y-57647000D01*
X167221661Y-57647000D01*
X167176323Y-57642535D01*
X167138636Y-57631102D01*
X167103897Y-57612534D01*
X167073452Y-57587548D01*
X167048466Y-57557103D01*
X167029898Y-57522364D01*
X167018465Y-57484677D01*
X167014000Y-57439339D01*
X167014000Y-56352661D01*
X167018465Y-56307323D01*
X167029898Y-56269636D01*
X167048466Y-56234897D01*
X167073452Y-56204452D01*
X167103897Y-56179466D01*
X167138636Y-56160898D01*
X167176323Y-56149465D01*
X167221661Y-56145000D01*
X168058339Y-56145000D01*
X168103677Y-56149465D01*
X168103677Y-56149465D01*
G37*
G36*
X164751677Y-56149465D02*
X164789364Y-56160898D01*
X164824103Y-56179466D01*
X164854548Y-56204452D01*
X164879534Y-56234897D01*
X164898102Y-56269636D01*
X164909535Y-56307323D01*
X164914000Y-56352661D01*
X164914000Y-57439339D01*
X164909535Y-57484677D01*
X164898102Y-57522364D01*
X164879534Y-57557103D01*
X164854548Y-57587548D01*
X164824103Y-57612534D01*
X164789364Y-57631102D01*
X164751677Y-57642535D01*
X164706339Y-57647000D01*
X163869661Y-57647000D01*
X163824323Y-57642535D01*
X163786636Y-57631102D01*
X163751897Y-57612534D01*
X163721452Y-57587548D01*
X163696466Y-57557103D01*
X163677898Y-57522364D01*
X163666465Y-57484677D01*
X163662000Y-57439339D01*
X163662000Y-56352661D01*
X163666465Y-56307323D01*
X163677898Y-56269636D01*
X163696466Y-56234897D01*
X163721452Y-56204452D01*
X163751897Y-56179466D01*
X163786636Y-56160898D01*
X163824323Y-56149465D01*
X163869661Y-56145000D01*
X164706339Y-56145000D01*
X164751677Y-56149465D01*
X164751677Y-56149465D01*
G37*
G36*
X146495677Y-56149465D02*
X146533364Y-56160898D01*
X146568103Y-56179466D01*
X146598548Y-56204452D01*
X146623534Y-56234897D01*
X146642102Y-56269636D01*
X146653535Y-56307323D01*
X146658000Y-56352661D01*
X146658000Y-57439339D01*
X146653535Y-57484677D01*
X146642102Y-57522364D01*
X146623534Y-57557103D01*
X146598548Y-57587548D01*
X146568103Y-57612534D01*
X146533364Y-57631102D01*
X146495677Y-57642535D01*
X146450339Y-57647000D01*
X145613661Y-57647000D01*
X145568323Y-57642535D01*
X145530636Y-57631102D01*
X145495897Y-57612534D01*
X145465452Y-57587548D01*
X145440466Y-57557103D01*
X145421898Y-57522364D01*
X145410465Y-57484677D01*
X145406000Y-57439339D01*
X145406000Y-56352661D01*
X145410465Y-56307323D01*
X145421898Y-56269636D01*
X145440466Y-56234897D01*
X145465452Y-56204452D01*
X145495897Y-56179466D01*
X145530636Y-56160898D01*
X145568323Y-56149465D01*
X145613661Y-56145000D01*
X146450339Y-56145000D01*
X146495677Y-56149465D01*
X146495677Y-56149465D01*
G37*
G36*
X153947677Y-56149465D02*
X153985364Y-56160898D01*
X154020103Y-56179466D01*
X154050548Y-56204452D01*
X154075534Y-56234897D01*
X154094102Y-56269636D01*
X154105535Y-56307323D01*
X154110000Y-56352661D01*
X154110000Y-57439339D01*
X154105535Y-57484677D01*
X154094102Y-57522364D01*
X154075534Y-57557103D01*
X154050548Y-57587548D01*
X154020103Y-57612534D01*
X153985364Y-57631102D01*
X153947677Y-57642535D01*
X153902339Y-57647000D01*
X153065661Y-57647000D01*
X153020323Y-57642535D01*
X152982636Y-57631102D01*
X152947897Y-57612534D01*
X152917452Y-57587548D01*
X152892466Y-57557103D01*
X152873898Y-57522364D01*
X152862465Y-57484677D01*
X152858000Y-57439339D01*
X152858000Y-56352661D01*
X152862465Y-56307323D01*
X152873898Y-56269636D01*
X152892466Y-56234897D01*
X152917452Y-56204452D01*
X152947897Y-56179466D01*
X152982636Y-56160898D01*
X153020323Y-56149465D01*
X153065661Y-56145000D01*
X153902339Y-56145000D01*
X153947677Y-56149465D01*
X153947677Y-56149465D01*
G37*
G36*
X157299677Y-56149465D02*
X157337364Y-56160898D01*
X157372103Y-56179466D01*
X157402548Y-56204452D01*
X157427534Y-56234897D01*
X157446102Y-56269636D01*
X157457535Y-56307323D01*
X157462000Y-56352661D01*
X157462000Y-57439339D01*
X157457535Y-57484677D01*
X157446102Y-57522364D01*
X157427534Y-57557103D01*
X157402548Y-57587548D01*
X157372103Y-57612534D01*
X157337364Y-57631102D01*
X157299677Y-57642535D01*
X157254339Y-57647000D01*
X156417661Y-57647000D01*
X156372323Y-57642535D01*
X156334636Y-57631102D01*
X156299897Y-57612534D01*
X156269452Y-57587548D01*
X156244466Y-57557103D01*
X156225898Y-57522364D01*
X156214465Y-57484677D01*
X156210000Y-57439339D01*
X156210000Y-56352661D01*
X156214465Y-56307323D01*
X156225898Y-56269636D01*
X156244466Y-56234897D01*
X156269452Y-56204452D01*
X156299897Y-56179466D01*
X156334636Y-56160898D01*
X156372323Y-56149465D01*
X156417661Y-56145000D01*
X157254339Y-56145000D01*
X157299677Y-56149465D01*
X157299677Y-56149465D01*
G37*
G36*
X159349677Y-56149465D02*
X159387364Y-56160898D01*
X159422103Y-56179466D01*
X159452548Y-56204452D01*
X159477534Y-56234897D01*
X159496102Y-56269636D01*
X159507535Y-56307323D01*
X159512000Y-56352661D01*
X159512000Y-57439339D01*
X159507535Y-57484677D01*
X159496102Y-57522364D01*
X159477534Y-57557103D01*
X159452548Y-57587548D01*
X159422103Y-57612534D01*
X159387364Y-57631102D01*
X159349677Y-57642535D01*
X159304339Y-57647000D01*
X158467661Y-57647000D01*
X158422323Y-57642535D01*
X158384636Y-57631102D01*
X158349897Y-57612534D01*
X158319452Y-57587548D01*
X158294466Y-57557103D01*
X158275898Y-57522364D01*
X158264465Y-57484677D01*
X158260000Y-57439339D01*
X158260000Y-56352661D01*
X158264465Y-56307323D01*
X158275898Y-56269636D01*
X158294466Y-56234897D01*
X158319452Y-56204452D01*
X158349897Y-56179466D01*
X158384636Y-56160898D01*
X158422323Y-56149465D01*
X158467661Y-56145000D01*
X159304339Y-56145000D01*
X159349677Y-56149465D01*
X159349677Y-56149465D01*
G37*
G36*
X162701677Y-56149465D02*
X162739364Y-56160898D01*
X162774103Y-56179466D01*
X162804548Y-56204452D01*
X162829534Y-56234897D01*
X162848102Y-56269636D01*
X162859535Y-56307323D01*
X162864000Y-56352661D01*
X162864000Y-57439339D01*
X162859535Y-57484677D01*
X162848102Y-57522364D01*
X162829534Y-57557103D01*
X162804548Y-57587548D01*
X162774103Y-57612534D01*
X162739364Y-57631102D01*
X162701677Y-57642535D01*
X162656339Y-57647000D01*
X161819661Y-57647000D01*
X161774323Y-57642535D01*
X161736636Y-57631102D01*
X161701897Y-57612534D01*
X161671452Y-57587548D01*
X161646466Y-57557103D01*
X161627898Y-57522364D01*
X161616465Y-57484677D01*
X161612000Y-57439339D01*
X161612000Y-56352661D01*
X161616465Y-56307323D01*
X161627898Y-56269636D01*
X161646466Y-56234897D01*
X161671452Y-56204452D01*
X161701897Y-56179466D01*
X161736636Y-56160898D01*
X161774323Y-56149465D01*
X161819661Y-56145000D01*
X162656339Y-56145000D01*
X162701677Y-56149465D01*
X162701677Y-56149465D01*
G37*
G36*
X118699734Y-54265232D02*
X118909202Y-54351996D01*
X119097723Y-54477962D01*
X119258038Y-54638277D01*
X119384004Y-54826798D01*
X119470768Y-55036266D01*
X119515000Y-55258635D01*
X119515000Y-55485365D01*
X119470768Y-55707734D01*
X119384004Y-55917202D01*
X119258038Y-56105723D01*
X119097723Y-56266038D01*
X118909202Y-56392004D01*
X118699734Y-56478768D01*
X118477365Y-56523000D01*
X118250635Y-56523000D01*
X118028266Y-56478768D01*
X117818798Y-56392004D01*
X117630277Y-56266038D01*
X117469962Y-56105723D01*
X117343996Y-55917202D01*
X117257232Y-55707734D01*
X117213000Y-55485365D01*
X117213000Y-55258635D01*
X117257232Y-55036266D01*
X117343996Y-54826798D01*
X117469962Y-54638277D01*
X117630277Y-54477962D01*
X117818798Y-54351996D01*
X118028266Y-54265232D01*
X118250635Y-54221000D01*
X118477365Y-54221000D01*
X118699734Y-54265232D01*
X118699734Y-54265232D01*
G37*
G36*
X186009734Y-54265232D02*
X186219202Y-54351996D01*
X186407723Y-54477962D01*
X186568038Y-54638277D01*
X186694004Y-54826798D01*
X186780768Y-55036266D01*
X186825000Y-55258635D01*
X186825000Y-55485365D01*
X186780768Y-55707734D01*
X186694004Y-55917202D01*
X186568038Y-56105723D01*
X186407723Y-56266038D01*
X186219202Y-56392004D01*
X186009734Y-56478768D01*
X185787365Y-56523000D01*
X185560635Y-56523000D01*
X185338266Y-56478768D01*
X185128798Y-56392004D01*
X184940277Y-56266038D01*
X184779962Y-56105723D01*
X184653996Y-55917202D01*
X184567232Y-55707734D01*
X184523000Y-55485365D01*
X184523000Y-55258635D01*
X184567232Y-55036266D01*
X184653996Y-54826798D01*
X184779962Y-54638277D01*
X184940277Y-54477962D01*
X185128798Y-54351996D01*
X185338266Y-54265232D01*
X185560635Y-54221000D01*
X185787365Y-54221000D01*
X186009734Y-54265232D01*
X186009734Y-54265232D01*
G37*
G36*
X176288136Y-51842253D02*
X176379312Y-51880019D01*
X176461372Y-51934850D01*
X176531150Y-52004628D01*
X176585981Y-52086688D01*
X176623747Y-52177864D01*
X176643000Y-52274656D01*
X176643000Y-52373344D01*
X176623747Y-52470136D01*
X176585981Y-52561312D01*
X176531150Y-52643372D01*
X176461372Y-52713150D01*
X176379312Y-52767981D01*
X176288136Y-52805747D01*
X176191344Y-52825000D01*
X176092656Y-52825000D01*
X175995864Y-52805747D01*
X175904688Y-52767981D01*
X175822628Y-52713150D01*
X175752850Y-52643372D01*
X175698019Y-52561312D01*
X175660253Y-52470136D01*
X175641000Y-52373344D01*
X175641000Y-52274656D01*
X175660253Y-52177864D01*
X175698019Y-52086688D01*
X175752850Y-52004628D01*
X175822628Y-51934850D01*
X175904688Y-51880019D01*
X175995864Y-51842253D01*
X176092656Y-51823000D01*
X176191344Y-51823000D01*
X176288136Y-51842253D01*
X176288136Y-51842253D01*
G37*
G36*
X178588136Y-51842253D02*
X178679312Y-51880019D01*
X178761372Y-51934850D01*
X178831150Y-52004628D01*
X178885981Y-52086688D01*
X178923747Y-52177864D01*
X178943000Y-52274656D01*
X178943000Y-52373344D01*
X178923747Y-52470136D01*
X178885981Y-52561312D01*
X178831150Y-52643372D01*
X178761372Y-52713150D01*
X178679312Y-52767981D01*
X178588136Y-52805747D01*
X178491344Y-52825000D01*
X178392656Y-52825000D01*
X178295864Y-52805747D01*
X178204688Y-52767981D01*
X178122628Y-52713150D01*
X178052850Y-52643372D01*
X177998019Y-52561312D01*
X177960253Y-52470136D01*
X177941000Y-52373344D01*
X177941000Y-52274656D01*
X177960253Y-52177864D01*
X177998019Y-52086688D01*
X178052850Y-52004628D01*
X178122628Y-51934850D01*
X178204688Y-51880019D01*
X178295864Y-51842253D01*
X178392656Y-51823000D01*
X178491344Y-51823000D01*
X178588136Y-51842253D01*
X178588136Y-51842253D01*
G37*
M02*
